G04 #@! TF.GenerationSoftware,KiCad,Pcbnew,(6.0.2)*
G04 #@! TF.CreationDate,2022-07-31T17:20:06+02:00*
G04 #@! TF.ProjectId,progetto_motor_controller,70726f67-6574-4746-9f5f-6d6f746f725f,rev?*
G04 #@! TF.SameCoordinates,Original*
G04 #@! TF.FileFunction,Paste,Top*
G04 #@! TF.FilePolarity,Positive*
%FSLAX46Y46*%
G04 Gerber Fmt 4.6, Leading zero omitted, Abs format (unit mm)*
G04 Created by KiCad (PCBNEW (6.0.2)) date 2022-07-31 17:20:06*
%MOMM*%
%LPD*%
G01*
G04 APERTURE LIST*
G04 Aperture macros list*
%AMRoundRect*
0 Rectangle with rounded corners*
0 $1 Rounding radius*
0 $2 $3 $4 $5 $6 $7 $8 $9 X,Y pos of 4 corners*
0 Add a 4 corners polygon primitive as box body*
4,1,4,$2,$3,$4,$5,$6,$7,$8,$9,$2,$3,0*
0 Add four circle primitives for the rounded corners*
1,1,$1+$1,$2,$3*
1,1,$1+$1,$4,$5*
1,1,$1+$1,$6,$7*
1,1,$1+$1,$8,$9*
0 Add four rect primitives between the rounded corners*
20,1,$1+$1,$2,$3,$4,$5,0*
20,1,$1+$1,$4,$5,$6,$7,0*
20,1,$1+$1,$6,$7,$8,$9,0*
20,1,$1+$1,$8,$9,$2,$3,0*%
%AMRotRect*
0 Rectangle, with rotation*
0 The origin of the aperture is its center*
0 $1 length*
0 $2 width*
0 $3 Rotation angle, in degrees counterclockwise*
0 Add horizontal line*
21,1,$1,$2,0,0,$3*%
%AMFreePoly0*
4,1,6,0.270000,0.070500,0.090000,-0.105000,-0.090000,-0.105000,-0.090000,0.105000,0.270000,0.105000,0.270000,0.070500,0.270000,0.070500,$1*%
%AMFreePoly1*
4,1,6,0.090000,-0.105000,-0.090000,-0.105000,-0.270000,0.070500,-0.270000,0.105000,0.090000,0.105000,0.090000,-0.105000,0.090000,-0.105000,$1*%
G04 Aperture macros list end*
%ADD10C,0.100000*%
%ADD11RoundRect,0.200000X0.275000X-0.200000X0.275000X0.200000X-0.275000X0.200000X-0.275000X-0.200000X0*%
%ADD12RoundRect,0.218750X-0.218750X-0.256250X0.218750X-0.256250X0.218750X0.256250X-0.218750X0.256250X0*%
%ADD13R,1.796999X5.403799*%
%ADD14O,1.250000X0.950000*%
%ADD15O,0.890000X1.550000*%
%ADD16R,0.400000X1.350000*%
%ADD17R,1.200000X1.550000*%
%ADD18R,1.500000X1.550000*%
%ADD19RoundRect,0.200000X0.200000X0.275000X-0.200000X0.275000X-0.200000X-0.275000X0.200000X-0.275000X0*%
%ADD20R,1.000000X1.000000*%
%ADD21RoundRect,0.250000X0.650000X-0.325000X0.650000X0.325000X-0.650000X0.325000X-0.650000X-0.325000X0*%
%ADD22RoundRect,0.200000X-0.200000X-0.275000X0.200000X-0.275000X0.200000X0.275000X-0.200000X0.275000X0*%
%ADD23R,5.403799X1.796999*%
%ADD24RoundRect,0.140000X-0.140000X-0.170000X0.140000X-0.170000X0.140000X0.170000X-0.140000X0.170000X0*%
%ADD25R,0.600000X0.800000*%
%ADD26R,4.410000X4.550000*%
%ADD27R,0.500000X0.850000*%
%ADD28RoundRect,0.250000X-1.075000X0.375000X-1.075000X-0.375000X1.075000X-0.375000X1.075000X0.375000X0*%
%ADD29RoundRect,0.225000X-0.225000X-0.250000X0.225000X-0.250000X0.225000X0.250000X-0.225000X0.250000X0*%
%ADD30RoundRect,0.225000X0.250000X-0.225000X0.250000X0.225000X-0.250000X0.225000X-0.250000X-0.225000X0*%
%ADD31R,1.400000X0.390000*%
%ADD32R,0.700000X0.250000*%
%ADD33R,1.250000X0.390000*%
%ADD34RoundRect,0.225000X0.225000X0.250000X-0.225000X0.250000X-0.225000X-0.250000X0.225000X-0.250000X0*%
%ADD35R,0.300000X0.800000*%
%ADD36RoundRect,0.200000X-0.275000X0.200000X-0.275000X-0.200000X0.275000X-0.200000X0.275000X0.200000X0*%
%ADD37RoundRect,0.150000X0.150000X-0.512500X0.150000X0.512500X-0.150000X0.512500X-0.150000X-0.512500X0*%
%ADD38RoundRect,0.140000X-0.170000X0.140000X-0.170000X-0.140000X0.170000X-0.140000X0.170000X0.140000X0*%
%ADD39R,0.600000X0.450000*%
%ADD40RoundRect,0.075000X-0.700000X-0.075000X0.700000X-0.075000X0.700000X0.075000X-0.700000X0.075000X0*%
%ADD41RoundRect,0.075000X-0.075000X-0.700000X0.075000X-0.700000X0.075000X0.700000X-0.075000X0.700000X0*%
%ADD42R,2.800000X1.000000*%
%ADD43R,1.800000X0.600000*%
%ADD44RoundRect,0.140000X0.140000X0.170000X-0.140000X0.170000X-0.140000X-0.170000X0.140000X-0.170000X0*%
%ADD45RoundRect,0.140000X0.170000X-0.140000X0.170000X0.140000X-0.170000X0.140000X-0.170000X-0.140000X0*%
%ADD46RoundRect,0.150000X0.587500X0.150000X-0.587500X0.150000X-0.587500X-0.150000X0.587500X-0.150000X0*%
%ADD47RoundRect,0.150000X0.150000X-0.587500X0.150000X0.587500X-0.150000X0.587500X-0.150000X-0.587500X0*%
%ADD48R,0.850000X1.800000*%
%ADD49R,0.600000X1.600000*%
%ADD50RoundRect,0.225000X-0.250000X0.225000X-0.250000X-0.225000X0.250000X-0.225000X0.250000X0.225000X0*%
%ADD51R,1.000000X2.800000*%
%ADD52R,0.600000X1.800000*%
%ADD53R,1.200000X1.400000*%
%ADD54R,0.757199X0.254800*%
%ADD55R,0.254800X0.757199*%
%ADD56RoundRect,0.250000X-1.075000X0.312500X-1.075000X-0.312500X1.075000X-0.312500X1.075000X0.312500X0*%
%ADD57RoundRect,0.150000X0.825000X0.150000X-0.825000X0.150000X-0.825000X-0.150000X0.825000X-0.150000X0*%
%ADD58RoundRect,0.135000X0.135000X0.185000X-0.135000X0.185000X-0.135000X-0.185000X0.135000X-0.185000X0*%
%ADD59FreePoly0,0.000000*%
%ADD60FreePoly1,180.000000*%
%ADD61FreePoly0,180.000000*%
%ADD62FreePoly1,0.000000*%
%ADD63RotRect,0.480000X0.480000X45.000000*%
G04 APERTURE END LIST*
D10*
X92900000Y-110598500D02*
X92900000Y-109401500D01*
X92900000Y-109401500D02*
X91245800Y-109401500D01*
X91245800Y-109401500D02*
X91245800Y-110598500D01*
X91245800Y-110598500D02*
X92900000Y-110598500D01*
G36*
X92900000Y-110598500D02*
G01*
X91245800Y-110598500D01*
X91245800Y-109401500D01*
X92900000Y-109401500D01*
X92900000Y-110598500D01*
G37*
X92900000Y-110598500D02*
X91245800Y-110598500D01*
X91245800Y-109401500D01*
X92900000Y-109401500D01*
X92900000Y-110598500D01*
X94754200Y-109201500D02*
X94754200Y-108004500D01*
X94754200Y-108004500D02*
X93100000Y-108004500D01*
X93100000Y-108004500D02*
X93100000Y-109201500D01*
X93100000Y-109201500D02*
X94754200Y-109201500D01*
G36*
X94754200Y-109201500D02*
G01*
X93100000Y-109201500D01*
X93100000Y-108004500D01*
X94754200Y-108004500D01*
X94754200Y-109201500D01*
G37*
X94754200Y-109201500D02*
X93100000Y-109201500D01*
X93100000Y-108004500D01*
X94754200Y-108004500D01*
X94754200Y-109201500D01*
X92900000Y-109201500D02*
X92900000Y-108004500D01*
X92900000Y-108004500D02*
X91245800Y-108004500D01*
X91245800Y-108004500D02*
X91245800Y-109201500D01*
X91245800Y-109201500D02*
X92900000Y-109201500D01*
G36*
X92900000Y-109201500D02*
G01*
X91245800Y-109201500D01*
X91245800Y-108004500D01*
X92900000Y-108004500D01*
X92900000Y-109201500D01*
G37*
X92900000Y-109201500D02*
X91245800Y-109201500D01*
X91245800Y-108004500D01*
X92900000Y-108004500D01*
X92900000Y-109201500D01*
X94754200Y-110598500D02*
X94754200Y-109401500D01*
X94754200Y-109401500D02*
X93100000Y-109401500D01*
X93100000Y-109401500D02*
X93100000Y-110598500D01*
X93100000Y-110598500D02*
X94754200Y-110598500D01*
G36*
X94754200Y-110598500D02*
G01*
X93100000Y-110598500D01*
X93100000Y-109401500D01*
X94754200Y-109401500D01*
X94754200Y-110598500D01*
G37*
X94754200Y-110598500D02*
X93100000Y-110598500D01*
X93100000Y-109401500D01*
X94754200Y-109401500D01*
X94754200Y-110598500D01*
X92900000Y-111995500D02*
X92900000Y-110798500D01*
X92900000Y-110798500D02*
X91245800Y-110798500D01*
X91245800Y-110798500D02*
X91245800Y-111995500D01*
X91245800Y-111995500D02*
X92900000Y-111995500D01*
G36*
X92900000Y-111995500D02*
G01*
X91245800Y-111995500D01*
X91245800Y-110798500D01*
X92900000Y-110798500D01*
X92900000Y-111995500D01*
G37*
X92900000Y-111995500D02*
X91245800Y-111995500D01*
X91245800Y-110798500D01*
X92900000Y-110798500D01*
X92900000Y-111995500D01*
X94754200Y-111995500D02*
X94754200Y-110798500D01*
X94754200Y-110798500D02*
X93100000Y-110798500D01*
X93100000Y-110798500D02*
X93100000Y-111995500D01*
X93100000Y-111995500D02*
X94754200Y-111995500D01*
G36*
X94754200Y-111995500D02*
G01*
X93100000Y-111995500D01*
X93100000Y-110798500D01*
X94754200Y-110798500D01*
X94754200Y-111995500D01*
G37*
X94754200Y-111995500D02*
X93100000Y-111995500D01*
X93100000Y-110798500D01*
X94754200Y-110798500D01*
X94754200Y-111995500D01*
D11*
X127300000Y-108575000D03*
X127300000Y-106925000D03*
D12*
X89312500Y-98800000D03*
X90887500Y-98800000D03*
D13*
X91000000Y-133745800D03*
X91000000Y-124154200D03*
D11*
X113600000Y-112700000D03*
X113600000Y-111050000D03*
D14*
X136400000Y-80950000D03*
X131400000Y-80950000D03*
D15*
X130400000Y-78250000D03*
X137400000Y-78250000D03*
D16*
X135200000Y-80950000D03*
X134550000Y-80950000D03*
X133900000Y-80950000D03*
X133250000Y-80950000D03*
X132600000Y-80950000D03*
D17*
X131000000Y-78250000D03*
X136800000Y-78250000D03*
D18*
X132900000Y-78250000D03*
X134900000Y-78250000D03*
D19*
X100525000Y-120450000D03*
X98875000Y-120450000D03*
D20*
X137050000Y-119000000D03*
X134550000Y-119000000D03*
D21*
X132250000Y-99775000D03*
X132250000Y-96825000D03*
X122000000Y-132425000D03*
X122000000Y-129475000D03*
D22*
X136425000Y-95300000D03*
X138075000Y-95300000D03*
D23*
X145686200Y-128950000D03*
X136094600Y-128950000D03*
D24*
X103320000Y-95300000D03*
X104280000Y-95300000D03*
D11*
X127600000Y-104275000D03*
X127600000Y-102625000D03*
D25*
X129705000Y-135575000D03*
D26*
X127800000Y-133700000D03*
D25*
X127165000Y-135575000D03*
X125895000Y-135575000D03*
X128435000Y-135575000D03*
D27*
X125895000Y-129750000D03*
X129705000Y-129750000D03*
X128435000Y-129750000D03*
X127165000Y-129750000D03*
D28*
X99450000Y-104050000D03*
X99450000Y-106850000D03*
D29*
X100075000Y-88050000D03*
X101625000Y-88050000D03*
D30*
X107800000Y-93975000D03*
X107800000Y-92425000D03*
D25*
X116605000Y-126075000D03*
X117875000Y-126075000D03*
D26*
X115970000Y-124200000D03*
D25*
X114065000Y-126075000D03*
X115335000Y-126075000D03*
D27*
X114065000Y-120250000D03*
X116605000Y-120250000D03*
X115335000Y-120250000D03*
X117875000Y-120250000D03*
D11*
X109850000Y-125775000D03*
X109850000Y-124125000D03*
D31*
X135660000Y-97710000D03*
X135650000Y-98490000D03*
D32*
X137100000Y-98850000D03*
X137100000Y-98350000D03*
X137100000Y-97850000D03*
X137100000Y-97350000D03*
X134200000Y-97350000D03*
X134200000Y-97850000D03*
X134200000Y-98350000D03*
X134200000Y-98850000D03*
D33*
X135650000Y-99210000D03*
X135650000Y-96990000D03*
D25*
X127165000Y-126075000D03*
X125895000Y-126075000D03*
X128435000Y-126075000D03*
X129705000Y-126075000D03*
D26*
X127800000Y-124200000D03*
D27*
X125895000Y-120250000D03*
X127165000Y-120250000D03*
X129705000Y-120250000D03*
X128435000Y-120250000D03*
D34*
X96825000Y-102550000D03*
X95275000Y-102550000D03*
X96825000Y-104350000D03*
X95275000Y-104350000D03*
D35*
X124050000Y-104700000D03*
X124550000Y-104700000D03*
X125050000Y-104700000D03*
X125550000Y-104700000D03*
X125550000Y-101600000D03*
X125050000Y-101600000D03*
X124550000Y-101600000D03*
X124050000Y-101600000D03*
D36*
X135650000Y-86125000D03*
X135650000Y-87775000D03*
D37*
X130500000Y-86137500D03*
X131450000Y-86137500D03*
X132400000Y-86137500D03*
X132400000Y-83862500D03*
X131450000Y-83862500D03*
X130500000Y-83862500D03*
D34*
X134825000Y-95300000D03*
X133275000Y-95300000D03*
D38*
X122300000Y-96020000D03*
X122300000Y-96980000D03*
D19*
X124825000Y-109150000D03*
X123175000Y-109150000D03*
D25*
X102295000Y-135575000D03*
X103565000Y-135575000D03*
X106105000Y-135575000D03*
D26*
X104200000Y-133700000D03*
D25*
X104835000Y-135575000D03*
D27*
X102295000Y-129750000D03*
X103565000Y-129750000D03*
X104835000Y-129750000D03*
X106105000Y-129750000D03*
D11*
X97900000Y-86425000D03*
X97900000Y-84775000D03*
D39*
X141350000Y-89800000D03*
X139250000Y-89800000D03*
D40*
X109125000Y-96250000D03*
X109125000Y-96750000D03*
X109125000Y-97250000D03*
X109125000Y-97750000D03*
X109125000Y-98250000D03*
X109125000Y-98750000D03*
X109125000Y-99250000D03*
X109125000Y-99750000D03*
X109125000Y-100250000D03*
X109125000Y-100750000D03*
X109125000Y-101250000D03*
X109125000Y-101750000D03*
X109125000Y-102250000D03*
X109125000Y-102750000D03*
X109125000Y-103250000D03*
X109125000Y-103750000D03*
D41*
X111050000Y-105675000D03*
X111550000Y-105675000D03*
X112050000Y-105675000D03*
X112550000Y-105675000D03*
X113050000Y-105675000D03*
X113550000Y-105675000D03*
X114050000Y-105675000D03*
X114550000Y-105675000D03*
X115050000Y-105675000D03*
X115550000Y-105675000D03*
X116050000Y-105675000D03*
X116550000Y-105675000D03*
X117050000Y-105675000D03*
X117550000Y-105675000D03*
X118050000Y-105675000D03*
X118550000Y-105675000D03*
D40*
X120475000Y-103750000D03*
X120475000Y-103250000D03*
X120475000Y-102750000D03*
X120475000Y-102250000D03*
X120475000Y-101750000D03*
X120475000Y-101250000D03*
X120475000Y-100750000D03*
X120475000Y-100250000D03*
X120475000Y-99750000D03*
X120475000Y-99250000D03*
X120475000Y-98750000D03*
X120475000Y-98250000D03*
X120475000Y-97750000D03*
X120475000Y-97250000D03*
X120475000Y-96750000D03*
X120475000Y-96250000D03*
D41*
X118550000Y-94325000D03*
X118050000Y-94325000D03*
X117550000Y-94325000D03*
X117050000Y-94325000D03*
X116550000Y-94325000D03*
X116050000Y-94325000D03*
X115550000Y-94325000D03*
X115050000Y-94325000D03*
X114550000Y-94325000D03*
X114050000Y-94325000D03*
X113550000Y-94325000D03*
X113050000Y-94325000D03*
X112550000Y-94325000D03*
X112050000Y-94325000D03*
X111550000Y-94325000D03*
X111050000Y-94325000D03*
D42*
X147150000Y-93850000D03*
X147150000Y-89150000D03*
D43*
X143950000Y-92125000D03*
X143950000Y-90875000D03*
D44*
X96580000Y-101050000D03*
X95620000Y-101050000D03*
D30*
X129500000Y-104225000D03*
X129500000Y-102675000D03*
D19*
X87575000Y-98850000D03*
X85925000Y-98850000D03*
D45*
X109700000Y-93930000D03*
X109700000Y-92970000D03*
D30*
X138200000Y-105175000D03*
X138200000Y-103625000D03*
D46*
X139537500Y-87800000D03*
X139537500Y-85900000D03*
X137662500Y-86850000D03*
D29*
X123225000Y-107300000D03*
X124775000Y-107300000D03*
D42*
X84800000Y-88000000D03*
X84800000Y-95200000D03*
D43*
X88000000Y-89725000D03*
X88000000Y-90975000D03*
X88000000Y-92225000D03*
X88000000Y-93475000D03*
D47*
X128750000Y-89987500D03*
X130650000Y-89987500D03*
X129700000Y-88112500D03*
D19*
X124425000Y-85900000D03*
X122775000Y-85900000D03*
D44*
X104280000Y-101000000D03*
X103320000Y-101000000D03*
D13*
X132000000Y-139354200D03*
X132000000Y-148945800D03*
D29*
X136475000Y-93500000D03*
X138025000Y-93500000D03*
D48*
X116475000Y-79100000D03*
X104125000Y-79100000D03*
D49*
X114800000Y-83800000D03*
X114800000Y-78100000D03*
X113800000Y-83800000D03*
X113800000Y-78100000D03*
X112800000Y-83800000D03*
X112800000Y-78100000D03*
X111800000Y-83800000D03*
X111800000Y-78100000D03*
X110800000Y-83800000D03*
X110800000Y-78100000D03*
X109800000Y-83800000D03*
X109800000Y-78100000D03*
X108800000Y-83800000D03*
X108800000Y-78100000D03*
X107800000Y-83800000D03*
X107800000Y-78100000D03*
X106800000Y-83800000D03*
X106800000Y-78100000D03*
X105800000Y-83800000D03*
X105800000Y-78100000D03*
D50*
X127800000Y-96850000D03*
X127800000Y-98400000D03*
D36*
X138800000Y-96740000D03*
X138800000Y-98390000D03*
D51*
X118550000Y-79000000D03*
X128250000Y-79000000D03*
D52*
X126525000Y-82200000D03*
X125275000Y-82200000D03*
X124025000Y-82200000D03*
X122775000Y-82200000D03*
X121525000Y-82200000D03*
X120275000Y-82200000D03*
D21*
X132050000Y-132425000D03*
X132050000Y-129475000D03*
D34*
X95975000Y-115200000D03*
X94425000Y-115200000D03*
D50*
X92750000Y-115175000D03*
X92750000Y-116725000D03*
D44*
X107480000Y-95300000D03*
X106520000Y-95300000D03*
D26*
X115970000Y-133700000D03*
D25*
X116605000Y-135575000D03*
X117875000Y-135575000D03*
X115335000Y-135575000D03*
X114065000Y-135575000D03*
D27*
X114065000Y-129750000D03*
X115335000Y-129750000D03*
X116605000Y-129750000D03*
X117875000Y-129750000D03*
D19*
X124225000Y-120400000D03*
X122575000Y-120400000D03*
D30*
X102550000Y-110375000D03*
X102550000Y-108825000D03*
D53*
X102950000Y-97100000D03*
X102950000Y-99300000D03*
X104650000Y-99300000D03*
X104650000Y-97100000D03*
D36*
X115300000Y-111025000D03*
X115300000Y-112675000D03*
D54*
X95450000Y-112250002D03*
X95450000Y-111750000D03*
X95450000Y-111250001D03*
X95450000Y-110750002D03*
X95450000Y-110250001D03*
X95450000Y-109750001D03*
X95450000Y-109250000D03*
X95450000Y-108750001D03*
X95450000Y-108250002D03*
X95450000Y-107750000D03*
D55*
X94749999Y-107080000D03*
X94250000Y-107080000D03*
X93750001Y-107080000D03*
X93250000Y-107080000D03*
X92750000Y-107080000D03*
X92249999Y-107080000D03*
X91750000Y-107080000D03*
X91250001Y-107080000D03*
D54*
X90550000Y-107749999D03*
X90550000Y-108250001D03*
X90550000Y-108750000D03*
X90550000Y-109249999D03*
X90550000Y-109750000D03*
X90550000Y-110250000D03*
X90550000Y-110750001D03*
X90550000Y-111250000D03*
X90550000Y-111749999D03*
X90550000Y-112250001D03*
D55*
X91250001Y-112918600D03*
X91750000Y-112918600D03*
X92249999Y-112918600D03*
X92750000Y-112918600D03*
X93250000Y-112918600D03*
X93750001Y-112918600D03*
X94250000Y-112918600D03*
X94749999Y-112918600D03*
D25*
X102295000Y-126075000D03*
D26*
X104200000Y-124200000D03*
D25*
X103565000Y-126075000D03*
X106105000Y-126075000D03*
X104835000Y-126075000D03*
D27*
X102295000Y-120250000D03*
X104835000Y-120250000D03*
X106105000Y-120250000D03*
X103565000Y-120250000D03*
D56*
X95400000Y-90887500D03*
X95400000Y-93812500D03*
D50*
X90700000Y-115150000D03*
X90700000Y-116700000D03*
D42*
X147150000Y-97150000D03*
X147150000Y-105650000D03*
D43*
X143950000Y-103900000D03*
X143950000Y-102650000D03*
X143950000Y-101400000D03*
X143950000Y-100150000D03*
X143950000Y-98900000D03*
D50*
X129200000Y-106975000D03*
X129200000Y-108525000D03*
D26*
X135100000Y-112450000D03*
D25*
X134465000Y-110575000D03*
X133195000Y-110575000D03*
X137005000Y-110575000D03*
X135735000Y-110575000D03*
D27*
X137005000Y-116400000D03*
X134465000Y-116400000D03*
X133195000Y-116400000D03*
X135735000Y-116400000D03*
D21*
X109850000Y-132225000D03*
X109850000Y-129275000D03*
D57*
X103625000Y-93805000D03*
X103625000Y-92535000D03*
X103625000Y-91265000D03*
X103625000Y-89995000D03*
X98675000Y-89995000D03*
X98675000Y-91265000D03*
X98675000Y-92535000D03*
X98675000Y-93805000D03*
D34*
X134800000Y-93500000D03*
X133250000Y-93500000D03*
D11*
X122300000Y-125775000D03*
X122300000Y-124125000D03*
D36*
X131100000Y-106925000D03*
X131100000Y-108575000D03*
D34*
X99075000Y-113150000D03*
X97525000Y-113150000D03*
D58*
X107185000Y-99075000D03*
X106165000Y-99075000D03*
D11*
X140100000Y-105225000D03*
X140100000Y-103575000D03*
X131400000Y-104275000D03*
X131400000Y-102625000D03*
D19*
X87575000Y-100750000D03*
X85925000Y-100750000D03*
X140225000Y-119050000D03*
X138575000Y-119050000D03*
D44*
X119900000Y-107400000D03*
X118940000Y-107400000D03*
D46*
X92437500Y-93800000D03*
X92437500Y-91900000D03*
X90562500Y-92850000D03*
D50*
X124500000Y-95925000D03*
X124500000Y-97475000D03*
D44*
X112030000Y-107500000D03*
X111070000Y-107500000D03*
D12*
X89262500Y-100750000D03*
X90837500Y-100750000D03*
D19*
X137225000Y-89600000D03*
X135575000Y-89600000D03*
D13*
X100000000Y-139354200D03*
X100000000Y-148945800D03*
D19*
X112325000Y-120450000D03*
X110675000Y-120450000D03*
X100525000Y-129850000D03*
X98875000Y-129850000D03*
D11*
X136300000Y-105225000D03*
X136300000Y-103575000D03*
D59*
X125680000Y-96775000D03*
D60*
X125680000Y-97425000D03*
D61*
X126720000Y-97425000D03*
D62*
X126720000Y-96775000D03*
D63*
X126200000Y-97100000D03*
M02*
