G04 #@! TF.GenerationSoftware,KiCad,Pcbnew,(6.0.2)*
G04 #@! TF.CreationDate,2022-07-31T17:13:20+02:00*
G04 #@! TF.ProjectId,progetto_motor_controller,70726f67-6574-4746-9f5f-6d6f746f725f,rev?*
G04 #@! TF.SameCoordinates,Original*
G04 #@! TF.FileFunction,Soldermask,Bot*
G04 #@! TF.FilePolarity,Negative*
%FSLAX46Y46*%
G04 Gerber Fmt 4.6, Leading zero omitted, Abs format (unit mm)*
G04 Created by KiCad (PCBNEW (6.0.2)) date 2022-07-31 17:13:20*
%MOMM*%
%LPD*%
G01*
G04 APERTURE LIST*
G04 Aperture macros list*
%AMRoundRect*
0 Rectangle with rounded corners*
0 $1 Rounding radius*
0 $2 $3 $4 $5 $6 $7 $8 $9 X,Y pos of 4 corners*
0 Add a 4 corners polygon primitive as box body*
4,1,4,$2,$3,$4,$5,$6,$7,$8,$9,$2,$3,0*
0 Add four circle primitives for the rounded corners*
1,1,$1+$1,$2,$3*
1,1,$1+$1,$4,$5*
1,1,$1+$1,$6,$7*
1,1,$1+$1,$8,$9*
0 Add four rect primitives between the rounded corners*
20,1,$1+$1,$2,$3,$4,$5,0*
20,1,$1+$1,$4,$5,$6,$7,0*
20,1,$1+$1,$6,$7,$8,$9,0*
20,1,$1+$1,$8,$9,$2,$3,0*%
%AMFreePoly0*
4,1,14,0.124905,0.140800,0.304905,-0.034700,0.320000,-0.070500,0.320000,-0.105000,0.305355,-0.140355,0.270000,-0.155000,-0.090000,-0.155000,-0.125355,-0.140355,-0.140000,-0.105000,-0.140000,0.105000,-0.125355,0.140355,-0.090000,0.155000,0.090000,0.155000,0.124905,0.140800,0.124905,0.140800,$1*%
%AMFreePoly1*
4,1,14,0.125355,0.140355,0.140000,0.105000,0.140000,-0.105000,0.125355,-0.140355,0.090000,-0.155000,-0.270000,-0.155000,-0.305355,-0.140355,-0.320000,-0.105000,-0.320000,-0.070500,-0.304905,-0.034700,-0.124905,0.140800,-0.090000,0.155000,0.090000,0.155000,0.125355,0.140355,0.125355,0.140355,$1*%
G04 Aperture macros list end*
%ADD10C,0.000000*%
%ADD11O,1.350000X1.050000*%
%ADD12O,0.990000X1.650000*%
%ADD13C,0.900000*%
%ADD14C,6.500000*%
%ADD15RoundRect,0.050000X1.200000X-1.200000X1.200000X1.200000X-1.200000X1.200000X-1.200000X-1.200000X0*%
%ADD16C,2.500000*%
%ADD17RoundRect,0.050000X-1.300000X-1.300000X1.300000X-1.300000X1.300000X1.300000X-1.300000X1.300000X0*%
%ADD18C,2.700000*%
%ADD19RoundRect,0.050000X-0.850000X0.850000X-0.850000X-0.850000X0.850000X-0.850000X0.850000X0.850000X0*%
%ADD20O,1.800000X1.800000*%
%ADD21C,1.100000*%
%ADD22RoundRect,0.275000X0.225000X0.250000X-0.225000X0.250000X-0.225000X-0.250000X0.225000X-0.250000X0*%
%ADD23RoundRect,0.275000X0.250000X-0.225000X0.250000X0.225000X-0.250000X0.225000X-0.250000X-0.225000X0*%
%ADD24RoundRect,0.300000X1.425000X-0.362500X1.425000X0.362500X-1.425000X0.362500X-1.425000X-0.362500X0*%
%ADD25RoundRect,0.050000X0.450000X0.600000X-0.450000X0.600000X-0.450000X-0.600000X0.450000X-0.600000X0*%
%ADD26RoundRect,0.200000X-0.150000X0.825000X-0.150000X-0.825000X0.150000X-0.825000X0.150000X0.825000X0*%
%ADD27RoundRect,0.250000X-0.200000X-0.275000X0.200000X-0.275000X0.200000X0.275000X-0.200000X0.275000X0*%
%ADD28RoundRect,0.250000X0.200000X0.275000X-0.200000X0.275000X-0.200000X-0.275000X0.200000X-0.275000X0*%
%ADD29RoundRect,0.250000X0.275000X-0.200000X0.275000X0.200000X-0.275000X0.200000X-0.275000X-0.200000X0*%
%ADD30FreePoly0,0.000000*%
%ADD31FreePoly1,180.000000*%
%ADD32FreePoly0,180.000000*%
%ADD33FreePoly1,0.000000*%
%ADD34RoundRect,0.050000X-0.339411X0.000000X0.000000X-0.339411X0.339411X0.000000X0.000000X0.339411X0*%
%ADD35RoundRect,0.200000X0.150000X-0.825000X0.150000X0.825000X-0.150000X0.825000X-0.150000X-0.825000X0*%
%ADD36RoundRect,0.275000X-0.225000X-0.250000X0.225000X-0.250000X0.225000X0.250000X-0.225000X0.250000X0*%
%ADD37RoundRect,0.190000X0.140000X0.170000X-0.140000X0.170000X-0.140000X-0.170000X0.140000X-0.170000X0*%
%ADD38RoundRect,0.190000X-0.140000X-0.170000X0.140000X-0.170000X0.140000X0.170000X-0.140000X0.170000X0*%
%ADD39RoundRect,0.190000X0.170000X-0.140000X0.170000X0.140000X-0.170000X0.140000X-0.170000X-0.140000X0*%
G04 APERTURE END LIST*
D10*
G36*
X135350000Y-120900000D02*
G01*
X123200000Y-120900000D01*
X123200000Y-113150000D01*
X135350000Y-113150000D01*
X135350000Y-120900000D01*
G37*
G36*
X108700000Y-120900000D02*
G01*
X96950000Y-120900000D01*
X96950000Y-114250000D01*
X108700000Y-114250000D01*
X108700000Y-120900000D01*
G37*
G36*
X110700000Y-143350000D02*
G01*
X110150000Y-143350000D01*
X105300000Y-138500000D01*
X105300000Y-130900000D01*
X110700000Y-130900000D01*
X110700000Y-143350000D01*
G37*
G36*
X126700000Y-138550000D02*
G01*
X121850000Y-143350000D01*
X121300000Y-143350000D01*
X121300000Y-130900000D01*
X126700000Y-130900000D01*
X126700000Y-138550000D01*
G37*
G36*
X121000000Y-130400000D02*
G01*
X111000000Y-130400000D01*
X111000000Y-121150000D01*
X121000000Y-121150000D01*
X121000000Y-130400000D01*
G37*
G36*
X108550000Y-130150000D02*
G01*
X104950000Y-130150000D01*
X104675000Y-130450000D01*
X100650000Y-130450000D01*
X100650000Y-128250000D01*
X96950000Y-128250000D01*
X96950000Y-121150000D01*
X108550006Y-121149167D01*
X108550000Y-130150000D01*
G37*
G36*
X135350000Y-121157530D02*
G01*
X135350029Y-128250001D01*
X131300000Y-128250000D01*
X131300000Y-130454774D01*
X123500000Y-130449921D01*
X123496304Y-121152007D01*
X135350000Y-121157530D01*
G37*
G36*
X120900000Y-120900000D02*
G01*
X111000000Y-120900000D01*
X111000000Y-114250000D01*
X120900000Y-114250000D01*
X120900000Y-120900000D01*
G37*
D11*
X136400000Y-80950000D03*
D12*
X130400000Y-78250000D03*
D11*
X131400000Y-80950000D03*
D12*
X137400000Y-78250000D03*
D13*
X87302944Y-144302944D03*
X89000000Y-143600000D03*
X91400000Y-146000000D03*
X90697056Y-147697056D03*
X87302944Y-147697056D03*
X89000000Y-148400000D03*
X86600000Y-146000000D03*
D14*
X89000000Y-146000000D03*
D13*
X90697056Y-144302944D03*
D15*
X144000000Y-115550000D03*
D16*
X144000000Y-112050000D03*
D17*
X111000000Y-147150000D03*
D18*
X116000000Y-147150000D03*
X121000000Y-147150000D03*
D19*
X100450000Y-81900000D03*
D20*
X97910000Y-81900000D03*
X95370000Y-81900000D03*
D13*
X141302944Y-144302944D03*
X144697056Y-144302944D03*
X143000000Y-143600000D03*
X141302944Y-147697056D03*
D14*
X143000000Y-146000000D03*
D13*
X140600000Y-146000000D03*
X145400000Y-146000000D03*
X144697056Y-147697056D03*
X143000000Y-148400000D03*
X141302944Y-84697056D03*
X141302944Y-81302944D03*
X143000000Y-80600000D03*
X144697056Y-81302944D03*
X143000000Y-85400000D03*
D14*
X143000000Y-83000000D03*
D13*
X140600000Y-83000000D03*
X144697056Y-84697056D03*
X145400000Y-83000000D03*
X90697056Y-84697056D03*
X89000000Y-80600000D03*
X90697056Y-81302944D03*
D14*
X89000000Y-83000000D03*
D13*
X91400000Y-83000000D03*
X89000000Y-85400000D03*
X86600000Y-83000000D03*
X87302944Y-81302944D03*
X87302944Y-84697056D03*
D21*
X108550000Y-102650000D03*
D22*
X122475000Y-116400000D03*
X120925000Y-116400000D03*
D21*
X122650000Y-102950000D03*
D23*
X128000000Y-101375000D03*
X128000000Y-99825000D03*
D24*
X98800000Y-133512500D03*
X98800000Y-127587500D03*
D22*
X123975000Y-125150000D03*
X122425000Y-125150000D03*
D25*
X110250000Y-114150000D03*
X106950000Y-114150000D03*
X136550000Y-114050000D03*
X133250000Y-114050000D03*
D23*
X111900000Y-101725000D03*
X111900000Y-100175000D03*
D26*
X136395000Y-128075000D03*
X137665000Y-128075000D03*
X138935000Y-128075000D03*
X140205000Y-128075000D03*
X140205000Y-133025000D03*
X138935000Y-133025000D03*
X137665000Y-133025000D03*
X136395000Y-133025000D03*
D27*
X105825000Y-99150000D03*
X107475000Y-99150000D03*
D28*
X122525000Y-119900000D03*
X120875000Y-119900000D03*
D21*
X114650000Y-106500000D03*
X122100000Y-100500000D03*
D27*
X129475000Y-94350000D03*
X131125000Y-94350000D03*
D22*
X139175000Y-116550000D03*
X137625000Y-116550000D03*
X111550000Y-125150000D03*
X110000000Y-125150000D03*
D29*
X109800000Y-123475000D03*
X109800000Y-121825000D03*
D27*
X126275000Y-94350000D03*
X127925000Y-94350000D03*
D21*
X127300000Y-95650000D03*
D28*
X110325000Y-119900000D03*
X108675000Y-119900000D03*
D23*
X124300000Y-101600000D03*
X124300000Y-100050000D03*
D30*
X125380000Y-101525000D03*
D31*
X125380000Y-100875000D03*
D32*
X126420000Y-100875000D03*
D33*
X126420000Y-101525000D03*
D34*
X125900000Y-101200000D03*
D21*
X121050000Y-107350000D03*
D27*
X137575000Y-119950000D03*
X139225000Y-119950000D03*
D28*
X122525000Y-118150000D03*
X120875000Y-118150000D03*
D24*
X133200000Y-133512500D03*
X133200000Y-127587500D03*
D29*
X122150000Y-123475000D03*
X122150000Y-121825000D03*
D35*
X131605000Y-92225000D03*
X130335000Y-92225000D03*
X129065000Y-92225000D03*
X127795000Y-92225000D03*
X127795000Y-87275000D03*
X129065000Y-87275000D03*
X130335000Y-87275000D03*
X131605000Y-87275000D03*
D36*
X95975000Y-107000000D03*
X97525000Y-107000000D03*
D21*
X116150000Y-103550000D03*
X118400000Y-109100000D03*
D37*
X139080000Y-135050000D03*
X138120000Y-135050000D03*
D38*
X93240000Y-134900000D03*
X94200000Y-134900000D03*
D29*
X136100000Y-124875000D03*
X136100000Y-123225000D03*
D26*
X91895000Y-128075000D03*
X93165000Y-128075000D03*
X94435000Y-128075000D03*
X95705000Y-128075000D03*
X95705000Y-133025000D03*
X94435000Y-133025000D03*
X93165000Y-133025000D03*
X91895000Y-133025000D03*
D22*
X110300000Y-116400000D03*
X108750000Y-116400000D03*
D21*
X123800000Y-105950000D03*
D28*
X110325000Y-118150000D03*
X108675000Y-118150000D03*
D25*
X122450000Y-114150000D03*
X119150000Y-114150000D03*
D22*
X107425000Y-100800000D03*
X105875000Y-100800000D03*
D39*
X110600000Y-101530000D03*
X110600000Y-100570000D03*
D22*
X97475000Y-125150000D03*
X95925000Y-125150000D03*
D27*
X137575000Y-118250000D03*
X139225000Y-118250000D03*
M02*
