G04 #@! TF.GenerationSoftware,KiCad,Pcbnew,(6.0.2)*
G04 #@! TF.CreationDate,2022-07-31T17:13:20+02:00*
G04 #@! TF.ProjectId,progetto_motor_controller,70726f67-6574-4746-9f5f-6d6f746f725f,rev?*
G04 #@! TF.SameCoordinates,Original*
G04 #@! TF.FileFunction,Legend,Top*
G04 #@! TF.FilePolarity,Positive*
%FSLAX46Y46*%
G04 Gerber Fmt 4.6, Leading zero omitted, Abs format (unit mm)*
G04 Created by KiCad (PCBNEW (6.0.2)) date 2022-07-31 17:13:20*
%MOMM*%
%LPD*%
G01*
G04 APERTURE LIST*
G04 Aperture macros list*
%AMRoundRect*
0 Rectangle with rounded corners*
0 $1 Rounding radius*
0 $2 $3 $4 $5 $6 $7 $8 $9 X,Y pos of 4 corners*
0 Add a 4 corners polygon primitive as box body*
4,1,4,$2,$3,$4,$5,$6,$7,$8,$9,$2,$3,0*
0 Add four circle primitives for the rounded corners*
1,1,$1+$1,$2,$3*
1,1,$1+$1,$4,$5*
1,1,$1+$1,$6,$7*
1,1,$1+$1,$8,$9*
0 Add four rect primitives between the rounded corners*
20,1,$1+$1,$2,$3,$4,$5,0*
20,1,$1+$1,$4,$5,$6,$7,0*
20,1,$1+$1,$6,$7,$8,$9,0*
20,1,$1+$1,$8,$9,$2,$3,0*%
%AMFreePoly0*
4,1,14,0.305355,0.140355,0.320000,0.105000,0.320000,0.070500,0.304905,0.034700,0.124905,-0.140800,0.090000,-0.155000,-0.090000,-0.155000,-0.125355,-0.140355,-0.140000,-0.105000,-0.140000,0.105000,-0.125355,0.140355,-0.090000,0.155000,0.270000,0.155000,0.305355,0.140355,0.305355,0.140355,$1*%
%AMFreePoly1*
4,1,14,0.125355,0.140355,0.140000,0.105000,0.140000,-0.105000,0.125355,-0.140355,0.090000,-0.155000,-0.090000,-0.155000,-0.124905,-0.140800,-0.304905,0.034700,-0.320000,0.070500,-0.320000,0.105000,-0.305355,0.140355,-0.270000,0.155000,0.090000,0.155000,0.125355,0.140355,0.125355,0.140355,$1*%
G04 Aperture macros list end*
%ADD10C,0.200000*%
%ADD11C,0.153000*%
%ADD12C,0.160000*%
%ADD13C,0.150000*%
%ADD14C,0.120000*%
%ADD15C,0.100000*%
%ADD16RoundRect,0.250000X0.275000X-0.200000X0.275000X0.200000X-0.275000X0.200000X-0.275000X-0.200000X0*%
%ADD17RoundRect,0.268750X-0.218750X-0.256250X0.218750X-0.256250X0.218750X0.256250X-0.218750X0.256250X0*%
%ADD18RoundRect,0.050000X0.898499X-2.701899X0.898499X2.701899X-0.898499X2.701899X-0.898499X-2.701899X0*%
%ADD19RoundRect,0.050000X0.200000X0.675000X-0.200000X0.675000X-0.200000X-0.675000X0.200000X-0.675000X0*%
%ADD20O,1.350000X1.050000*%
%ADD21RoundRect,0.050000X0.600000X0.775000X-0.600000X0.775000X-0.600000X-0.775000X0.600000X-0.775000X0*%
%ADD22O,0.990000X1.650000*%
%ADD23RoundRect,0.050000X0.750000X0.775000X-0.750000X0.775000X-0.750000X-0.775000X0.750000X-0.775000X0*%
%ADD24RoundRect,0.250000X0.200000X0.275000X-0.200000X0.275000X-0.200000X-0.275000X0.200000X-0.275000X0*%
%ADD25RoundRect,0.050000X0.500000X0.500000X-0.500000X0.500000X-0.500000X-0.500000X0.500000X-0.500000X0*%
%ADD26RoundRect,0.300000X0.650000X-0.325000X0.650000X0.325000X-0.650000X0.325000X-0.650000X-0.325000X0*%
%ADD27C,1.100000*%
%ADD28RoundRect,0.250000X-0.200000X-0.275000X0.200000X-0.275000X0.200000X0.275000X-0.200000X0.275000X0*%
%ADD29RoundRect,0.050000X2.701899X0.898499X-2.701899X0.898499X-2.701899X-0.898499X2.701899X-0.898499X0*%
%ADD30RoundRect,0.190000X-0.140000X-0.170000X0.140000X-0.170000X0.140000X0.170000X-0.140000X0.170000X0*%
%ADD31RoundRect,0.050000X0.300000X0.400000X-0.300000X0.400000X-0.300000X-0.400000X0.300000X-0.400000X0*%
%ADD32RoundRect,0.050000X2.205000X2.275000X-2.205000X2.275000X-2.205000X-2.275000X2.205000X-2.275000X0*%
%ADD33RoundRect,0.050000X0.250000X0.425000X-0.250000X0.425000X-0.250000X-0.425000X0.250000X-0.425000X0*%
%ADD34RoundRect,0.300000X-1.075000X0.375000X-1.075000X-0.375000X1.075000X-0.375000X1.075000X0.375000X0*%
%ADD35RoundRect,0.275000X-0.225000X-0.250000X0.225000X-0.250000X0.225000X0.250000X-0.225000X0.250000X0*%
%ADD36RoundRect,0.275000X0.250000X-0.225000X0.250000X0.225000X-0.250000X0.225000X-0.250000X-0.225000X0*%
%ADD37RoundRect,0.050000X0.700000X-0.195000X0.700000X0.195000X-0.700000X0.195000X-0.700000X-0.195000X0*%
%ADD38RoundRect,0.050000X0.350000X-0.125000X0.350000X0.125000X-0.350000X0.125000X-0.350000X-0.125000X0*%
%ADD39RoundRect,0.050000X0.625000X-0.195000X0.625000X0.195000X-0.625000X0.195000X-0.625000X-0.195000X0*%
%ADD40RoundRect,0.275000X0.225000X0.250000X-0.225000X0.250000X-0.225000X-0.250000X0.225000X-0.250000X0*%
%ADD41RoundRect,0.050000X-0.150000X-0.400000X0.150000X-0.400000X0.150000X0.400000X-0.150000X0.400000X0*%
%ADD42RoundRect,0.250000X-0.275000X0.200000X-0.275000X-0.200000X0.275000X-0.200000X0.275000X0.200000X0*%
%ADD43C,0.900000*%
%ADD44C,6.500000*%
%ADD45RoundRect,0.200000X0.150000X-0.512500X0.150000X0.512500X-0.150000X0.512500X-0.150000X-0.512500X0*%
%ADD46RoundRect,0.190000X-0.170000X0.140000X-0.170000X-0.140000X0.170000X-0.140000X0.170000X0.140000X0*%
%ADD47RoundRect,0.050000X0.300000X0.225000X-0.300000X0.225000X-0.300000X-0.225000X0.300000X-0.225000X0*%
%ADD48RoundRect,0.050000X1.200000X-1.200000X1.200000X1.200000X-1.200000X1.200000X-1.200000X-1.200000X0*%
%ADD49C,2.500000*%
%ADD50RoundRect,0.125000X-0.700000X-0.075000X0.700000X-0.075000X0.700000X0.075000X-0.700000X0.075000X0*%
%ADD51RoundRect,0.125000X-0.075000X-0.700000X0.075000X-0.700000X0.075000X0.700000X-0.075000X0.700000X0*%
%ADD52RoundRect,0.050000X1.400000X-0.500000X1.400000X0.500000X-1.400000X0.500000X-1.400000X-0.500000X0*%
%ADD53RoundRect,0.050000X0.900000X-0.300000X0.900000X0.300000X-0.900000X0.300000X-0.900000X-0.300000X0*%
%ADD54RoundRect,0.190000X0.140000X0.170000X-0.140000X0.170000X-0.140000X-0.170000X0.140000X-0.170000X0*%
%ADD55RoundRect,0.190000X0.170000X-0.140000X0.170000X0.140000X-0.170000X0.140000X-0.170000X-0.140000X0*%
%ADD56RoundRect,0.200000X0.587500X0.150000X-0.587500X0.150000X-0.587500X-0.150000X0.587500X-0.150000X0*%
%ADD57RoundRect,0.050000X-1.400000X0.500000X-1.400000X-0.500000X1.400000X-0.500000X1.400000X0.500000X0*%
%ADD58RoundRect,0.050000X-0.900000X0.300000X-0.900000X-0.300000X0.900000X-0.300000X0.900000X0.300000X0*%
%ADD59RoundRect,0.200000X0.150000X-0.587500X0.150000X0.587500X-0.150000X0.587500X-0.150000X-0.587500X0*%
%ADD60RoundRect,0.050000X-0.898499X2.701899X-0.898499X-2.701899X0.898499X-2.701899X0.898499X2.701899X0*%
%ADD61RoundRect,0.050000X0.425000X0.900000X-0.425000X0.900000X-0.425000X-0.900000X0.425000X-0.900000X0*%
%ADD62RoundRect,0.050000X-0.300000X-0.800000X0.300000X-0.800000X0.300000X0.800000X-0.300000X0.800000X0*%
%ADD63RoundRect,0.050000X0.300000X0.800000X-0.300000X0.800000X-0.300000X-0.800000X0.300000X-0.800000X0*%
%ADD64RoundRect,0.275000X-0.250000X0.225000X-0.250000X-0.225000X0.250000X-0.225000X0.250000X0.225000X0*%
%ADD65RoundRect,0.050000X-1.300000X-1.300000X1.300000X-1.300000X1.300000X1.300000X-1.300000X1.300000X0*%
%ADD66C,2.700000*%
%ADD67RoundRect,0.050000X0.500000X1.400000X-0.500000X1.400000X-0.500000X-1.400000X0.500000X-1.400000X0*%
%ADD68RoundRect,0.050000X0.300000X0.900000X-0.300000X0.900000X-0.300000X-0.900000X0.300000X-0.900000X0*%
%ADD69RoundRect,0.050000X-0.850000X0.850000X-0.850000X-0.850000X0.850000X-0.850000X0.850000X0.850000X0*%
%ADD70O,1.800000X1.800000*%
%ADD71RoundRect,0.050000X-0.600000X0.700000X-0.600000X-0.700000X0.600000X-0.700000X0.600000X0.700000X0*%
%ADD72RoundRect,0.050000X-0.378599X0.127400X-0.378599X-0.127400X0.378599X-0.127400X0.378599X0.127400X0*%
%ADD73RoundRect,0.050000X0.127400X0.378599X-0.127400X0.378599X-0.127400X-0.378599X0.127400X-0.378599X0*%
%ADD74RoundRect,0.050000X1.854200X2.095500X-1.854200X2.095500X-1.854200X-2.095500X1.854200X-2.095500X0*%
%ADD75RoundRect,0.300000X-1.075000X0.312500X-1.075000X-0.312500X1.075000X-0.312500X1.075000X0.312500X0*%
%ADD76RoundRect,0.050000X-2.205000X-2.275000X2.205000X-2.275000X2.205000X2.275000X-2.205000X2.275000X0*%
%ADD77RoundRect,0.050000X-0.300000X-0.400000X0.300000X-0.400000X0.300000X0.400000X-0.300000X0.400000X0*%
%ADD78RoundRect,0.050000X-0.250000X-0.425000X0.250000X-0.425000X0.250000X0.425000X-0.250000X0.425000X0*%
%ADD79RoundRect,0.200000X0.825000X0.150000X-0.825000X0.150000X-0.825000X-0.150000X0.825000X-0.150000X0*%
%ADD80RoundRect,0.185000X0.135000X0.185000X-0.135000X0.185000X-0.135000X-0.185000X0.135000X-0.185000X0*%
%ADD81FreePoly0,0.000000*%
%ADD82FreePoly1,180.000000*%
%ADD83FreePoly0,180.000000*%
%ADD84FreePoly1,0.000000*%
%ADD85RoundRect,0.050000X0.000000X-0.339411X0.339411X0.000000X0.000000X0.339411X-0.339411X0.000000X0*%
G04 APERTURE END LIST*
D10*
X125850000Y-96200000D02*
G75*
G03*
X125850000Y-96200000I-100000J0D01*
G01*
X101850000Y-97050000D02*
G75*
G03*
X101850000Y-97050000I-100000J0D01*
G01*
X130600000Y-87200000D02*
G75*
G03*
X130600000Y-87200000I-100000J0D01*
G01*
X126650000Y-84000000D02*
G75*
G03*
X126650000Y-84000000I-100000J0D01*
G01*
X128900000Y-91350000D02*
G75*
G03*
X128900000Y-91350000I-100000J0D01*
G01*
X114900000Y-85000000D02*
G75*
G03*
X114900000Y-85000000I-100000J0D01*
G01*
X123400000Y-104650000D02*
G75*
G03*
X123400000Y-104650000I-100000J0D01*
G01*
X103050000Y-89050000D02*
G75*
G03*
X103050000Y-89050000I-100000J0D01*
G01*
X140950000Y-87800000D02*
G75*
G03*
X140950000Y-87800000I-100000J0D01*
G01*
X91200000Y-93800000D02*
G75*
G03*
X91200000Y-93800000I-100000J0D01*
G01*
X147028571Y-120557142D02*
X148171428Y-120557142D01*
X147600000Y-121128571D02*
X147600000Y-119985714D01*
X147028571Y-118857142D02*
X148171428Y-118857142D01*
X147600000Y-119428571D02*
X147600000Y-118285714D01*
D11*
X106219047Y-112421428D02*
X106980952Y-112421428D01*
X106600000Y-112802380D02*
X106600000Y-112040476D01*
D10*
X99228571Y-135757142D02*
X100371428Y-135757142D01*
X99800000Y-136328571D02*
X99800000Y-135185714D01*
X121464285Y-142085714D02*
X121392857Y-142157142D01*
X121178571Y-142228571D01*
X121035714Y-142228571D01*
X120821428Y-142157142D01*
X120678571Y-142014285D01*
X120607142Y-141871428D01*
X120535714Y-141585714D01*
X120535714Y-141371428D01*
X120607142Y-141085714D01*
X120678571Y-140942857D01*
X120821428Y-140800000D01*
X121035714Y-140728571D01*
X121178571Y-140728571D01*
X121392857Y-140800000D01*
X121464285Y-140871428D01*
X116107142Y-141442857D02*
X116321428Y-141514285D01*
X116392857Y-141585714D01*
X116464285Y-141728571D01*
X116464285Y-141942857D01*
X116392857Y-142085714D01*
X116321428Y-142157142D01*
X116178571Y-142228571D01*
X115607142Y-142228571D01*
X115607142Y-140728571D01*
X116107142Y-140728571D01*
X116250000Y-140800000D01*
X116321428Y-140871428D01*
X116392857Y-141014285D01*
X116392857Y-141157142D01*
X116321428Y-141300000D01*
X116250000Y-141371428D01*
X116107142Y-141442857D01*
X115607142Y-141442857D01*
D11*
X137919047Y-89221428D02*
X138680952Y-89221428D01*
X138300000Y-89602380D02*
X138300000Y-88840476D01*
D10*
X90328571Y-137657142D02*
X91471428Y-137657142D01*
X90900000Y-138228571D02*
X90900000Y-137085714D01*
X121211904Y-84702380D02*
X121211904Y-83702380D01*
X121450000Y-83702380D01*
X121592857Y-83750000D01*
X121688095Y-83845238D01*
X121735714Y-83940476D01*
X121783333Y-84130952D01*
X121783333Y-84273809D01*
X121735714Y-84464285D01*
X121688095Y-84559523D01*
X121592857Y-84654761D01*
X121450000Y-84702380D01*
X121211904Y-84702380D01*
X122211904Y-84178571D02*
X122545238Y-84178571D01*
X122688095Y-84702380D02*
X122211904Y-84702380D01*
X122211904Y-83702380D01*
X122688095Y-83702380D01*
X123450000Y-84178571D02*
X123592857Y-84226190D01*
X123640476Y-84273809D01*
X123688095Y-84369047D01*
X123688095Y-84511904D01*
X123640476Y-84607142D01*
X123592857Y-84654761D01*
X123497619Y-84702380D01*
X123116666Y-84702380D01*
X123116666Y-83702380D01*
X123450000Y-83702380D01*
X123545238Y-83750000D01*
X123592857Y-83797619D01*
X123640476Y-83892857D01*
X123640476Y-83988095D01*
X123592857Y-84083333D01*
X123545238Y-84130952D01*
X123450000Y-84178571D01*
X123116666Y-84178571D01*
X124116666Y-83702380D02*
X124116666Y-84511904D01*
X124164285Y-84607142D01*
X124211904Y-84654761D01*
X124307142Y-84702380D01*
X124497619Y-84702380D01*
X124592857Y-84654761D01*
X124640476Y-84607142D01*
X124688095Y-84511904D01*
X124688095Y-83702380D01*
X125688095Y-83750000D02*
X125592857Y-83702380D01*
X125450000Y-83702380D01*
X125307142Y-83750000D01*
X125211904Y-83845238D01*
X125164285Y-83940476D01*
X125116666Y-84130952D01*
X125116666Y-84273809D01*
X125164285Y-84464285D01*
X125211904Y-84559523D01*
X125307142Y-84654761D01*
X125450000Y-84702380D01*
X125545238Y-84702380D01*
X125688095Y-84654761D01*
X125735714Y-84607142D01*
X125735714Y-84273809D01*
X125545238Y-84273809D01*
D11*
X92019047Y-100321428D02*
X92780952Y-100321428D01*
X92400000Y-100702380D02*
X92400000Y-99940476D01*
X92019047Y-98021428D02*
X92780952Y-98021428D01*
X92400000Y-98402380D02*
X92400000Y-97640476D01*
D10*
X107607142Y-85907142D02*
X107559523Y-85954761D01*
X107416666Y-86002380D01*
X107321428Y-86002380D01*
X107178571Y-85954761D01*
X107083333Y-85859523D01*
X107035714Y-85764285D01*
X106988095Y-85573809D01*
X106988095Y-85430952D01*
X107035714Y-85240476D01*
X107083333Y-85145238D01*
X107178571Y-85050000D01*
X107321428Y-85002380D01*
X107416666Y-85002380D01*
X107559523Y-85050000D01*
X107607142Y-85097619D01*
X108226190Y-85002380D02*
X108416666Y-85002380D01*
X108511904Y-85050000D01*
X108607142Y-85145238D01*
X108654761Y-85335714D01*
X108654761Y-85669047D01*
X108607142Y-85859523D01*
X108511904Y-85954761D01*
X108416666Y-86002380D01*
X108226190Y-86002380D01*
X108130952Y-85954761D01*
X108035714Y-85859523D01*
X107988095Y-85669047D01*
X107988095Y-85335714D01*
X108035714Y-85145238D01*
X108130952Y-85050000D01*
X108226190Y-85002380D01*
X109083333Y-86002380D02*
X109083333Y-85002380D01*
X109416666Y-85716666D01*
X109750000Y-85002380D01*
X109750000Y-86002380D01*
X110226190Y-86002380D02*
X110226190Y-85002380D01*
X110559523Y-85716666D01*
X110892857Y-85002380D01*
X110892857Y-86002380D01*
X112083333Y-84954761D02*
X111226190Y-86240476D01*
X112416666Y-86002380D02*
X112416666Y-85002380D01*
X113083333Y-85002380D02*
X113273809Y-85002380D01*
X113369047Y-85050000D01*
X113464285Y-85145238D01*
X113511904Y-85335714D01*
X113511904Y-85669047D01*
X113464285Y-85859523D01*
X113369047Y-85954761D01*
X113273809Y-86002380D01*
X113083333Y-86002380D01*
X112988095Y-85954761D01*
X112892857Y-85859523D01*
X112845238Y-85669047D01*
X112845238Y-85335714D01*
X112892857Y-85145238D01*
X112988095Y-85050000D01*
X113083333Y-85002380D01*
X145740476Y-86928571D02*
X145407142Y-86928571D01*
X145407142Y-87452380D02*
X145407142Y-86452380D01*
X145883333Y-86452380D01*
X146216666Y-87166666D02*
X146692857Y-87166666D01*
X146121428Y-87452380D02*
X146454761Y-86452380D01*
X146788095Y-87452380D01*
X147121428Y-87452380D02*
X147121428Y-86452380D01*
X147692857Y-87452380D01*
X147692857Y-86452380D01*
X146628571Y-136957142D02*
X147771428Y-136957142D01*
X147200000Y-137528571D02*
X147200000Y-136385714D01*
D12*
X95180952Y-142702380D02*
X95180952Y-143416666D01*
X95133333Y-143559523D01*
X95038095Y-143654761D01*
X94895238Y-143702380D01*
X94800000Y-143702380D01*
X96133333Y-143702380D02*
X95657142Y-143702380D01*
X95657142Y-142702380D01*
X97038095Y-143607142D02*
X96990476Y-143654761D01*
X96847619Y-143702380D01*
X96752380Y-143702380D01*
X96609523Y-143654761D01*
X96514285Y-143559523D01*
X96466666Y-143464285D01*
X96419047Y-143273809D01*
X96419047Y-143130952D01*
X96466666Y-142940476D01*
X96514285Y-142845238D01*
X96609523Y-142750000D01*
X96752380Y-142702380D01*
X96847619Y-142702380D01*
X96990476Y-142750000D01*
X97038095Y-142797619D01*
X97752380Y-142702380D02*
X97752380Y-143416666D01*
X97704761Y-143559523D01*
X97609523Y-143654761D01*
X97466666Y-143702380D01*
X97371428Y-143702380D01*
X98704761Y-143702380D02*
X98228571Y-143702380D01*
X98228571Y-142702380D01*
X99609523Y-143607142D02*
X99561904Y-143654761D01*
X99419047Y-143702380D01*
X99323809Y-143702380D01*
X99180952Y-143654761D01*
X99085714Y-143559523D01*
X99038095Y-143464285D01*
X98990476Y-143273809D01*
X98990476Y-143130952D01*
X99038095Y-142940476D01*
X99085714Y-142845238D01*
X99180952Y-142750000D01*
X99323809Y-142702380D01*
X99419047Y-142702380D01*
X99561904Y-142750000D01*
X99609523Y-142797619D01*
X100323809Y-142702380D02*
X100323809Y-143416666D01*
X100276190Y-143559523D01*
X100180952Y-143654761D01*
X100038095Y-143702380D01*
X99942857Y-143702380D01*
X101276190Y-143702380D02*
X100800000Y-143702380D01*
X100800000Y-142702380D01*
X102180952Y-143607142D02*
X102133333Y-143654761D01*
X101990476Y-143702380D01*
X101895238Y-143702380D01*
X101752380Y-143654761D01*
X101657142Y-143559523D01*
X101609523Y-143464285D01*
X101561904Y-143273809D01*
X101561904Y-143130952D01*
X101609523Y-142940476D01*
X101657142Y-142845238D01*
X101752380Y-142750000D01*
X101895238Y-142702380D01*
X101990476Y-142702380D01*
X102133333Y-142750000D01*
X102180952Y-142797619D01*
X102895238Y-142702380D02*
X102895238Y-143416666D01*
X102847619Y-143559523D01*
X102752380Y-143654761D01*
X102609523Y-143702380D01*
X102514285Y-143702380D01*
X103942857Y-143607142D02*
X103895238Y-143654761D01*
X103752380Y-143702380D01*
X103657142Y-143702380D01*
X103514285Y-143654761D01*
X103419047Y-143559523D01*
X103371428Y-143464285D01*
X103323809Y-143273809D01*
X103323809Y-143130952D01*
X103371428Y-142940476D01*
X103419047Y-142845238D01*
X103514285Y-142750000D01*
X103657142Y-142702380D01*
X103752380Y-142702380D01*
X103895238Y-142750000D01*
X103942857Y-142797619D01*
X104847619Y-143702380D02*
X104371428Y-143702380D01*
X104371428Y-142702380D01*
D10*
X100161904Y-85352380D02*
X99828571Y-84876190D01*
X99590476Y-85352380D02*
X99590476Y-84352380D01*
X99971428Y-84352380D01*
X100066666Y-84400000D01*
X100114285Y-84447619D01*
X100161904Y-84542857D01*
X100161904Y-84685714D01*
X100114285Y-84780952D01*
X100066666Y-84828571D01*
X99971428Y-84876190D01*
X99590476Y-84876190D01*
X100590476Y-84352380D02*
X100590476Y-85161904D01*
X100638095Y-85257142D01*
X100685714Y-85304761D01*
X100780952Y-85352380D01*
X100971428Y-85352380D01*
X101066666Y-85304761D01*
X101114285Y-85257142D01*
X101161904Y-85161904D01*
X101161904Y-84352380D01*
X101638095Y-85352380D02*
X101638095Y-84352380D01*
X102209523Y-85352380D01*
X102209523Y-84352380D01*
X85507142Y-97257142D02*
X85459523Y-97304761D01*
X85316666Y-97352380D01*
X85221428Y-97352380D01*
X85078571Y-97304761D01*
X84983333Y-97209523D01*
X84935714Y-97114285D01*
X84888095Y-96923809D01*
X84888095Y-96780952D01*
X84935714Y-96590476D01*
X84983333Y-96495238D01*
X85078571Y-96400000D01*
X85221428Y-96352380D01*
X85316666Y-96352380D01*
X85459523Y-96400000D01*
X85507142Y-96447619D01*
X85888095Y-97066666D02*
X86364285Y-97066666D01*
X85792857Y-97352380D02*
X86126190Y-96352380D01*
X86459523Y-97352380D01*
X86792857Y-97352380D02*
X86792857Y-96352380D01*
X87364285Y-97352380D01*
X87364285Y-96352380D01*
X131428571Y-135457142D02*
X132571428Y-135457142D01*
X132000000Y-136028571D02*
X132000000Y-134885714D01*
X93392857Y-84878571D02*
X93535714Y-84926190D01*
X93583333Y-84973809D01*
X93630952Y-85069047D01*
X93630952Y-85211904D01*
X93583333Y-85307142D01*
X93535714Y-85354761D01*
X93440476Y-85402380D01*
X93059523Y-85402380D01*
X93059523Y-84402380D01*
X93392857Y-84402380D01*
X93488095Y-84450000D01*
X93535714Y-84497619D01*
X93583333Y-84592857D01*
X93583333Y-84688095D01*
X93535714Y-84783333D01*
X93488095Y-84830952D01*
X93392857Y-84878571D01*
X93059523Y-84878571D01*
X94250000Y-84402380D02*
X94440476Y-84402380D01*
X94535714Y-84450000D01*
X94630952Y-84545238D01*
X94678571Y-84735714D01*
X94678571Y-85069047D01*
X94630952Y-85259523D01*
X94535714Y-85354761D01*
X94440476Y-85402380D01*
X94250000Y-85402380D01*
X94154761Y-85354761D01*
X94059523Y-85259523D01*
X94011904Y-85069047D01*
X94011904Y-84735714D01*
X94059523Y-84545238D01*
X94154761Y-84450000D01*
X94250000Y-84402380D01*
X95297619Y-84402380D02*
X95488095Y-84402380D01*
X95583333Y-84450000D01*
X95678571Y-84545238D01*
X95726190Y-84735714D01*
X95726190Y-85069047D01*
X95678571Y-85259523D01*
X95583333Y-85354761D01*
X95488095Y-85402380D01*
X95297619Y-85402380D01*
X95202380Y-85354761D01*
X95107142Y-85259523D01*
X95059523Y-85069047D01*
X95059523Y-84735714D01*
X95107142Y-84545238D01*
X95202380Y-84450000D01*
X95297619Y-84402380D01*
X96011904Y-84402380D02*
X96583333Y-84402380D01*
X96297619Y-85402380D02*
X96297619Y-84402380D01*
X147507142Y-109621428D02*
X147507142Y-108478571D01*
X141026190Y-107478571D02*
X141359523Y-107478571D01*
X141502380Y-108002380D02*
X141026190Y-108002380D01*
X141026190Y-107002380D01*
X141502380Y-107002380D01*
X141930952Y-108002380D02*
X141930952Y-107002380D01*
X142502380Y-108002380D01*
X142502380Y-107002380D01*
X143550000Y-107907142D02*
X143502380Y-107954761D01*
X143359523Y-108002380D01*
X143264285Y-108002380D01*
X143121428Y-107954761D01*
X143026190Y-107859523D01*
X142978571Y-107764285D01*
X142930952Y-107573809D01*
X142930952Y-107430952D01*
X142978571Y-107240476D01*
X143026190Y-107145238D01*
X143121428Y-107050000D01*
X143264285Y-107002380D01*
X143359523Y-107002380D01*
X143502380Y-107050000D01*
X143550000Y-107097619D01*
X144692857Y-106954761D02*
X143835714Y-108240476D01*
X145026190Y-108002380D02*
X145026190Y-107002380D01*
X145026190Y-107478571D02*
X145597619Y-107478571D01*
X145597619Y-108002380D02*
X145597619Y-107002380D01*
X146026190Y-107716666D02*
X146502380Y-107716666D01*
X145930952Y-108002380D02*
X146264285Y-107002380D01*
X146597619Y-108002380D01*
X147407142Y-108002380D02*
X146930952Y-108002380D01*
X146930952Y-107002380D01*
X148216666Y-108002380D02*
X147740476Y-108002380D01*
X147740476Y-107002380D01*
X110642857Y-141800000D02*
X111357142Y-141800000D01*
X110500000Y-142228571D02*
X111000000Y-140728571D01*
X111500000Y-142228571D01*
D11*
X119138095Y-110002380D02*
X119709523Y-110002380D01*
X119423809Y-111002380D02*
X119423809Y-110002380D01*
X120042857Y-111002380D02*
X120042857Y-110002380D01*
X120423809Y-110002380D01*
X120519047Y-110050000D01*
X120566666Y-110097619D01*
X120614285Y-110192857D01*
X120614285Y-110335714D01*
X120566666Y-110430952D01*
X120519047Y-110478571D01*
X120423809Y-110526190D01*
X120042857Y-110526190D01*
X121185714Y-110430952D02*
X121090476Y-110383333D01*
X121042857Y-110335714D01*
X120995238Y-110240476D01*
X120995238Y-110192857D01*
X121042857Y-110097619D01*
X121090476Y-110050000D01*
X121185714Y-110002380D01*
X121376190Y-110002380D01*
X121471428Y-110050000D01*
X121519047Y-110097619D01*
X121566666Y-110192857D01*
X121566666Y-110240476D01*
X121519047Y-110335714D01*
X121471428Y-110383333D01*
X121376190Y-110430952D01*
X121185714Y-110430952D01*
X121090476Y-110478571D01*
X121042857Y-110526190D01*
X120995238Y-110621428D01*
X120995238Y-110811904D01*
X121042857Y-110907142D01*
X121090476Y-110954761D01*
X121185714Y-111002380D01*
X121376190Y-111002380D01*
X121471428Y-110954761D01*
X121519047Y-110907142D01*
X121566666Y-110811904D01*
X121566666Y-110621428D01*
X121519047Y-110526190D01*
X121471428Y-110478571D01*
X121376190Y-110430952D01*
X139961904Y-94152380D02*
X140533333Y-94152380D01*
X140247619Y-95152380D02*
X140247619Y-94152380D01*
X140866666Y-95152380D02*
X140866666Y-94152380D01*
X141247619Y-94152380D01*
X141342857Y-94200000D01*
X141390476Y-94247619D01*
X141438095Y-94342857D01*
X141438095Y-94485714D01*
X141390476Y-94580952D01*
X141342857Y-94628571D01*
X141247619Y-94676190D01*
X140866666Y-94676190D01*
X142390476Y-95152380D02*
X141819047Y-95152380D01*
X142104761Y-95152380D02*
X142104761Y-94152380D01*
X142009523Y-94295238D01*
X141914285Y-94390476D01*
X141819047Y-94438095D01*
X143295238Y-94152380D02*
X142819047Y-94152380D01*
X142771428Y-94628571D01*
X142819047Y-94580952D01*
X142914285Y-94533333D01*
X143152380Y-94533333D01*
X143247619Y-94580952D01*
X143295238Y-94628571D01*
X143342857Y-94723809D01*
X143342857Y-94961904D01*
X143295238Y-95057142D01*
X143247619Y-95104761D01*
X143152380Y-95152380D01*
X142914285Y-95152380D01*
X142819047Y-95104761D01*
X142771428Y-95057142D01*
D13*
X108688095Y-121252380D02*
X109259523Y-121252380D01*
X108973809Y-122252380D02*
X108973809Y-121252380D01*
X109592857Y-122252380D02*
X109592857Y-121252380D01*
X109973809Y-121252380D01*
X110069047Y-121300000D01*
X110116666Y-121347619D01*
X110164285Y-121442857D01*
X110164285Y-121585714D01*
X110116666Y-121680952D01*
X110069047Y-121728571D01*
X109973809Y-121776190D01*
X109592857Y-121776190D01*
X110640476Y-122252380D02*
X110830952Y-122252380D01*
X110926190Y-122204761D01*
X110973809Y-122157142D01*
X111069047Y-122014285D01*
X111116666Y-121823809D01*
X111116666Y-121442857D01*
X111069047Y-121347619D01*
X111021428Y-121300000D01*
X110926190Y-121252380D01*
X110735714Y-121252380D01*
X110640476Y-121300000D01*
X110592857Y-121347619D01*
X110545238Y-121442857D01*
X110545238Y-121680952D01*
X110592857Y-121776190D01*
X110640476Y-121823809D01*
X110735714Y-121871428D01*
X110926190Y-121871428D01*
X111021428Y-121823809D01*
X111069047Y-121776190D01*
X111116666Y-121680952D01*
D11*
X112461904Y-109202380D02*
X113033333Y-109202380D01*
X112747619Y-110202380D02*
X112747619Y-109202380D01*
X113366666Y-110202380D02*
X113366666Y-109202380D01*
X113747619Y-109202380D01*
X113842857Y-109250000D01*
X113890476Y-109297619D01*
X113938095Y-109392857D01*
X113938095Y-109535714D01*
X113890476Y-109630952D01*
X113842857Y-109678571D01*
X113747619Y-109726190D01*
X113366666Y-109726190D01*
X114890476Y-110202380D02*
X114319047Y-110202380D01*
X114604761Y-110202380D02*
X114604761Y-109202380D01*
X114509523Y-109345238D01*
X114414285Y-109440476D01*
X114319047Y-109488095D01*
X115366666Y-110202380D02*
X115557142Y-110202380D01*
X115652380Y-110154761D01*
X115700000Y-110107142D01*
X115795238Y-109964285D01*
X115842857Y-109773809D01*
X115842857Y-109392857D01*
X115795238Y-109297619D01*
X115747619Y-109250000D01*
X115652380Y-109202380D01*
X115461904Y-109202380D01*
X115366666Y-109250000D01*
X115319047Y-109297619D01*
X115271428Y-109392857D01*
X115271428Y-109630952D01*
X115319047Y-109726190D01*
X115366666Y-109773809D01*
X115461904Y-109821428D01*
X115652380Y-109821428D01*
X115747619Y-109773809D01*
X115795238Y-109726190D01*
X115842857Y-109630952D01*
X132161904Y-104502380D02*
X132733333Y-104502380D01*
X132447619Y-105502380D02*
X132447619Y-104502380D01*
X133066666Y-105502380D02*
X133066666Y-104502380D01*
X133447619Y-104502380D01*
X133542857Y-104550000D01*
X133590476Y-104597619D01*
X133638095Y-104692857D01*
X133638095Y-104835714D01*
X133590476Y-104930952D01*
X133542857Y-104978571D01*
X133447619Y-105026190D01*
X133066666Y-105026190D01*
X133971428Y-104502380D02*
X134590476Y-104502380D01*
X134257142Y-104883333D01*
X134400000Y-104883333D01*
X134495238Y-104930952D01*
X134542857Y-104978571D01*
X134590476Y-105073809D01*
X134590476Y-105311904D01*
X134542857Y-105407142D01*
X134495238Y-105454761D01*
X134400000Y-105502380D01*
X134114285Y-105502380D01*
X134019047Y-105454761D01*
X133971428Y-105407142D01*
X134923809Y-104502380D02*
X135542857Y-104502380D01*
X135209523Y-104883333D01*
X135352380Y-104883333D01*
X135447619Y-104930952D01*
X135495238Y-104978571D01*
X135542857Y-105073809D01*
X135542857Y-105311904D01*
X135495238Y-105407142D01*
X135447619Y-105454761D01*
X135352380Y-105502380D01*
X135066666Y-105502380D01*
X134971428Y-105454761D01*
X134923809Y-105407142D01*
D13*
X128502380Y-85761904D02*
X129311904Y-85761904D01*
X129407142Y-85714285D01*
X129454761Y-85666666D01*
X129502380Y-85571428D01*
X129502380Y-85380952D01*
X129454761Y-85285714D01*
X129407142Y-85238095D01*
X129311904Y-85190476D01*
X128502380Y-85190476D01*
X128502380Y-84809523D02*
X128502380Y-84190476D01*
X128883333Y-84523809D01*
X128883333Y-84380952D01*
X128930952Y-84285714D01*
X128978571Y-84238095D01*
X129073809Y-84190476D01*
X129311904Y-84190476D01*
X129407142Y-84238095D01*
X129454761Y-84285714D01*
X129502380Y-84380952D01*
X129502380Y-84666666D01*
X129454761Y-84761904D01*
X129407142Y-84809523D01*
D11*
X91011904Y-88752380D02*
X91583333Y-88752380D01*
X91297619Y-89752380D02*
X91297619Y-88752380D01*
X91916666Y-89752380D02*
X91916666Y-88752380D01*
X92297619Y-88752380D01*
X92392857Y-88800000D01*
X92440476Y-88847619D01*
X92488095Y-88942857D01*
X92488095Y-89085714D01*
X92440476Y-89180952D01*
X92392857Y-89228571D01*
X92297619Y-89276190D01*
X91916666Y-89276190D01*
X92821428Y-88752380D02*
X93440476Y-88752380D01*
X93107142Y-89133333D01*
X93250000Y-89133333D01*
X93345238Y-89180952D01*
X93392857Y-89228571D01*
X93440476Y-89323809D01*
X93440476Y-89561904D01*
X93392857Y-89657142D01*
X93345238Y-89704761D01*
X93250000Y-89752380D01*
X92964285Y-89752380D01*
X92869047Y-89704761D01*
X92821428Y-89657142D01*
X94059523Y-88752380D02*
X94154761Y-88752380D01*
X94250000Y-88800000D01*
X94297619Y-88847619D01*
X94345238Y-88942857D01*
X94392857Y-89133333D01*
X94392857Y-89371428D01*
X94345238Y-89561904D01*
X94297619Y-89657142D01*
X94250000Y-89704761D01*
X94154761Y-89752380D01*
X94059523Y-89752380D01*
X93964285Y-89704761D01*
X93916666Y-89657142D01*
X93869047Y-89561904D01*
X93821428Y-89371428D01*
X93821428Y-89133333D01*
X93869047Y-88942857D01*
X93916666Y-88847619D01*
X93964285Y-88800000D01*
X94059523Y-88752380D01*
X121013095Y-121252380D02*
X121584523Y-121252380D01*
X121298809Y-122252380D02*
X121298809Y-121252380D01*
X121917857Y-122252380D02*
X121917857Y-121252380D01*
X122298809Y-121252380D01*
X122394047Y-121300000D01*
X122441666Y-121347619D01*
X122489285Y-121442857D01*
X122489285Y-121585714D01*
X122441666Y-121680952D01*
X122394047Y-121728571D01*
X122298809Y-121776190D01*
X121917857Y-121776190D01*
X122822619Y-121252380D02*
X123489285Y-121252380D01*
X123060714Y-122252380D01*
X95638095Y-118402380D02*
X96209523Y-118402380D01*
X95923809Y-119402380D02*
X95923809Y-118402380D01*
X96542857Y-119402380D02*
X96542857Y-118402380D01*
X96923809Y-118402380D01*
X97019047Y-118450000D01*
X97066666Y-118497619D01*
X97114285Y-118592857D01*
X97114285Y-118735714D01*
X97066666Y-118830952D01*
X97019047Y-118878571D01*
X96923809Y-118926190D01*
X96542857Y-118926190D01*
X98019047Y-118402380D02*
X97542857Y-118402380D01*
X97495238Y-118878571D01*
X97542857Y-118830952D01*
X97638095Y-118783333D01*
X97876190Y-118783333D01*
X97971428Y-118830952D01*
X98019047Y-118878571D01*
X98066666Y-118973809D01*
X98066666Y-119211904D01*
X98019047Y-119307142D01*
X97971428Y-119354761D01*
X97876190Y-119402380D01*
X97638095Y-119402380D01*
X97542857Y-119354761D01*
X97495238Y-119307142D01*
X138611904Y-91252380D02*
X139183333Y-91252380D01*
X138897619Y-92252380D02*
X138897619Y-91252380D01*
X139516666Y-92252380D02*
X139516666Y-91252380D01*
X139897619Y-91252380D01*
X139992857Y-91300000D01*
X140040476Y-91347619D01*
X140088095Y-91442857D01*
X140088095Y-91585714D01*
X140040476Y-91680952D01*
X139992857Y-91728571D01*
X139897619Y-91776190D01*
X139516666Y-91776190D01*
X141040476Y-92252380D02*
X140469047Y-92252380D01*
X140754761Y-92252380D02*
X140754761Y-91252380D01*
X140659523Y-91395238D01*
X140564285Y-91490476D01*
X140469047Y-91538095D01*
X141897619Y-91252380D02*
X141707142Y-91252380D01*
X141611904Y-91300000D01*
X141564285Y-91347619D01*
X141469047Y-91490476D01*
X141421428Y-91680952D01*
X141421428Y-92061904D01*
X141469047Y-92157142D01*
X141516666Y-92204761D01*
X141611904Y-92252380D01*
X141802380Y-92252380D01*
X141897619Y-92204761D01*
X141945238Y-92157142D01*
X141992857Y-92061904D01*
X141992857Y-91823809D01*
X141945238Y-91728571D01*
X141897619Y-91680952D01*
X141802380Y-91633333D01*
X141611904Y-91633333D01*
X141516666Y-91680952D01*
X141469047Y-91728571D01*
X141421428Y-91823809D01*
X94688095Y-127952380D02*
X95259523Y-127952380D01*
X94973809Y-128952380D02*
X94973809Y-127952380D01*
X95592857Y-128952380D02*
X95592857Y-127952380D01*
X95973809Y-127952380D01*
X96069047Y-128000000D01*
X96116666Y-128047619D01*
X96164285Y-128142857D01*
X96164285Y-128285714D01*
X96116666Y-128380952D01*
X96069047Y-128428571D01*
X95973809Y-128476190D01*
X95592857Y-128476190D01*
X97021428Y-127952380D02*
X96830952Y-127952380D01*
X96735714Y-128000000D01*
X96688095Y-128047619D01*
X96592857Y-128190476D01*
X96545238Y-128380952D01*
X96545238Y-128761904D01*
X96592857Y-128857142D01*
X96640476Y-128904761D01*
X96735714Y-128952380D01*
X96926190Y-128952380D01*
X97021428Y-128904761D01*
X97069047Y-128857142D01*
X97116666Y-128761904D01*
X97116666Y-128523809D01*
X97069047Y-128428571D01*
X97021428Y-128380952D01*
X96926190Y-128333333D01*
X96735714Y-128333333D01*
X96640476Y-128380952D01*
X96592857Y-128428571D01*
X96545238Y-128523809D01*
X132511904Y-101502380D02*
X133083333Y-101502380D01*
X132797619Y-102502380D02*
X132797619Y-101502380D01*
X133416666Y-102502380D02*
X133416666Y-101502380D01*
X133797619Y-101502380D01*
X133892857Y-101550000D01*
X133940476Y-101597619D01*
X133988095Y-101692857D01*
X133988095Y-101835714D01*
X133940476Y-101930952D01*
X133892857Y-101978571D01*
X133797619Y-102026190D01*
X133416666Y-102026190D01*
X134321428Y-101502380D02*
X134940476Y-101502380D01*
X134607142Y-101883333D01*
X134750000Y-101883333D01*
X134845238Y-101930952D01*
X134892857Y-101978571D01*
X134940476Y-102073809D01*
X134940476Y-102311904D01*
X134892857Y-102407142D01*
X134845238Y-102454761D01*
X134750000Y-102502380D01*
X134464285Y-102502380D01*
X134369047Y-102454761D01*
X134321428Y-102407142D01*
X135892857Y-102502380D02*
X135321428Y-102502380D01*
X135607142Y-102502380D02*
X135607142Y-101502380D01*
X135511904Y-101645238D01*
X135416666Y-101740476D01*
X135321428Y-101788095D01*
X87266904Y-105602380D02*
X87838333Y-105602380D01*
X87552619Y-106602380D02*
X87552619Y-105602380D01*
X88171666Y-106602380D02*
X88171666Y-105602380D01*
X88552619Y-105602380D01*
X88647857Y-105650000D01*
X88695476Y-105697619D01*
X88743095Y-105792857D01*
X88743095Y-105935714D01*
X88695476Y-106030952D01*
X88647857Y-106078571D01*
X88552619Y-106126190D01*
X88171666Y-106126190D01*
X89124047Y-105697619D02*
X89171666Y-105650000D01*
X89266904Y-105602380D01*
X89505000Y-105602380D01*
X89600238Y-105650000D01*
X89647857Y-105697619D01*
X89695476Y-105792857D01*
X89695476Y-105888095D01*
X89647857Y-106030952D01*
X89076428Y-106602380D01*
X89695476Y-106602380D01*
X90647857Y-106602380D02*
X90076428Y-106602380D01*
X90362142Y-106602380D02*
X90362142Y-105602380D01*
X90266904Y-105745238D01*
X90171666Y-105840476D01*
X90076428Y-105888095D01*
D13*
X83961904Y-112652380D02*
X84533333Y-112652380D01*
X84247619Y-113652380D02*
X84247619Y-112652380D01*
X84866666Y-113652380D02*
X84866666Y-112652380D01*
X85247619Y-112652380D01*
X85342857Y-112700000D01*
X85390476Y-112747619D01*
X85438095Y-112842857D01*
X85438095Y-112985714D01*
X85390476Y-113080952D01*
X85342857Y-113128571D01*
X85247619Y-113176190D01*
X84866666Y-113176190D01*
X85819047Y-112747619D02*
X85866666Y-112700000D01*
X85961904Y-112652380D01*
X86200000Y-112652380D01*
X86295238Y-112700000D01*
X86342857Y-112747619D01*
X86390476Y-112842857D01*
X86390476Y-112938095D01*
X86342857Y-113080952D01*
X85771428Y-113652380D01*
X86390476Y-113652380D01*
X87009523Y-112652380D02*
X87104761Y-112652380D01*
X87200000Y-112700000D01*
X87247619Y-112747619D01*
X87295238Y-112842857D01*
X87342857Y-113033333D01*
X87342857Y-113271428D01*
X87295238Y-113461904D01*
X87247619Y-113557142D01*
X87200000Y-113604761D01*
X87104761Y-113652380D01*
X87009523Y-113652380D01*
X86914285Y-113604761D01*
X86866666Y-113557142D01*
X86819047Y-113461904D01*
X86771428Y-113271428D01*
X86771428Y-113033333D01*
X86819047Y-112842857D01*
X86866666Y-112747619D01*
X86914285Y-112700000D01*
X87009523Y-112652380D01*
D11*
X121616904Y-92752380D02*
X122188333Y-92752380D01*
X121902619Y-93752380D02*
X121902619Y-92752380D01*
X122521666Y-93752380D02*
X122521666Y-92752380D01*
X122902619Y-92752380D01*
X122997857Y-92800000D01*
X123045476Y-92847619D01*
X123093095Y-92942857D01*
X123093095Y-93085714D01*
X123045476Y-93180952D01*
X122997857Y-93228571D01*
X122902619Y-93276190D01*
X122521666Y-93276190D01*
X124045476Y-93752380D02*
X123474047Y-93752380D01*
X123759761Y-93752380D02*
X123759761Y-92752380D01*
X123664523Y-92895238D01*
X123569285Y-92990476D01*
X123474047Y-93038095D01*
X124616904Y-93180952D02*
X124521666Y-93133333D01*
X124474047Y-93085714D01*
X124426428Y-92990476D01*
X124426428Y-92942857D01*
X124474047Y-92847619D01*
X124521666Y-92800000D01*
X124616904Y-92752380D01*
X124807380Y-92752380D01*
X124902619Y-92800000D01*
X124950238Y-92847619D01*
X124997857Y-92942857D01*
X124997857Y-92990476D01*
X124950238Y-93085714D01*
X124902619Y-93133333D01*
X124807380Y-93180952D01*
X124616904Y-93180952D01*
X124521666Y-93228571D01*
X124474047Y-93276190D01*
X124426428Y-93371428D01*
X124426428Y-93561904D01*
X124474047Y-93657142D01*
X124521666Y-93704761D01*
X124616904Y-93752380D01*
X124807380Y-93752380D01*
X124902619Y-93704761D01*
X124950238Y-93657142D01*
X124997857Y-93561904D01*
X124997857Y-93371428D01*
X124950238Y-93276190D01*
X124902619Y-93228571D01*
X124807380Y-93180952D01*
X101411904Y-104602380D02*
X101983333Y-104602380D01*
X101697619Y-105602380D02*
X101697619Y-104602380D01*
X102316666Y-105602380D02*
X102316666Y-104602380D01*
X102697619Y-104602380D01*
X102792857Y-104650000D01*
X102840476Y-104697619D01*
X102888095Y-104792857D01*
X102888095Y-104935714D01*
X102840476Y-105030952D01*
X102792857Y-105078571D01*
X102697619Y-105126190D01*
X102316666Y-105126190D01*
X103269047Y-104697619D02*
X103316666Y-104650000D01*
X103411904Y-104602380D01*
X103650000Y-104602380D01*
X103745238Y-104650000D01*
X103792857Y-104697619D01*
X103840476Y-104792857D01*
X103840476Y-104888095D01*
X103792857Y-105030952D01*
X103221428Y-105602380D01*
X103840476Y-105602380D01*
X104697619Y-104935714D02*
X104697619Y-105602380D01*
X104459523Y-104554761D02*
X104221428Y-105269047D01*
X104840476Y-105269047D01*
X124088095Y-105452380D02*
X124659523Y-105452380D01*
X124373809Y-106452380D02*
X124373809Y-105452380D01*
X124992857Y-106452380D02*
X124992857Y-105452380D01*
X125373809Y-105452380D01*
X125469047Y-105500000D01*
X125516666Y-105547619D01*
X125564285Y-105642857D01*
X125564285Y-105785714D01*
X125516666Y-105880952D01*
X125469047Y-105928571D01*
X125373809Y-105976190D01*
X124992857Y-105976190D01*
X125897619Y-105452380D02*
X126516666Y-105452380D01*
X126183333Y-105833333D01*
X126326190Y-105833333D01*
X126421428Y-105880952D01*
X126469047Y-105928571D01*
X126516666Y-106023809D01*
X126516666Y-106261904D01*
X126469047Y-106357142D01*
X126421428Y-106404761D01*
X126326190Y-106452380D01*
X126040476Y-106452380D01*
X125945238Y-106404761D01*
X125897619Y-106357142D01*
X91338095Y-96002380D02*
X91909523Y-96002380D01*
X91623809Y-97002380D02*
X91623809Y-96002380D01*
X92242857Y-97002380D02*
X92242857Y-96002380D01*
X92623809Y-96002380D01*
X92719047Y-96050000D01*
X92766666Y-96097619D01*
X92814285Y-96192857D01*
X92814285Y-96335714D01*
X92766666Y-96430952D01*
X92719047Y-96478571D01*
X92623809Y-96526190D01*
X92242857Y-96526190D01*
X93766666Y-97002380D02*
X93195238Y-97002380D01*
X93480952Y-97002380D02*
X93480952Y-96002380D01*
X93385714Y-96145238D01*
X93290476Y-96240476D01*
X93195238Y-96288095D01*
X132161904Y-107202380D02*
X132733333Y-107202380D01*
X132447619Y-108202380D02*
X132447619Y-107202380D01*
X133066666Y-108202380D02*
X133066666Y-107202380D01*
X133447619Y-107202380D01*
X133542857Y-107250000D01*
X133590476Y-107297619D01*
X133638095Y-107392857D01*
X133638095Y-107535714D01*
X133590476Y-107630952D01*
X133542857Y-107678571D01*
X133447619Y-107726190D01*
X133066666Y-107726190D01*
X133971428Y-107202380D02*
X134590476Y-107202380D01*
X134257142Y-107583333D01*
X134400000Y-107583333D01*
X134495238Y-107630952D01*
X134542857Y-107678571D01*
X134590476Y-107773809D01*
X134590476Y-108011904D01*
X134542857Y-108107142D01*
X134495238Y-108154761D01*
X134400000Y-108202380D01*
X134114285Y-108202380D01*
X134019047Y-108154761D01*
X133971428Y-108107142D01*
X134971428Y-107297619D02*
X135019047Y-107250000D01*
X135114285Y-107202380D01*
X135352380Y-107202380D01*
X135447619Y-107250000D01*
X135495238Y-107297619D01*
X135542857Y-107392857D01*
X135542857Y-107488095D01*
X135495238Y-107630952D01*
X134923809Y-108202380D01*
X135542857Y-108202380D01*
X98288095Y-100552380D02*
X98859523Y-100552380D01*
X98573809Y-101552380D02*
X98573809Y-100552380D01*
X99192857Y-101552380D02*
X99192857Y-100552380D01*
X99573809Y-100552380D01*
X99669047Y-100600000D01*
X99716666Y-100647619D01*
X99764285Y-100742857D01*
X99764285Y-100885714D01*
X99716666Y-100980952D01*
X99669047Y-101028571D01*
X99573809Y-101076190D01*
X99192857Y-101076190D01*
X100145238Y-100647619D02*
X100192857Y-100600000D01*
X100288095Y-100552380D01*
X100526190Y-100552380D01*
X100621428Y-100600000D01*
X100669047Y-100647619D01*
X100716666Y-100742857D01*
X100716666Y-100838095D01*
X100669047Y-100980952D01*
X100097619Y-101552380D01*
X100716666Y-101552380D01*
X106061904Y-105552380D02*
X106633333Y-105552380D01*
X106347619Y-106552380D02*
X106347619Y-105552380D01*
X106966666Y-106552380D02*
X106966666Y-105552380D01*
X107347619Y-105552380D01*
X107442857Y-105600000D01*
X107490476Y-105647619D01*
X107538095Y-105742857D01*
X107538095Y-105885714D01*
X107490476Y-105980952D01*
X107442857Y-106028571D01*
X107347619Y-106076190D01*
X106966666Y-106076190D01*
X107919047Y-105647619D02*
X107966666Y-105600000D01*
X108061904Y-105552380D01*
X108300000Y-105552380D01*
X108395238Y-105600000D01*
X108442857Y-105647619D01*
X108490476Y-105742857D01*
X108490476Y-105838095D01*
X108442857Y-105980952D01*
X107871428Y-106552380D01*
X108490476Y-106552380D01*
X108823809Y-105552380D02*
X109442857Y-105552380D01*
X109109523Y-105933333D01*
X109252380Y-105933333D01*
X109347619Y-105980952D01*
X109395238Y-106028571D01*
X109442857Y-106123809D01*
X109442857Y-106361904D01*
X109395238Y-106457142D01*
X109347619Y-106504761D01*
X109252380Y-106552380D01*
X108966666Y-106552380D01*
X108871428Y-106504761D01*
X108823809Y-106457142D01*
D13*
X96652380Y-147050000D02*
X96890476Y-147050000D01*
X96795238Y-147288095D02*
X96890476Y-147050000D01*
X96795238Y-146811904D01*
X97080952Y-147192857D02*
X96890476Y-147050000D01*
X97080952Y-146907142D01*
D14*
X127822500Y-107987258D02*
X127822500Y-107512742D01*
X126777500Y-107987258D02*
X126777500Y-107512742D01*
X88615000Y-98065000D02*
X88615000Y-99535000D01*
X88615000Y-99535000D02*
X90900000Y-99535000D01*
X90900000Y-98065000D02*
X88615000Y-98065000D01*
X97921500Y-122028500D02*
X92231240Y-122028500D01*
X92231240Y-135871500D02*
X97921500Y-135871500D01*
X89768760Y-122028500D02*
X84078500Y-122028500D01*
X84078500Y-122028500D02*
X84078500Y-135871500D01*
X84078500Y-135871500D02*
X89768760Y-135871500D01*
X97921500Y-135871500D02*
X97921500Y-122028500D01*
D10*
X89495000Y-136420000D02*
G75*
G03*
X89495000Y-136420000I-100000J0D01*
G01*
D14*
X113077500Y-112112258D02*
X113077500Y-111637742D01*
X114122500Y-112112258D02*
X114122500Y-111637742D01*
X135660000Y-81440000D02*
X135660000Y-81890000D01*
X130140000Y-81210000D02*
X130560000Y-81210000D01*
X135210000Y-81890000D02*
X135660000Y-81890000D01*
X137660000Y-79230000D02*
X137660000Y-81210000D01*
X130140000Y-79230000D02*
X130140000Y-81210000D01*
X137660000Y-81210000D02*
X137240000Y-81210000D01*
X99937258Y-120972500D02*
X99462742Y-120972500D01*
X99937258Y-119927500D02*
X99462742Y-119927500D01*
X137700000Y-118150000D02*
X134550000Y-118150000D01*
X137700000Y-119850000D02*
X137700000Y-118150000D01*
X137700000Y-119850000D02*
X134550000Y-119850000D01*
X133160000Y-99011252D02*
X133160000Y-97588748D01*
X131340000Y-99011252D02*
X131340000Y-97588748D01*
X121090000Y-131661252D02*
X121090000Y-130238748D01*
X122910000Y-131661252D02*
X122910000Y-130238748D01*
X137012742Y-95822500D02*
X137487258Y-95822500D01*
X137012742Y-94777500D02*
X137487258Y-94777500D01*
X133968900Y-135871500D02*
X147811900Y-135871500D01*
X147811900Y-135871500D02*
X147811900Y-130181240D01*
X147811900Y-127718760D02*
X147811900Y-122028500D01*
X133968900Y-122028500D02*
X133968900Y-127718760D01*
X133968900Y-130181240D02*
X133968900Y-135871500D01*
X147811900Y-122028500D02*
X133968900Y-122028500D01*
D10*
X148460400Y-130555000D02*
G75*
G03*
X148460400Y-130555000I-100000J0D01*
G01*
D14*
X103692164Y-95660000D02*
X103907836Y-95660000D01*
X103692164Y-94940000D02*
X103907836Y-94940000D01*
X127077500Y-103687258D02*
X127077500Y-103212742D01*
X128122500Y-103687258D02*
X128122500Y-103212742D01*
D10*
X128750000Y-136150000D02*
X130650000Y-136150000D01*
X130650000Y-136150000D02*
X130650000Y-134250000D01*
X126850000Y-129150000D02*
X124950000Y-129150000D01*
X124950000Y-134250000D02*
X124950000Y-136150000D01*
X130650000Y-129150000D02*
X128750000Y-129150000D01*
X130650000Y-131050000D02*
X130650000Y-129150000D01*
X124950000Y-129150000D02*
X124950000Y-131050000D01*
X124950000Y-136150000D02*
X126850000Y-136150000D01*
X129800000Y-128700000D02*
G75*
G03*
X129800000Y-128700000I-100000J0D01*
G01*
D14*
X98090000Y-104847936D02*
X98090000Y-106052064D01*
X100810000Y-104847936D02*
X100810000Y-106052064D01*
X100709420Y-88560000D02*
X100990580Y-88560000D01*
X100709420Y-87540000D02*
X100990580Y-87540000D01*
X108310000Y-93340580D02*
X108310000Y-93059420D01*
X107290000Y-93340580D02*
X107290000Y-93059420D01*
D10*
X113120000Y-119650000D02*
X113120000Y-121550000D01*
X113120000Y-124750000D02*
X113120000Y-126650000D01*
X118820000Y-126650000D02*
X118820000Y-124750000D01*
X118820000Y-119650000D02*
X116920000Y-119650000D01*
X116920000Y-126650000D02*
X118820000Y-126650000D01*
X118820000Y-121550000D02*
X118820000Y-119650000D01*
X113120000Y-126650000D02*
X115020000Y-126650000D01*
X115020000Y-119650000D02*
X113120000Y-119650000D01*
X117970000Y-119200000D02*
G75*
G03*
X117970000Y-119200000I-100000J0D01*
G01*
D14*
X109327500Y-125187258D02*
X109327500Y-124712742D01*
X110372500Y-125187258D02*
X110372500Y-124712742D01*
X137300000Y-96450000D02*
X136637500Y-96450000D01*
X137300000Y-97100000D02*
X137300000Y-96450000D01*
X136650000Y-99756250D02*
X137300000Y-99756250D01*
X133993750Y-99100000D02*
X133993750Y-99750000D01*
X134650000Y-96443750D02*
X134000000Y-96443750D01*
X137300000Y-99756250D02*
X137300000Y-99093750D01*
X134000000Y-96443750D02*
X134000000Y-97106250D01*
X133993750Y-99750000D02*
X134656250Y-99750000D01*
D10*
X133750000Y-99400000D02*
G75*
G03*
X133750000Y-99400000I-100000J0D01*
G01*
X124950000Y-124750000D02*
X124950000Y-126650000D01*
X126850000Y-119650000D02*
X124950000Y-119650000D01*
X124950000Y-119650000D02*
X124950000Y-121550000D01*
X130650000Y-119650000D02*
X128750000Y-119650000D01*
X130650000Y-126650000D02*
X130650000Y-124750000D01*
X124950000Y-126650000D02*
X126850000Y-126650000D01*
X130650000Y-121550000D02*
X130650000Y-119650000D01*
X128750000Y-126650000D02*
X130650000Y-126650000D01*
X129800000Y-119200000D02*
G75*
G03*
X129800000Y-119200000I-100000J0D01*
G01*
D14*
X96190580Y-102040000D02*
X95909420Y-102040000D01*
X96190580Y-103060000D02*
X95909420Y-103060000D01*
X96190580Y-104860000D02*
X95909420Y-104860000D01*
X96190580Y-103840000D02*
X95909420Y-103840000D01*
X125900000Y-102050000D02*
X125900000Y-104250000D01*
X123700000Y-102050000D02*
X123700000Y-105050000D01*
X135127500Y-86712742D02*
X135127500Y-87187258D01*
X136172500Y-86712742D02*
X136172500Y-87187258D01*
X133010000Y-85000000D02*
X133010000Y-84200000D01*
X133010000Y-85000000D02*
X133010000Y-85800000D01*
X129890000Y-85000000D02*
X129890000Y-86800000D01*
X129890000Y-85000000D02*
X129890000Y-84200000D01*
X134190580Y-95810000D02*
X133909420Y-95810000D01*
X134190580Y-94790000D02*
X133909420Y-94790000D01*
X122660000Y-96392164D02*
X122660000Y-96607836D01*
X121940000Y-96392164D02*
X121940000Y-96607836D01*
X124237258Y-109672500D02*
X123762742Y-109672500D01*
X124237258Y-108627500D02*
X123762742Y-108627500D01*
D10*
X107050000Y-136150000D02*
X107050000Y-134250000D01*
X103250000Y-129150000D02*
X101350000Y-129150000D01*
X107050000Y-129150000D02*
X105150000Y-129150000D01*
X107050000Y-131050000D02*
X107050000Y-129150000D01*
X101350000Y-134250000D02*
X101350000Y-136150000D01*
X101350000Y-129150000D02*
X101350000Y-131050000D01*
X101350000Y-136150000D02*
X103250000Y-136150000D01*
X105150000Y-136150000D02*
X107050000Y-136150000D01*
X106200000Y-128700000D02*
G75*
G03*
X106200000Y-128700000I-100000J0D01*
G01*
D14*
X97377500Y-85837258D02*
X97377500Y-85362742D01*
X98422500Y-85837258D02*
X98422500Y-85362742D01*
X141800000Y-88950000D02*
X139250000Y-88950000D01*
X141800000Y-90650000D02*
X139250000Y-90650000D01*
X141800000Y-90650000D02*
X141800000Y-88950000D01*
X148100000Y-117360000D02*
X148100000Y-110240000D01*
X144941000Y-113195000D02*
X145069000Y-113324000D01*
X140840000Y-117360000D02*
X140840000Y-110240000D01*
X140840000Y-110240000D02*
X148560000Y-110240000D01*
X147000000Y-117360000D02*
X147000000Y-110240000D01*
X142725000Y-110980000D02*
X142819000Y-111074000D01*
X148800000Y-117600000D02*
X148800000Y-117200000D01*
X142931000Y-110775000D02*
X143059000Y-110904000D01*
X148560000Y-117360000D02*
X148560000Y-110240000D01*
X145181000Y-113025000D02*
X145274000Y-113119000D01*
X140840000Y-117360000D02*
X148560000Y-117360000D01*
X148160000Y-117600000D02*
X148800000Y-117600000D01*
X143134000Y-116990001D02*
G75*
G03*
X144889894Y-116975358I866000J1439999D01*
G01*
X144891000Y-114125000D02*
G75*
G03*
X143109807Y-114124496I-891000J-1425003D01*
G01*
X145440000Y-116416000D02*
G75*
G03*
X145680099Y-115521326I-1440014J866003D01*
G01*
X142559999Y-114684000D02*
G75*
G03*
X142574642Y-116439894I1439999J-866000D01*
G01*
X145680000Y-115550000D02*
G75*
G03*
X145424721Y-114659736I-1679990J3D01*
G01*
X145680000Y-112050000D02*
G75*
G03*
X145680000Y-112050000I-1680000J0D01*
G01*
X110640000Y-94890000D02*
X109690000Y-94890000D01*
X109690000Y-95840000D02*
X108350000Y-95840000D01*
X119910000Y-94890000D02*
X119910000Y-95840000D01*
X109690000Y-94890000D02*
X109690000Y-95840000D01*
X109690000Y-105110000D02*
X109690000Y-104160000D01*
X110640000Y-105110000D02*
X109690000Y-105110000D01*
X118960000Y-94890000D02*
X119910000Y-94890000D01*
X119910000Y-105110000D02*
X119910000Y-104160000D01*
X118960000Y-105110000D02*
X119910000Y-105110000D01*
X144100000Y-88550000D02*
X144100000Y-90100000D01*
X143700000Y-93725000D02*
X143400000Y-93125000D01*
X144600000Y-92900000D02*
X144600000Y-93950000D01*
X144600000Y-90100000D02*
X144600000Y-89050000D01*
X144600000Y-93950000D02*
X145200000Y-93950000D01*
X143400000Y-93125000D02*
X143100000Y-93725000D01*
X145200000Y-94450000D02*
X144100000Y-94450000D01*
X145200000Y-93950000D02*
X145200000Y-94450000D01*
X144100000Y-94450000D02*
X144100000Y-92900000D01*
X145200000Y-89050000D02*
X145200000Y-88550000D01*
X144100000Y-92900000D02*
X144600000Y-92900000D01*
X145200000Y-88550000D02*
X144100000Y-88550000D01*
X143100000Y-93725000D02*
X143700000Y-93725000D01*
X144600000Y-89050000D02*
X145200000Y-89050000D01*
X148400000Y-92750000D02*
X148400000Y-90250000D01*
X144100000Y-90100000D02*
X144600000Y-90100000D01*
X96207836Y-101410000D02*
X95992164Y-101410000D01*
X96207836Y-100690000D02*
X95992164Y-100690000D01*
X130010000Y-103590580D02*
X130010000Y-103309420D01*
X128990000Y-103590580D02*
X128990000Y-103309420D01*
X86987258Y-99372500D02*
X86512742Y-99372500D01*
X86987258Y-98327500D02*
X86512742Y-98327500D01*
X110060000Y-93557836D02*
X110060000Y-93342164D01*
X109340000Y-93557836D02*
X109340000Y-93342164D01*
X138710000Y-104540580D02*
X138710000Y-104259420D01*
X137690000Y-104540580D02*
X137690000Y-104259420D01*
X138600000Y-88410000D02*
X137950000Y-88410000D01*
X138600000Y-85290000D02*
X139250000Y-85290000D01*
X138600000Y-85290000D02*
X137950000Y-85290000D01*
X138600000Y-88410000D02*
X140275000Y-88410000D01*
X123859420Y-107810000D02*
X124140580Y-107810000D01*
X123859420Y-106790000D02*
X124140580Y-106790000D01*
X86750000Y-87900000D02*
X86750000Y-87400000D01*
X87850000Y-87400000D02*
X87850000Y-88950000D01*
X88850000Y-88125000D02*
X88250000Y-88125000D01*
X86750000Y-95300000D02*
X86750000Y-95800000D01*
X86750000Y-87400000D02*
X87850000Y-87400000D01*
X87350000Y-95300000D02*
X86750000Y-95300000D01*
X87350000Y-87900000D02*
X86750000Y-87900000D01*
X87350000Y-88950000D02*
X87350000Y-87900000D01*
X86750000Y-95800000D02*
X87850000Y-95800000D01*
X87850000Y-88950000D02*
X87350000Y-88950000D01*
X87850000Y-94250000D02*
X87350000Y-94250000D01*
X88250000Y-88125000D02*
X88550000Y-88725000D01*
X83550000Y-89100000D02*
X83550000Y-94100000D01*
X87350000Y-94250000D02*
X87350000Y-95300000D01*
X88550000Y-88725000D02*
X88850000Y-88125000D01*
X87850000Y-95800000D02*
X87850000Y-94250000D01*
X131260000Y-89050000D02*
X131260000Y-89700000D01*
X131260000Y-89050000D02*
X131260000Y-88400000D01*
X128140000Y-89050000D02*
X128140000Y-90725000D01*
X128140000Y-89050000D02*
X128140000Y-88400000D01*
X123837258Y-85377500D02*
X123362742Y-85377500D01*
X123837258Y-86422500D02*
X123362742Y-86422500D01*
X103907836Y-101360000D02*
X103692164Y-101360000D01*
X103907836Y-100640000D02*
X103692164Y-100640000D01*
X130768760Y-137228500D02*
X125078500Y-137228500D01*
X138921500Y-137228500D02*
X133231240Y-137228500D01*
X125078500Y-137228500D02*
X125078500Y-151071500D01*
X138921500Y-151071500D02*
X138921500Y-137228500D01*
X125078500Y-151071500D02*
X130768760Y-151071500D01*
X133231240Y-151071500D02*
X138921500Y-151071500D01*
D10*
X133705000Y-136680000D02*
G75*
G03*
X133705000Y-136680000I-100000J0D01*
G01*
D14*
X137109420Y-92990000D02*
X137390580Y-92990000D01*
X137109420Y-94010000D02*
X137390580Y-94010000D01*
X128310000Y-97484420D02*
X128310000Y-97765580D01*
X127290000Y-97484420D02*
X127290000Y-97765580D01*
X139322500Y-97327742D02*
X139322500Y-97802258D01*
X138277500Y-97327742D02*
X138277500Y-97802258D01*
X114742000Y-148142000D02*
X114347000Y-148538000D01*
X117388000Y-145496000D02*
X117008000Y-145876000D01*
X108440000Y-143090000D02*
X123560000Y-143090000D01*
X108440000Y-151750000D02*
X123560000Y-151750000D01*
X122654000Y-145762000D02*
X122259000Y-146158000D01*
X112388000Y-145496000D02*
X112281000Y-145603000D01*
X123560000Y-143090000D02*
X123560000Y-151750000D01*
X112654000Y-145762000D02*
X112547000Y-145869000D01*
X122388000Y-145496000D02*
X122008000Y-145876000D01*
X114993000Y-148424000D02*
X114613000Y-148804000D01*
X119742000Y-148142000D02*
X119347000Y-148538000D01*
X119993000Y-148424000D02*
X119613000Y-148804000D01*
X109452000Y-148431000D02*
X109346000Y-148538000D01*
X117654000Y-145762000D02*
X117259000Y-146158000D01*
X108440000Y-143090000D02*
X108440000Y-151750000D01*
X109718000Y-148697000D02*
X109612000Y-148804000D01*
X108440000Y-150650000D02*
X123560000Y-150650000D01*
X118180000Y-147150000D02*
G75*
G03*
X118180000Y-147150000I-2180000J0D01*
G01*
X123180000Y-147150000D02*
G75*
G03*
X123180000Y-147150000I-2180000J0D01*
G01*
X113180000Y-147150000D02*
G75*
G03*
X113180000Y-147150000I-2180000J0D01*
G01*
X127300000Y-81550000D02*
X128350000Y-81550000D01*
X128850000Y-80950000D02*
X128850000Y-82050000D01*
X118450000Y-81550000D02*
X118450000Y-80950000D01*
X117950000Y-82050000D02*
X119500000Y-82050000D01*
X128125000Y-82450000D02*
X127525000Y-82750000D01*
X128850000Y-82050000D02*
X127300000Y-82050000D01*
X128350000Y-81550000D02*
X128350000Y-80950000D01*
X118450000Y-80950000D02*
X117950000Y-80950000D01*
X119500000Y-81550000D02*
X118450000Y-81550000D01*
X127300000Y-82050000D02*
X127300000Y-81550000D01*
X128350000Y-80950000D02*
X128850000Y-80950000D01*
X119500000Y-82050000D02*
X119500000Y-81550000D01*
X128125000Y-83050000D02*
X128125000Y-82450000D01*
X127525000Y-82750000D02*
X128125000Y-83050000D01*
X117950000Y-80950000D02*
X117950000Y-82050000D01*
X127150000Y-77750000D02*
X119650000Y-77750000D01*
X99180000Y-83230000D02*
X94040000Y-83230000D01*
X99180000Y-80570000D02*
X99180000Y-83230000D01*
X101780000Y-80570000D02*
X101780000Y-81900000D01*
X99180000Y-80570000D02*
X94040000Y-80570000D01*
X100450000Y-80570000D02*
X101780000Y-80570000D01*
X94040000Y-80570000D02*
X94040000Y-83230000D01*
X132960000Y-131661252D02*
X132960000Y-130238748D01*
X131140000Y-131661252D02*
X131140000Y-130238748D01*
X95340580Y-114690000D02*
X95059420Y-114690000D01*
X95340580Y-115710000D02*
X95059420Y-115710000D01*
X92240000Y-115809420D02*
X92240000Y-116090580D01*
X93260000Y-115809420D02*
X93260000Y-116090580D01*
X107107836Y-95660000D02*
X106892164Y-95660000D01*
X107107836Y-94940000D02*
X106892164Y-94940000D01*
D10*
X118820000Y-136150000D02*
X118820000Y-134250000D01*
X113120000Y-136150000D02*
X115020000Y-136150000D01*
X118820000Y-129150000D02*
X116920000Y-129150000D01*
X115020000Y-129150000D02*
X113120000Y-129150000D01*
X113120000Y-129150000D02*
X113120000Y-131050000D01*
X116920000Y-136150000D02*
X118820000Y-136150000D01*
X118820000Y-131050000D02*
X118820000Y-129150000D01*
X113120000Y-134250000D02*
X113120000Y-136150000D01*
X117970000Y-128700000D02*
G75*
G03*
X117970000Y-128700000I-100000J0D01*
G01*
D14*
X123637258Y-120922500D02*
X123162742Y-120922500D01*
X123637258Y-119877500D02*
X123162742Y-119877500D01*
X102040000Y-109740580D02*
X102040000Y-109459420D01*
X103060000Y-109740580D02*
X103060000Y-109459420D01*
X105450000Y-96200000D02*
X102150000Y-96200000D01*
X102150000Y-96200000D02*
X102150000Y-100200000D01*
X115822500Y-111612742D02*
X115822500Y-112087258D01*
X114777500Y-111612742D02*
X114777500Y-112087258D01*
X95628900Y-113124200D02*
X95628900Y-112710141D01*
X95210139Y-113124200D02*
X95628900Y-113124200D01*
X90371100Y-113124200D02*
X90789861Y-113124200D01*
X90371100Y-106875800D02*
X90371100Y-107289859D01*
X95628900Y-106875800D02*
X95210139Y-106875800D01*
X90371100Y-112710141D02*
X90371100Y-113124200D01*
X90789861Y-106875800D02*
X90371100Y-106875800D01*
X95628900Y-107289859D02*
X95628900Y-106875800D01*
D10*
X96340000Y-112940000D02*
G75*
G03*
X96340000Y-112940000I-100000J0D01*
G01*
D15*
X96309899Y-107940499D02*
X96309899Y-107559499D01*
X96309899Y-107559499D02*
X96055899Y-107559499D01*
X96055899Y-107559499D02*
X96055899Y-107940499D01*
X96055899Y-107940499D02*
X96309899Y-107940499D01*
G36*
X96309899Y-107940499D02*
G01*
X96055899Y-107940499D01*
X96055899Y-107559499D01*
X96309899Y-107559499D01*
X96309899Y-107940499D01*
G37*
X96309899Y-107940499D02*
X96055899Y-107940499D01*
X96055899Y-107559499D01*
X96309899Y-107559499D01*
X96309899Y-107940499D01*
X89690101Y-108440501D02*
X89690101Y-108059501D01*
X89690101Y-108059501D02*
X89944101Y-108059501D01*
X89944101Y-108059501D02*
X89944101Y-108440501D01*
X89944101Y-108440501D02*
X89690101Y-108440501D01*
G36*
X89944101Y-108440501D02*
G01*
X89690101Y-108440501D01*
X89690101Y-108059501D01*
X89944101Y-108059501D01*
X89944101Y-108440501D01*
G37*
X89944101Y-108440501D02*
X89690101Y-108440501D01*
X89690101Y-108059501D01*
X89944101Y-108059501D01*
X89944101Y-108440501D01*
X91940500Y-113551199D02*
X91940500Y-113805199D01*
X91940500Y-113805199D02*
X91559500Y-113805199D01*
X91559500Y-113805199D02*
X91559500Y-113551199D01*
X91559500Y-113551199D02*
X91940500Y-113551199D01*
G36*
X91940500Y-113805199D02*
G01*
X91559500Y-113805199D01*
X91559500Y-113551199D01*
X91940500Y-113551199D01*
X91940500Y-113805199D01*
G37*
X91940500Y-113805199D02*
X91559500Y-113805199D01*
X91559500Y-113551199D01*
X91940500Y-113551199D01*
X91940500Y-113805199D01*
D10*
X107050000Y-121550000D02*
X107050000Y-119650000D01*
X105150000Y-126650000D02*
X107050000Y-126650000D01*
X101350000Y-126650000D02*
X103250000Y-126650000D01*
X101350000Y-124750000D02*
X101350000Y-126650000D01*
X101350000Y-119650000D02*
X101350000Y-121550000D01*
X107050000Y-119650000D02*
X105150000Y-119650000D01*
X107050000Y-126650000D02*
X107050000Y-124750000D01*
X103250000Y-119650000D02*
X101350000Y-119650000D01*
X106200000Y-119200000D02*
G75*
G03*
X106200000Y-119200000I-100000J0D01*
G01*
D14*
X94045000Y-91626263D02*
X94045000Y-93073737D01*
X96755000Y-91626263D02*
X96755000Y-93073737D01*
X91210000Y-115784420D02*
X91210000Y-116065580D01*
X90190000Y-115784420D02*
X90190000Y-116065580D01*
X143100000Y-105500000D02*
X143700000Y-105500000D01*
X145200000Y-96550000D02*
X144100000Y-96550000D01*
X145200000Y-105750000D02*
X145200000Y-106250000D01*
X148400000Y-104550000D02*
X148400000Y-98250000D01*
X144600000Y-104700000D02*
X144600000Y-105750000D01*
X144600000Y-97050000D02*
X145200000Y-97050000D01*
X144100000Y-106250000D02*
X144100000Y-104700000D01*
X144100000Y-96550000D02*
X144100000Y-98100000D01*
X143400000Y-104900000D02*
X143100000Y-105500000D01*
X145200000Y-97050000D02*
X145200000Y-96550000D01*
X144100000Y-104700000D02*
X144600000Y-104700000D01*
X144100000Y-98100000D02*
X144600000Y-98100000D01*
X144600000Y-98100000D02*
X144600000Y-97050000D01*
X144600000Y-105750000D02*
X145200000Y-105750000D01*
X143700000Y-105500000D02*
X143400000Y-104900000D01*
X145200000Y-106250000D02*
X144100000Y-106250000D01*
X128690000Y-107609420D02*
X128690000Y-107890580D01*
X129710000Y-107609420D02*
X129710000Y-107890580D01*
D10*
X132250000Y-115100000D02*
X132250000Y-117000000D01*
X136050000Y-117000000D02*
X137950000Y-117000000D01*
X137950000Y-111900000D02*
X137950000Y-110000000D01*
X137950000Y-117000000D02*
X137950000Y-115100000D01*
X134150000Y-110000000D02*
X132250000Y-110000000D01*
X137950000Y-110000000D02*
X136050000Y-110000000D01*
X132250000Y-117000000D02*
X134150000Y-117000000D01*
X132250000Y-110000000D02*
X132250000Y-111900000D01*
X133300000Y-117450000D02*
G75*
G03*
X133300000Y-117450000I-100000J0D01*
G01*
D14*
X110760000Y-131461252D02*
X110760000Y-130038748D01*
X108940000Y-131461252D02*
X108940000Y-130038748D01*
X101150000Y-89340000D02*
X99200000Y-89340000D01*
X101150000Y-94460000D02*
X104600000Y-94460000D01*
X101150000Y-89340000D02*
X103100000Y-89340000D01*
X101150000Y-94460000D02*
X99200000Y-94460000D01*
X134165580Y-92990000D02*
X133884420Y-92990000D01*
X134165580Y-94010000D02*
X133884420Y-94010000D01*
X122822500Y-125187258D02*
X122822500Y-124712742D01*
X121777500Y-125187258D02*
X121777500Y-124712742D01*
X131622500Y-107512742D02*
X131622500Y-107987258D01*
X130577500Y-107512742D02*
X130577500Y-107987258D01*
X98440580Y-113660000D02*
X98159420Y-113660000D01*
X98440580Y-112640000D02*
X98159420Y-112640000D01*
X106828641Y-99455000D02*
X106521359Y-99455000D01*
X106828641Y-98695000D02*
X106521359Y-98695000D01*
X139577500Y-104637258D02*
X139577500Y-104162742D01*
X140622500Y-104637258D02*
X140622500Y-104162742D01*
X130877500Y-103687258D02*
X130877500Y-103212742D01*
X131922500Y-103687258D02*
X131922500Y-103212742D01*
X86987258Y-101272500D02*
X86512742Y-101272500D01*
X86987258Y-100227500D02*
X86512742Y-100227500D01*
X139637258Y-119572500D02*
X139162742Y-119572500D01*
X139637258Y-118527500D02*
X139162742Y-118527500D01*
X119527836Y-107040000D02*
X119312164Y-107040000D01*
X119527836Y-107760000D02*
X119312164Y-107760000D01*
X91500000Y-91290000D02*
X90850000Y-91290000D01*
X91500000Y-94410000D02*
X90850000Y-94410000D01*
X91500000Y-91290000D02*
X92150000Y-91290000D01*
X91500000Y-94410000D02*
X93175000Y-94410000D01*
X125010000Y-96559420D02*
X125010000Y-96840580D01*
X123990000Y-96559420D02*
X123990000Y-96840580D01*
X111657836Y-107140000D02*
X111442164Y-107140000D01*
X111657836Y-107860000D02*
X111442164Y-107860000D01*
X90850000Y-100015000D02*
X88565000Y-100015000D01*
X88565000Y-101485000D02*
X90850000Y-101485000D01*
X88565000Y-100015000D02*
X88565000Y-101485000D01*
X136637258Y-89077500D02*
X136162742Y-89077500D01*
X136637258Y-90122500D02*
X136162742Y-90122500D01*
X106921500Y-151071500D02*
X106921500Y-137228500D01*
X98768760Y-137228500D02*
X93078500Y-137228500D01*
X93078500Y-137228500D02*
X93078500Y-151071500D01*
X101231240Y-151071500D02*
X106921500Y-151071500D01*
X93078500Y-151071500D02*
X98768760Y-151071500D01*
X106921500Y-137228500D02*
X101231240Y-137228500D01*
D10*
X101705000Y-136680000D02*
G75*
G03*
X101705000Y-136680000I-100000J0D01*
G01*
D14*
X111737258Y-119927500D02*
X111262742Y-119927500D01*
X111737258Y-120972500D02*
X111262742Y-120972500D01*
X99937258Y-130372500D02*
X99462742Y-130372500D01*
X99937258Y-129327500D02*
X99462742Y-129327500D01*
X136822500Y-104637258D02*
X136822500Y-104162742D01*
X135777500Y-104637258D02*
X135777500Y-104162742D01*
%LPC*%
D16*
X127300000Y-108575000D03*
X127300000Y-106925000D03*
D17*
X89312500Y-98800000D03*
X90887500Y-98800000D03*
D18*
X91000000Y-133745800D03*
X91000000Y-124154200D03*
D16*
X113600000Y-112700000D03*
X113600000Y-111050000D03*
D19*
X135200000Y-80950000D03*
X134550000Y-80950000D03*
X133900000Y-80950000D03*
X133250000Y-80950000D03*
X132600000Y-80950000D03*
D20*
X136400000Y-80950000D03*
D21*
X131000000Y-78250000D03*
D22*
X130400000Y-78250000D03*
D20*
X131400000Y-80950000D03*
D21*
X136800000Y-78250000D03*
D23*
X132900000Y-78250000D03*
X134900000Y-78250000D03*
D22*
X137400000Y-78250000D03*
D24*
X100525000Y-120450000D03*
X98875000Y-120450000D03*
D25*
X137050000Y-119000000D03*
X134550000Y-119000000D03*
D26*
X132250000Y-99775000D03*
X132250000Y-96825000D03*
X122000000Y-132425000D03*
X122000000Y-129475000D03*
D27*
X122350000Y-111150000D03*
X139250000Y-94550000D03*
D28*
X136425000Y-95300000D03*
X138075000Y-95300000D03*
D29*
X145686200Y-128950000D03*
X136094600Y-128950000D03*
D30*
X103320000Y-95300000D03*
X104280000Y-95300000D03*
D16*
X127600000Y-104275000D03*
X127600000Y-102625000D03*
D31*
X129705000Y-135575000D03*
D32*
X127800000Y-133700000D03*
D31*
X127165000Y-135575000D03*
X125895000Y-135575000D03*
X128435000Y-135575000D03*
D33*
X125895000Y-129750000D03*
X129705000Y-129750000D03*
X128435000Y-129750000D03*
X127165000Y-129750000D03*
D34*
X99450000Y-104050000D03*
X99450000Y-106850000D03*
D35*
X100075000Y-88050000D03*
X101625000Y-88050000D03*
D36*
X107800000Y-93975000D03*
X107800000Y-92425000D03*
D27*
X109850000Y-123050000D03*
D31*
X116605000Y-126075000D03*
X117875000Y-126075000D03*
D32*
X115970000Y-124200000D03*
D31*
X114065000Y-126075000D03*
X115335000Y-126075000D03*
D33*
X114065000Y-120250000D03*
X116605000Y-120250000D03*
X115335000Y-120250000D03*
X117875000Y-120250000D03*
D16*
X109850000Y-125775000D03*
X109850000Y-124125000D03*
D37*
X135660000Y-97710000D03*
X135650000Y-98490000D03*
D38*
X137100000Y-98850000D03*
X137100000Y-98350000D03*
X137100000Y-97850000D03*
X137100000Y-97350000D03*
X134200000Y-97350000D03*
X134200000Y-97850000D03*
X134200000Y-98350000D03*
X134200000Y-98850000D03*
D39*
X135650000Y-99210000D03*
X135650000Y-96990000D03*
D31*
X127165000Y-126075000D03*
X125895000Y-126075000D03*
X128435000Y-126075000D03*
X129705000Y-126075000D03*
D32*
X127800000Y-124200000D03*
D33*
X125895000Y-120250000D03*
X127165000Y-120250000D03*
X129705000Y-120250000D03*
X128435000Y-120250000D03*
D40*
X96825000Y-102550000D03*
X95275000Y-102550000D03*
X96825000Y-104350000D03*
X95275000Y-104350000D03*
D41*
X124050000Y-104700000D03*
X124550000Y-104700000D03*
X125050000Y-104700000D03*
X125550000Y-104700000D03*
X125550000Y-101600000D03*
X125050000Y-101600000D03*
X124550000Y-101600000D03*
X124050000Y-101600000D03*
D42*
X135650000Y-86125000D03*
X135650000Y-87775000D03*
D43*
X87302944Y-144302944D03*
X89000000Y-143600000D03*
X91400000Y-146000000D03*
X90697056Y-147697056D03*
X87302944Y-147697056D03*
X89000000Y-148400000D03*
X86600000Y-146000000D03*
D44*
X89000000Y-146000000D03*
D43*
X90697056Y-144302944D03*
D27*
X111650000Y-109800000D03*
X134300000Y-103850000D03*
D45*
X130500000Y-86137500D03*
X131450000Y-86137500D03*
X132400000Y-86137500D03*
X132400000Y-83862500D03*
X131450000Y-83862500D03*
X130500000Y-83862500D03*
D40*
X134825000Y-95300000D03*
X133275000Y-95300000D03*
D46*
X122300000Y-96020000D03*
X122300000Y-96980000D03*
D24*
X124825000Y-109150000D03*
X123175000Y-109150000D03*
D31*
X102295000Y-135575000D03*
X103565000Y-135575000D03*
X106105000Y-135575000D03*
D32*
X104200000Y-133700000D03*
D31*
X104835000Y-135575000D03*
D33*
X102295000Y-129750000D03*
X103565000Y-129750000D03*
X104835000Y-129750000D03*
X106105000Y-129750000D03*
D16*
X97900000Y-86425000D03*
X97900000Y-84775000D03*
D47*
X141350000Y-89800000D03*
X139250000Y-89800000D03*
D48*
X144000000Y-115550000D03*
D49*
X144000000Y-112050000D03*
D50*
X109125000Y-96250000D03*
X109125000Y-96750000D03*
X109125000Y-97250000D03*
X109125000Y-97750000D03*
X109125000Y-98250000D03*
X109125000Y-98750000D03*
X109125000Y-99250000D03*
X109125000Y-99750000D03*
X109125000Y-100250000D03*
X109125000Y-100750000D03*
X109125000Y-101250000D03*
X109125000Y-101750000D03*
X109125000Y-102250000D03*
X109125000Y-102750000D03*
X109125000Y-103250000D03*
X109125000Y-103750000D03*
D51*
X111050000Y-105675000D03*
X111550000Y-105675000D03*
X112050000Y-105675000D03*
X112550000Y-105675000D03*
X113050000Y-105675000D03*
X113550000Y-105675000D03*
X114050000Y-105675000D03*
X114550000Y-105675000D03*
X115050000Y-105675000D03*
X115550000Y-105675000D03*
X116050000Y-105675000D03*
X116550000Y-105675000D03*
X117050000Y-105675000D03*
X117550000Y-105675000D03*
X118050000Y-105675000D03*
X118550000Y-105675000D03*
D50*
X120475000Y-103750000D03*
X120475000Y-103250000D03*
X120475000Y-102750000D03*
X120475000Y-102250000D03*
X120475000Y-101750000D03*
X120475000Y-101250000D03*
X120475000Y-100750000D03*
X120475000Y-100250000D03*
X120475000Y-99750000D03*
X120475000Y-99250000D03*
X120475000Y-98750000D03*
X120475000Y-98250000D03*
X120475000Y-97750000D03*
X120475000Y-97250000D03*
X120475000Y-96750000D03*
X120475000Y-96250000D03*
D51*
X118550000Y-94325000D03*
X118050000Y-94325000D03*
X117550000Y-94325000D03*
X117050000Y-94325000D03*
X116550000Y-94325000D03*
X116050000Y-94325000D03*
X115550000Y-94325000D03*
X115050000Y-94325000D03*
X114550000Y-94325000D03*
X114050000Y-94325000D03*
X113550000Y-94325000D03*
X113050000Y-94325000D03*
X112550000Y-94325000D03*
X112050000Y-94325000D03*
X111550000Y-94325000D03*
X111050000Y-94325000D03*
D52*
X147150000Y-93850000D03*
X147150000Y-89150000D03*
D53*
X143950000Y-92125000D03*
X143950000Y-90875000D03*
D54*
X96580000Y-101050000D03*
X95620000Y-101050000D03*
D36*
X129500000Y-104225000D03*
X129500000Y-102675000D03*
D27*
X92450000Y-90600000D03*
X122325000Y-123050000D03*
X97500000Y-120350000D03*
D24*
X87575000Y-98850000D03*
X85925000Y-98850000D03*
D27*
X137850000Y-91750000D03*
D55*
X109700000Y-93930000D03*
X109700000Y-92970000D03*
D36*
X138200000Y-105175000D03*
X138200000Y-103625000D03*
D56*
X139537500Y-87800000D03*
X139537500Y-85900000D03*
X137662500Y-86850000D03*
D35*
X123225000Y-107300000D03*
X124775000Y-107300000D03*
D57*
X84800000Y-88000000D03*
X84800000Y-95200000D03*
D58*
X88000000Y-89725000D03*
X88000000Y-90975000D03*
X88000000Y-92225000D03*
X88000000Y-93475000D03*
D59*
X128750000Y-89987500D03*
X130650000Y-89987500D03*
X129700000Y-88112500D03*
D24*
X124425000Y-85900000D03*
X122775000Y-85900000D03*
D54*
X104280000Y-101000000D03*
X103320000Y-101000000D03*
D60*
X132000000Y-139354200D03*
X132000000Y-148945800D03*
D35*
X136475000Y-93500000D03*
X138025000Y-93500000D03*
D61*
X116475000Y-79100000D03*
X104125000Y-79100000D03*
D62*
X114800000Y-83800000D03*
X114800000Y-78100000D03*
X113800000Y-83800000D03*
X113800000Y-78100000D03*
X112800000Y-83800000D03*
X112800000Y-78100000D03*
X111800000Y-83800000D03*
X111800000Y-78100000D03*
X110800000Y-83800000D03*
X110800000Y-78100000D03*
D63*
X109800000Y-83800000D03*
X109800000Y-78100000D03*
X108800000Y-83800000D03*
X108800000Y-78100000D03*
X107800000Y-83800000D03*
X107800000Y-78100000D03*
X106800000Y-83800000D03*
X106800000Y-78100000D03*
X105800000Y-83800000D03*
X105800000Y-78100000D03*
D64*
X127800000Y-96850000D03*
X127800000Y-98400000D03*
D42*
X138800000Y-96740000D03*
X138800000Y-98390000D03*
D27*
X96450000Y-129800000D03*
X132800000Y-103300000D03*
D65*
X111000000Y-147150000D03*
D66*
X116000000Y-147150000D03*
X121000000Y-147150000D03*
D67*
X118550000Y-79000000D03*
X128250000Y-79000000D03*
D68*
X126525000Y-82200000D03*
X125275000Y-82200000D03*
X124025000Y-82200000D03*
X122775000Y-82200000D03*
X121525000Y-82200000D03*
X120275000Y-82200000D03*
D69*
X100450000Y-81900000D03*
D70*
X97910000Y-81900000D03*
X95370000Y-81900000D03*
D26*
X132050000Y-132425000D03*
X132050000Y-129475000D03*
D27*
X88900000Y-107250000D03*
X88200000Y-113100000D03*
D40*
X95975000Y-115200000D03*
X94425000Y-115200000D03*
D64*
X92750000Y-115175000D03*
X92750000Y-116725000D03*
D54*
X107480000Y-95300000D03*
X106520000Y-95300000D03*
D32*
X115970000Y-133700000D03*
D31*
X116605000Y-135575000D03*
X117875000Y-135575000D03*
X115335000Y-135575000D03*
X114065000Y-135575000D03*
D33*
X114065000Y-129750000D03*
X115335000Y-129750000D03*
X116605000Y-129750000D03*
X117875000Y-129750000D03*
D24*
X124225000Y-120400000D03*
X122575000Y-120400000D03*
D27*
X123250000Y-94550000D03*
D36*
X102550000Y-110375000D03*
X102550000Y-108825000D03*
D71*
X102950000Y-97100000D03*
X102950000Y-99300000D03*
X104650000Y-99300000D03*
X104650000Y-97100000D03*
D42*
X115300000Y-111025000D03*
X115300000Y-112675000D03*
D72*
X95450000Y-112250002D03*
X95450000Y-111750000D03*
X95450000Y-111250001D03*
X95450000Y-110750002D03*
X95450000Y-110250001D03*
X95450000Y-109750001D03*
X95450000Y-109250000D03*
X95450000Y-108750001D03*
X95450000Y-108250002D03*
X95450000Y-107750000D03*
D73*
X94749999Y-107080000D03*
X94250000Y-107080000D03*
X93750001Y-107080000D03*
X93250000Y-107080000D03*
X92750000Y-107080000D03*
X92249999Y-107080000D03*
X91750000Y-107080000D03*
X91250001Y-107080000D03*
D72*
X90550000Y-107749999D03*
X90550000Y-108250001D03*
X90550000Y-108750000D03*
X90550000Y-109249999D03*
X90550000Y-109750000D03*
X90550000Y-110250000D03*
X90550000Y-110750001D03*
X90550000Y-111250000D03*
X90550000Y-111749999D03*
X90550000Y-112250001D03*
D73*
X91250001Y-112918600D03*
X91750000Y-112918600D03*
X92249999Y-112918600D03*
X92750000Y-112918600D03*
X93250000Y-112918600D03*
X93750001Y-112918600D03*
X94250000Y-112918600D03*
X94749999Y-112918600D03*
D74*
X93000000Y-110000000D03*
D27*
X103100000Y-103750000D03*
D31*
X102295000Y-126075000D03*
D32*
X104200000Y-124200000D03*
D31*
X103565000Y-126075000D03*
X106105000Y-126075000D03*
X104835000Y-126075000D03*
D33*
X102295000Y-120250000D03*
X104835000Y-120250000D03*
X106105000Y-120250000D03*
X103565000Y-120250000D03*
D75*
X95400000Y-90887500D03*
X95400000Y-93812500D03*
D64*
X90700000Y-115150000D03*
X90700000Y-116700000D03*
D52*
X147150000Y-97150000D03*
X147150000Y-105650000D03*
D53*
X143950000Y-103900000D03*
X143950000Y-102650000D03*
X143950000Y-101400000D03*
X143950000Y-100150000D03*
X143950000Y-98900000D03*
D64*
X129200000Y-106975000D03*
X129200000Y-108525000D03*
D76*
X135100000Y-112450000D03*
D77*
X134465000Y-110575000D03*
X133195000Y-110575000D03*
X137005000Y-110575000D03*
X135735000Y-110575000D03*
D78*
X137005000Y-116400000D03*
X134465000Y-116400000D03*
X133195000Y-116400000D03*
X135735000Y-116400000D03*
D26*
X109850000Y-132225000D03*
X109850000Y-129275000D03*
D79*
X103625000Y-93805000D03*
X103625000Y-92535000D03*
X103625000Y-91265000D03*
X103625000Y-89995000D03*
X98675000Y-89995000D03*
X98675000Y-91265000D03*
X98675000Y-92535000D03*
X98675000Y-93805000D03*
D27*
X123450000Y-106200000D03*
D40*
X134800000Y-93500000D03*
X133250000Y-93500000D03*
D16*
X122300000Y-125775000D03*
X122300000Y-124125000D03*
D42*
X131100000Y-106925000D03*
X131100000Y-108575000D03*
D40*
X99075000Y-113150000D03*
X97525000Y-113150000D03*
D80*
X107185000Y-99075000D03*
X106165000Y-99075000D03*
D27*
X92450000Y-95050000D03*
D16*
X140100000Y-105225000D03*
X140100000Y-103575000D03*
X131400000Y-104275000D03*
X131400000Y-102625000D03*
D24*
X87575000Y-100750000D03*
X85925000Y-100750000D03*
X140225000Y-119050000D03*
X138575000Y-119050000D03*
D54*
X119900000Y-107400000D03*
X118940000Y-107400000D03*
D43*
X141302944Y-144302944D03*
X144697056Y-144302944D03*
X143000000Y-143600000D03*
X141302944Y-147697056D03*
D44*
X143000000Y-146000000D03*
D43*
X140600000Y-146000000D03*
X145400000Y-146000000D03*
X144697056Y-147697056D03*
X143000000Y-148400000D03*
D27*
X132400000Y-106350000D03*
X98600000Y-102350000D03*
D56*
X92437500Y-93800000D03*
X92437500Y-91900000D03*
X90562500Y-92850000D03*
D64*
X124500000Y-95925000D03*
X124500000Y-97475000D03*
D54*
X112030000Y-107500000D03*
X111070000Y-107500000D03*
D17*
X89262500Y-100750000D03*
X90837500Y-100750000D03*
D24*
X137225000Y-89600000D03*
X135575000Y-89600000D03*
D27*
X106350000Y-104600000D03*
D60*
X100000000Y-139354200D03*
X100000000Y-148945800D03*
D24*
X112325000Y-120450000D03*
X110675000Y-120450000D03*
D43*
X141302944Y-84697056D03*
X141302944Y-81302944D03*
X143000000Y-80600000D03*
X144697056Y-81302944D03*
X143000000Y-85400000D03*
D44*
X143000000Y-83000000D03*
D43*
X140600000Y-83000000D03*
X144697056Y-84697056D03*
X145400000Y-83000000D03*
D24*
X100525000Y-129850000D03*
X98875000Y-129850000D03*
D43*
X90697056Y-84697056D03*
X89000000Y-80600000D03*
X90697056Y-81302944D03*
D44*
X89000000Y-83000000D03*
D43*
X91400000Y-83000000D03*
X89000000Y-85400000D03*
X86600000Y-83000000D03*
X87302944Y-81302944D03*
X87302944Y-84697056D03*
D16*
X136300000Y-105225000D03*
X136300000Y-103575000D03*
D27*
X106350000Y-100500000D03*
D81*
X125680000Y-96775000D03*
D82*
X125680000Y-97425000D03*
D83*
X126720000Y-97425000D03*
D84*
X126720000Y-96775000D03*
D85*
X126200000Y-97100000D03*
M02*
