G04 #@! TF.GenerationSoftware,KiCad,Pcbnew,(6.0.2)*
G04 #@! TF.CreationDate,2022-07-28T14:34:32+02:00*
G04 #@! TF.ProjectId,progetto_motor_controller,70726f67-6574-4746-9f5f-6d6f746f725f,rev?*
G04 #@! TF.SameCoordinates,Original*
G04 #@! TF.FileFunction,Copper,L4,Bot*
G04 #@! TF.FilePolarity,Positive*
%FSLAX46Y46*%
G04 Gerber Fmt 4.6, Leading zero omitted, Abs format (unit mm)*
G04 Created by KiCad (PCBNEW (6.0.2)) date 2022-07-28 14:34:32*
%MOMM*%
%LPD*%
G01*
G04 APERTURE LIST*
G04 Aperture macros list*
%AMRoundRect*
0 Rectangle with rounded corners*
0 $1 Rounding radius*
0 $2 $3 $4 $5 $6 $7 $8 $9 X,Y pos of 4 corners*
0 Add a 4 corners polygon primitive as box body*
4,1,4,$2,$3,$4,$5,$6,$7,$8,$9,$2,$3,0*
0 Add four circle primitives for the rounded corners*
1,1,$1+$1,$2,$3*
1,1,$1+$1,$4,$5*
1,1,$1+$1,$6,$7*
1,1,$1+$1,$8,$9*
0 Add four rect primitives between the rounded corners*
20,1,$1+$1,$2,$3,$4,$5,0*
20,1,$1+$1,$4,$5,$6,$7,0*
20,1,$1+$1,$6,$7,$8,$9,0*
20,1,$1+$1,$8,$9,$2,$3,0*%
%AMRotRect*
0 Rectangle, with rotation*
0 The origin of the aperture is its center*
0 $1 length*
0 $2 width*
0 $3 Rotation angle, in degrees counterclockwise*
0 Add horizontal line*
21,1,$1,$2,0,0,$3*%
%AMFreePoly0*
4,1,6,0.270000,-0.070500,0.270000,-0.105000,-0.090000,-0.105000,-0.090000,0.105000,0.090000,0.105000,0.270000,-0.070500,0.270000,-0.070500,$1*%
%AMFreePoly1*
4,1,6,0.090000,-0.105000,-0.270000,-0.105000,-0.270000,-0.070500,-0.090000,0.105000,0.090000,0.105000,0.090000,-0.105000,0.090000,-0.105000,$1*%
G04 Aperture macros list end*
G04 #@! TA.AperFunction,ComponentPad*
%ADD10O,1.250000X0.950000*%
G04 #@! TD*
G04 #@! TA.AperFunction,ComponentPad*
%ADD11O,0.890000X1.550000*%
G04 #@! TD*
G04 #@! TA.AperFunction,ComponentPad*
%ADD12C,0.800000*%
G04 #@! TD*
G04 #@! TA.AperFunction,ComponentPad*
%ADD13C,6.400000*%
G04 #@! TD*
G04 #@! TA.AperFunction,ComponentPad*
%ADD14R,2.400000X2.400000*%
G04 #@! TD*
G04 #@! TA.AperFunction,ComponentPad*
%ADD15C,2.400000*%
G04 #@! TD*
G04 #@! TA.AperFunction,ComponentPad*
%ADD16R,2.600000X2.600000*%
G04 #@! TD*
G04 #@! TA.AperFunction,ComponentPad*
%ADD17C,2.600000*%
G04 #@! TD*
G04 #@! TA.AperFunction,ComponentPad*
%ADD18R,1.700000X1.700000*%
G04 #@! TD*
G04 #@! TA.AperFunction,ComponentPad*
%ADD19O,1.700000X1.700000*%
G04 #@! TD*
G04 #@! TA.AperFunction,SMDPad,CuDef*
%ADD20C,1.000000*%
G04 #@! TD*
G04 #@! TA.AperFunction,SMDPad,CuDef*
%ADD21RoundRect,0.225000X0.225000X0.250000X-0.225000X0.250000X-0.225000X-0.250000X0.225000X-0.250000X0*%
G04 #@! TD*
G04 #@! TA.AperFunction,SMDPad,CuDef*
%ADD22RoundRect,0.225000X0.250000X-0.225000X0.250000X0.225000X-0.250000X0.225000X-0.250000X-0.225000X0*%
G04 #@! TD*
G04 #@! TA.AperFunction,SMDPad,CuDef*
%ADD23RoundRect,0.250000X1.425000X-0.362500X1.425000X0.362500X-1.425000X0.362500X-1.425000X-0.362500X0*%
G04 #@! TD*
G04 #@! TA.AperFunction,SMDPad,CuDef*
%ADD24R,0.900000X1.200000*%
G04 #@! TD*
G04 #@! TA.AperFunction,SMDPad,CuDef*
%ADD25RoundRect,0.140000X0.170000X-0.140000X0.170000X0.140000X-0.170000X0.140000X-0.170000X-0.140000X0*%
G04 #@! TD*
G04 #@! TA.AperFunction,SMDPad,CuDef*
%ADD26RoundRect,0.150000X-0.150000X0.825000X-0.150000X-0.825000X0.150000X-0.825000X0.150000X0.825000X0*%
G04 #@! TD*
G04 #@! TA.AperFunction,SMDPad,CuDef*
%ADD27RoundRect,0.200000X-0.200000X-0.275000X0.200000X-0.275000X0.200000X0.275000X-0.200000X0.275000X0*%
G04 #@! TD*
G04 #@! TA.AperFunction,SMDPad,CuDef*
%ADD28RoundRect,0.200000X0.200000X0.275000X-0.200000X0.275000X-0.200000X-0.275000X0.200000X-0.275000X0*%
G04 #@! TD*
G04 #@! TA.AperFunction,SMDPad,CuDef*
%ADD29RoundRect,0.200000X0.275000X-0.200000X0.275000X0.200000X-0.275000X0.200000X-0.275000X-0.200000X0*%
G04 #@! TD*
G04 #@! TA.AperFunction,SMDPad,CuDef*
%ADD30FreePoly0,0.000000*%
G04 #@! TD*
G04 #@! TA.AperFunction,SMDPad,CuDef*
%ADD31FreePoly1,180.000000*%
G04 #@! TD*
G04 #@! TA.AperFunction,SMDPad,CuDef*
%ADD32FreePoly0,180.000000*%
G04 #@! TD*
G04 #@! TA.AperFunction,SMDPad,CuDef*
%ADD33FreePoly1,0.000000*%
G04 #@! TD*
G04 #@! TA.AperFunction,SMDPad,CuDef*
%ADD34RotRect,0.480000X0.480000X315.000000*%
G04 #@! TD*
G04 #@! TA.AperFunction,SMDPad,CuDef*
%ADD35RoundRect,0.150000X0.150000X-0.825000X0.150000X0.825000X-0.150000X0.825000X-0.150000X-0.825000X0*%
G04 #@! TD*
G04 #@! TA.AperFunction,SMDPad,CuDef*
%ADD36RoundRect,0.225000X-0.225000X-0.250000X0.225000X-0.250000X0.225000X0.250000X-0.225000X0.250000X0*%
G04 #@! TD*
G04 #@! TA.AperFunction,SMDPad,CuDef*
%ADD37RoundRect,0.140000X0.140000X0.170000X-0.140000X0.170000X-0.140000X-0.170000X0.140000X-0.170000X0*%
G04 #@! TD*
G04 #@! TA.AperFunction,SMDPad,CuDef*
%ADD38RoundRect,0.140000X-0.140000X-0.170000X0.140000X-0.170000X0.140000X0.170000X-0.140000X0.170000X0*%
G04 #@! TD*
G04 #@! TA.AperFunction,ViaPad*
%ADD39C,0.800000*%
G04 #@! TD*
G04 #@! TA.AperFunction,ViaPad*
%ADD40C,0.700000*%
G04 #@! TD*
G04 #@! TA.AperFunction,ViaPad*
%ADD41C,0.600000*%
G04 #@! TD*
G04 #@! TA.AperFunction,ViaPad*
%ADD42C,0.650000*%
G04 #@! TD*
G04 #@! TA.AperFunction,Conductor*
%ADD43C,0.750000*%
G04 #@! TD*
G04 #@! TA.AperFunction,Conductor*
%ADD44C,0.500000*%
G04 #@! TD*
G04 #@! TA.AperFunction,Conductor*
%ADD45C,0.300000*%
G04 #@! TD*
G04 #@! TA.AperFunction,Conductor*
%ADD46C,1.000000*%
G04 #@! TD*
G04 #@! TA.AperFunction,Conductor*
%ADD47C,0.200000*%
G04 #@! TD*
G04 #@! TA.AperFunction,Conductor*
%ADD48C,0.250000*%
G04 #@! TD*
G04 #@! TA.AperFunction,Conductor*
%ADD49C,1.500000*%
G04 #@! TD*
G04 #@! TA.AperFunction,Conductor*
%ADD50C,0.400000*%
G04 #@! TD*
G04 #@! TA.AperFunction,Conductor*
%ADD51C,0.240000*%
G04 #@! TD*
G04 APERTURE END LIST*
D10*
X136400000Y-80950000D03*
D11*
X130400000Y-78250000D03*
D10*
X131400000Y-80950000D03*
D11*
X137400000Y-78250000D03*
D12*
X87302944Y-144302944D03*
X89000000Y-143600000D03*
X91400000Y-146000000D03*
X90697056Y-147697056D03*
X87302944Y-147697056D03*
X89000000Y-148400000D03*
X86600000Y-146000000D03*
D13*
X89000000Y-146000000D03*
D12*
X90697056Y-144302944D03*
D14*
X144000000Y-115550000D03*
D15*
X144000000Y-112050000D03*
D16*
X111000000Y-147150000D03*
D17*
X116000000Y-147150000D03*
X121000000Y-147150000D03*
D18*
X100450000Y-81900000D03*
D19*
X97910000Y-81900000D03*
X95370000Y-81900000D03*
D12*
X141302944Y-144302944D03*
X144697056Y-144302944D03*
X143000000Y-143600000D03*
X141302944Y-147697056D03*
D13*
X143000000Y-146000000D03*
D12*
X140600000Y-146000000D03*
X145400000Y-146000000D03*
X144697056Y-147697056D03*
X143000000Y-148400000D03*
X141302944Y-84697056D03*
X141302944Y-81302944D03*
X143000000Y-80600000D03*
X144697056Y-81302944D03*
X143000000Y-85400000D03*
D13*
X143000000Y-83000000D03*
D12*
X140600000Y-83000000D03*
X144697056Y-84697056D03*
X145400000Y-83000000D03*
X90697056Y-84697056D03*
X89000000Y-80600000D03*
X90697056Y-81302944D03*
D13*
X89000000Y-83000000D03*
D12*
X91400000Y-83000000D03*
X89000000Y-85400000D03*
X86600000Y-83000000D03*
X87302944Y-81302944D03*
X87302944Y-84697056D03*
D20*
X108550000Y-102650000D03*
D21*
X122475000Y-116400000D03*
X120925000Y-116400000D03*
D20*
X122650000Y-102950000D03*
D22*
X128000000Y-101375000D03*
X128000000Y-99825000D03*
D23*
X98800000Y-133512500D03*
X98800000Y-127587500D03*
D21*
X123975000Y-125150000D03*
X122425000Y-125150000D03*
D24*
X110250000Y-114150000D03*
X106950000Y-114150000D03*
X136550000Y-114050000D03*
X133250000Y-114050000D03*
D25*
X110500000Y-101580000D03*
X110500000Y-100620000D03*
D26*
X136395000Y-128075000D03*
X137665000Y-128075000D03*
X138935000Y-128075000D03*
X140205000Y-128075000D03*
X140205000Y-133025000D03*
X138935000Y-133025000D03*
X137665000Y-133025000D03*
X136395000Y-133025000D03*
D27*
X105825000Y-99150000D03*
X107475000Y-99150000D03*
D28*
X122525000Y-119900000D03*
X120875000Y-119900000D03*
D20*
X114650000Y-106500000D03*
X122100000Y-100500000D03*
D27*
X129475000Y-94350000D03*
X131125000Y-94350000D03*
D21*
X139175000Y-116550000D03*
X137625000Y-116550000D03*
X111550000Y-125150000D03*
X110000000Y-125150000D03*
D29*
X109800000Y-123475000D03*
X109800000Y-121825000D03*
D27*
X126275000Y-94350000D03*
X127925000Y-94350000D03*
D20*
X127300000Y-95650000D03*
D28*
X110325000Y-119900000D03*
X108675000Y-119900000D03*
D22*
X124300000Y-101600000D03*
X124300000Y-100050000D03*
D30*
X125380000Y-101525000D03*
D31*
X125380000Y-100875000D03*
D32*
X126420000Y-100875000D03*
D33*
X126420000Y-101525000D03*
D34*
X125900000Y-101200000D03*
D20*
X121050000Y-107350000D03*
D27*
X137575000Y-119950000D03*
X139225000Y-119950000D03*
D28*
X122525000Y-118150000D03*
X120875000Y-118150000D03*
D23*
X133200000Y-133512500D03*
X133200000Y-127587500D03*
D29*
X122150000Y-123475000D03*
X122150000Y-121825000D03*
D35*
X131605000Y-92225000D03*
X130335000Y-92225000D03*
X129065000Y-92225000D03*
X127795000Y-92225000D03*
X127795000Y-87275000D03*
X129065000Y-87275000D03*
X130335000Y-87275000D03*
X131605000Y-87275000D03*
D36*
X95975000Y-107000000D03*
X97525000Y-107000000D03*
D20*
X116150000Y-103550000D03*
X118400000Y-109100000D03*
D37*
X139080000Y-135050000D03*
X138120000Y-135050000D03*
D38*
X93240000Y-134900000D03*
X94200000Y-134900000D03*
D27*
X136575000Y-121650000D03*
X138225000Y-121650000D03*
D26*
X91895000Y-128075000D03*
X93165000Y-128075000D03*
X94435000Y-128075000D03*
X95705000Y-128075000D03*
X95705000Y-133025000D03*
X94435000Y-133025000D03*
X93165000Y-133025000D03*
X91895000Y-133025000D03*
D21*
X110300000Y-116400000D03*
X108750000Y-116400000D03*
D20*
X123800000Y-105950000D03*
D28*
X110325000Y-118150000D03*
X108675000Y-118150000D03*
D24*
X122450000Y-114150000D03*
X119150000Y-114150000D03*
D21*
X107425000Y-100800000D03*
X105875000Y-100800000D03*
D25*
X111600000Y-101580000D03*
X111600000Y-100620000D03*
D21*
X97475000Y-125150000D03*
X95925000Y-125150000D03*
D27*
X137575000Y-118250000D03*
X139225000Y-118250000D03*
D39*
X118900000Y-102300000D03*
X100500000Y-79350000D03*
X106800000Y-79450000D03*
X119900000Y-108200000D03*
X113800000Y-79450000D03*
D40*
X120200000Y-79450000D03*
D39*
X99600000Y-88350000D03*
X138000000Y-146750000D03*
X134800000Y-117650000D03*
X89800000Y-90900000D03*
X86400000Y-117650000D03*
D40*
X126200000Y-100000000D03*
X125000000Y-99000000D03*
D39*
X97200000Y-90950000D03*
D40*
X139000000Y-99150000D03*
X142000000Y-97950000D03*
D39*
X107300000Y-81100000D03*
X126400000Y-114950000D03*
X134800000Y-120350000D03*
D40*
X140000000Y-100000000D03*
D39*
X102000000Y-116250000D03*
D41*
X118800000Y-108000000D03*
D39*
X107600000Y-114950000D03*
D42*
X118575000Y-99000000D03*
D39*
X114250000Y-114950000D03*
X138000000Y-147850000D03*
X118450000Y-114950000D03*
X133400000Y-120350000D03*
X136900000Y-144550000D03*
D41*
X99850000Y-109750000D03*
D39*
X136900000Y-146750000D03*
D40*
X132550000Y-95800000D03*
X125900000Y-98200000D03*
D41*
X113200000Y-107350500D03*
X111900000Y-103450000D03*
D39*
X95100000Y-147850000D03*
X94000000Y-144550000D03*
X129200000Y-116250000D03*
X134800000Y-115450000D03*
X111450000Y-114950000D03*
D41*
X94400000Y-126700000D03*
D39*
X123600000Y-119050000D03*
X92500000Y-92850000D03*
X102000000Y-119050000D03*
D40*
X138950000Y-100000000D03*
D39*
X135800000Y-145650000D03*
X103400000Y-117650000D03*
D41*
X137600000Y-135450000D03*
D42*
X97050000Y-106150000D03*
D39*
X103400000Y-114950000D03*
D41*
X94500000Y-102550000D03*
D39*
X111450000Y-119050000D03*
X100600000Y-116250000D03*
D41*
X122650000Y-104500000D03*
D39*
X114700000Y-82500000D03*
X115650000Y-117650000D03*
X94000000Y-146750000D03*
X106200000Y-114950000D03*
X99200000Y-117650000D03*
X125400000Y-94350000D03*
D41*
X94500000Y-100500000D03*
X94800000Y-134750000D03*
D39*
X129200000Y-109450000D03*
D41*
X105200000Y-101350000D03*
D39*
X107800000Y-82500000D03*
D40*
X140000000Y-99000000D03*
D42*
X123700000Y-91650000D03*
D40*
X141000000Y-97000000D03*
X110500000Y-100000000D03*
D39*
X93600000Y-121550000D03*
X135800000Y-146750000D03*
X137900000Y-130650000D03*
X84850000Y-100750000D03*
D40*
X141000000Y-98000000D03*
D41*
X113600000Y-111800500D03*
D39*
X130600000Y-117650000D03*
X109600000Y-128300000D03*
D40*
X107000000Y-92800000D03*
D39*
X112850000Y-114950000D03*
X96200000Y-147850000D03*
X96200000Y-146750000D03*
D40*
X132550000Y-94025000D03*
D39*
X107600000Y-119050000D03*
D41*
X92250000Y-101750000D03*
D39*
X126900000Y-150150000D03*
X123600000Y-116250000D03*
D40*
X142000000Y-95950000D03*
D42*
X117200000Y-111750000D03*
D39*
X106800000Y-82500000D03*
X121350000Y-87700000D03*
D40*
X132550000Y-93025000D03*
D39*
X136900000Y-147850000D03*
X135800000Y-147850000D03*
X118450000Y-119050000D03*
D40*
X91500000Y-108250000D03*
D39*
X145450000Y-104050000D03*
X124000000Y-80850000D03*
X118450000Y-117650000D03*
X116900000Y-150150000D03*
X119850000Y-119050000D03*
X106200000Y-117650000D03*
X123900000Y-111650000D03*
X112850000Y-117650000D03*
X127800000Y-114950000D03*
X111450000Y-117650000D03*
X113800000Y-82500000D03*
X133400000Y-119050000D03*
D40*
X102700000Y-101000000D03*
D39*
X104800000Y-114950000D03*
D40*
X94500000Y-111750000D03*
D39*
X116900000Y-85150000D03*
X136400000Y-130650000D03*
D40*
X124000000Y-99000000D03*
D39*
X112850000Y-119050000D03*
X137400000Y-122750000D03*
D42*
X121390414Y-112754769D03*
D39*
X132000000Y-116250000D03*
D40*
X137300000Y-104250000D03*
D39*
X127800000Y-116250000D03*
D41*
X93150000Y-126700000D03*
D39*
X108400000Y-89150000D03*
X135900000Y-119050000D03*
X132000000Y-113650000D03*
D40*
X104900000Y-95100000D03*
D39*
X119850000Y-117650000D03*
X130600000Y-114950000D03*
X118450000Y-116250000D03*
X125000000Y-117650000D03*
X126400000Y-117650000D03*
D41*
X138700000Y-126700000D03*
D39*
X100600000Y-114950000D03*
D40*
X142000000Y-96950000D03*
D39*
X134700000Y-146750000D03*
X94000000Y-147850000D03*
X133400000Y-115450000D03*
X94000000Y-145650000D03*
X107600000Y-120350000D03*
X86400000Y-132650000D03*
X127700000Y-111650000D03*
X132600000Y-82250000D03*
D40*
X92550000Y-110450000D03*
D39*
X126200000Y-104725000D03*
X97400000Y-150150000D03*
X138500000Y-125650000D03*
D40*
X93450000Y-109600000D03*
D41*
X92100000Y-103750000D03*
D39*
X131475498Y-85675000D03*
D41*
X101725000Y-103300000D03*
D40*
X91500000Y-111750000D03*
D39*
X103400000Y-116250000D03*
D41*
X117650000Y-104250000D03*
D39*
X109650000Y-126800000D03*
X94700000Y-121550000D03*
D41*
X137650000Y-126700000D03*
D39*
X97300000Y-146750000D03*
X97300000Y-147850000D03*
D41*
X88000000Y-108550000D03*
D40*
X138000000Y-99150000D03*
D39*
X117050000Y-117650000D03*
X133400000Y-117650000D03*
D41*
X105150000Y-103500000D03*
X114150000Y-104100000D03*
D40*
X132550000Y-94800000D03*
X121800000Y-109150000D03*
D39*
X99200000Y-93450000D03*
D40*
X126800000Y-98200000D03*
D39*
X137400000Y-125650000D03*
X132000000Y-114950000D03*
X90700000Y-117600000D03*
D41*
X88824066Y-103000000D03*
D39*
X102400000Y-150150000D03*
X100600000Y-117650000D03*
D42*
X120300000Y-112350000D03*
D39*
X125000000Y-116250000D03*
X96200000Y-144550000D03*
D41*
X94050000Y-119250000D03*
D39*
X136150000Y-117650000D03*
X144400000Y-150150000D03*
X107600000Y-116250000D03*
X99200000Y-119050000D03*
D41*
X138550000Y-120450000D03*
D39*
X126400000Y-113650000D03*
X138500000Y-122750000D03*
D41*
X115715334Y-107965334D03*
D39*
X136900000Y-145650000D03*
D40*
X140000000Y-97000000D03*
D39*
X92400000Y-150150000D03*
X86400000Y-127650000D03*
X122050000Y-126850000D03*
X104400000Y-86650000D03*
X122000000Y-128400000D03*
D40*
X126900000Y-99000000D03*
D39*
X138500000Y-123850000D03*
X95100000Y-144550000D03*
D40*
X105900000Y-95600000D03*
D39*
X125000000Y-114950000D03*
X129200000Y-114950000D03*
X95800000Y-122650000D03*
X138000000Y-145650000D03*
D41*
X121150000Y-105200000D03*
D39*
X92500000Y-123750000D03*
D40*
X140000000Y-96000000D03*
D39*
X132000000Y-119050000D03*
X127800000Y-117650000D03*
D41*
X110450000Y-107350500D03*
D39*
X93600000Y-122650000D03*
X119850000Y-114950000D03*
D40*
X142000000Y-99950000D03*
X140000000Y-98000000D03*
X125100000Y-100000000D03*
D39*
X136150000Y-115450000D03*
D40*
X142000000Y-98950000D03*
X141000000Y-99000000D03*
D39*
X134400000Y-150150000D03*
D40*
X109050000Y-92850000D03*
D41*
X117250000Y-107550500D03*
D39*
X112850000Y-116250000D03*
X139400000Y-150150000D03*
D40*
X132750000Y-97750000D03*
D39*
X84850000Y-98900000D03*
X94700000Y-123750000D03*
X105800000Y-82500000D03*
D41*
X88000000Y-104300000D03*
D39*
X119850000Y-120350000D03*
X93600000Y-123750000D03*
D40*
X92550000Y-109600000D03*
D39*
X121900000Y-150150000D03*
X95100000Y-145650000D03*
D40*
X123500000Y-100000000D03*
D39*
X114250000Y-116250000D03*
D40*
X93450000Y-110450000D03*
D39*
X92750000Y-117600000D03*
D40*
X141000000Y-96000000D03*
X131750000Y-97750000D03*
D39*
X94700000Y-122650000D03*
X127000000Y-92750000D03*
X136100000Y-120350000D03*
X123600000Y-117650000D03*
D40*
X107000000Y-92100000D03*
D39*
X107600000Y-117650000D03*
D40*
X127190000Y-100000000D03*
X138900000Y-86850000D03*
D39*
X117050000Y-116250000D03*
D40*
X137900000Y-90250000D03*
D39*
X134700000Y-147850000D03*
X86400000Y-137650000D03*
X114250000Y-117650000D03*
D40*
X124000000Y-98200000D03*
D39*
X123600000Y-114950000D03*
X137400000Y-123850000D03*
X92500000Y-121550000D03*
X129200000Y-113650000D03*
X130600000Y-116250000D03*
D42*
X117200000Y-97150000D03*
D39*
X126400000Y-119050000D03*
X95800000Y-123750000D03*
X104400000Y-89150000D03*
X136300000Y-123850000D03*
X138000000Y-144550000D03*
X104800000Y-116250000D03*
D40*
X138000000Y-100000000D03*
D39*
X117050000Y-114950000D03*
D41*
X105500000Y-114350000D03*
D39*
X123600000Y-113650000D03*
D41*
X95400000Y-117550000D03*
X95700000Y-126700000D03*
D39*
X130600000Y-113650000D03*
X102000000Y-117650000D03*
D41*
X91550000Y-102350000D03*
X101575000Y-101975000D03*
D39*
X99200000Y-116250000D03*
D41*
X87950000Y-109950000D03*
D40*
X141000000Y-100000000D03*
D39*
X125000000Y-113650000D03*
D41*
X94550000Y-103750000D03*
D39*
X108400000Y-86650000D03*
X136300000Y-125650000D03*
X99200000Y-114950000D03*
D40*
X122300000Y-97670000D03*
X111600000Y-100000000D03*
D39*
X92500000Y-122650000D03*
X95000000Y-125150000D03*
X115650000Y-116250000D03*
X134400000Y-130650000D03*
D40*
X130250000Y-101850000D03*
D41*
X122400000Y-106100000D03*
D42*
X126300000Y-91650000D03*
D39*
X135800000Y-144550000D03*
X97300000Y-145650000D03*
D41*
X90850000Y-103750000D03*
D39*
X125000000Y-119050000D03*
X100600000Y-119050000D03*
X86400000Y-122650000D03*
X126400000Y-116250000D03*
X102000000Y-114950000D03*
X95100000Y-146750000D03*
X115650000Y-114950000D03*
D42*
X112250000Y-112900000D03*
D39*
X129200000Y-117650000D03*
X104800000Y-117650000D03*
X106200000Y-116250000D03*
X97200000Y-94750000D03*
D40*
X125000000Y-98200000D03*
X125900000Y-99000000D03*
D41*
X88250000Y-110900000D03*
D39*
X111900000Y-150150000D03*
X96200000Y-145650000D03*
X107400000Y-150150000D03*
X136300000Y-122750000D03*
X127800000Y-113650000D03*
X132000000Y-117650000D03*
X95800000Y-121550000D03*
X134700000Y-145650000D03*
D40*
X94500000Y-108250000D03*
D39*
X99600000Y-89550000D03*
X119850000Y-116250000D03*
X111450000Y-116250000D03*
X132000000Y-120350000D03*
X125650000Y-107650000D03*
X136300000Y-91150000D03*
D42*
X128509215Y-103013967D03*
D39*
X134800000Y-91150000D03*
X105200000Y-79100000D03*
X129650000Y-79850000D03*
X145300000Y-92100000D03*
X130050000Y-95750000D03*
X135400000Y-103600000D03*
X145500000Y-98350000D03*
X130050000Y-97150000D03*
X134800000Y-92550000D03*
X128650000Y-97150000D03*
X129000000Y-101100000D03*
X86900000Y-89700000D03*
X131722205Y-89150000D03*
X92250000Y-87000000D03*
X129200000Y-105750000D03*
X136300000Y-92550000D03*
X128650000Y-95750000D03*
X115300000Y-79100000D03*
X84500000Y-140000000D03*
X125100009Y-103398531D03*
D42*
X92600000Y-137050000D03*
D39*
X146700000Y-139950000D03*
D41*
X110510184Y-102158709D03*
X92750000Y-135300000D03*
D39*
X98750000Y-96900000D03*
D41*
X116900000Y-100400000D03*
D39*
X97750000Y-96200000D03*
D41*
X116900000Y-99450000D03*
D39*
X131300000Y-100900000D03*
X122050000Y-136450000D03*
X123300000Y-135750000D03*
X145400000Y-120150000D03*
X109950000Y-135050000D03*
X132300000Y-100900000D03*
X108700000Y-134350000D03*
X108700000Y-132950000D03*
X109950000Y-136450000D03*
X137650000Y-139900000D03*
X91900000Y-138650000D03*
X109950000Y-133650000D03*
X140650000Y-142150000D03*
X143900000Y-121650000D03*
X141900000Y-133650000D03*
X142400000Y-123200000D03*
X89400000Y-134150000D03*
X87050000Y-107250000D03*
X147850000Y-117550000D03*
X91900000Y-140400000D03*
X142400000Y-121650000D03*
X94150000Y-142150000D03*
D42*
X95200000Y-106574500D03*
D39*
X91900000Y-142150000D03*
X140650000Y-137900000D03*
X143900000Y-118650000D03*
X125800000Y-134350000D03*
X125800000Y-135750000D03*
X106200000Y-135750000D03*
X94150000Y-140400000D03*
X106200000Y-134350000D03*
X140650000Y-139900000D03*
X107450000Y-136450000D03*
X108700000Y-131550000D03*
X124550000Y-137850000D03*
X133300000Y-100900000D03*
X123300000Y-131550000D03*
X145400000Y-121650000D03*
X108700000Y-135750000D03*
X107450000Y-137850000D03*
X137650000Y-142150000D03*
X125800000Y-137150000D03*
X89400000Y-132650000D03*
X141900000Y-131150000D03*
X144450000Y-133650000D03*
X107450000Y-133650000D03*
X122050000Y-137850000D03*
X142400000Y-120150000D03*
X125800000Y-131550000D03*
X124550000Y-132250000D03*
X142400000Y-118650000D03*
X106200000Y-132950000D03*
X109950000Y-137850000D03*
X137650000Y-137900000D03*
X122050000Y-133650000D03*
X106200000Y-131550000D03*
X144450000Y-131150000D03*
X124550000Y-133650000D03*
X147150000Y-131150000D03*
X143900000Y-123200000D03*
X124550000Y-136450000D03*
X107450000Y-132250000D03*
X123300000Y-132950000D03*
X123300000Y-134350000D03*
X125800000Y-132950000D03*
X124550000Y-135050000D03*
X94150000Y-138650000D03*
X87900000Y-115250000D03*
X89400000Y-131250000D03*
X123300000Y-137150000D03*
X147150000Y-133650000D03*
X143900000Y-120150000D03*
X147850000Y-115150000D03*
X122050000Y-135050000D03*
X145400000Y-118650000D03*
X147850000Y-116350000D03*
X107450000Y-135050000D03*
X106200000Y-137150000D03*
X108700000Y-137150000D03*
X145400000Y-123200000D03*
X117600000Y-125850000D03*
X117600000Y-124450000D03*
X113400000Y-125850000D03*
X113400000Y-127250000D03*
X120400000Y-125850000D03*
X119000000Y-127250000D03*
X120400000Y-123050000D03*
X114800000Y-127250000D03*
X119000000Y-123050000D03*
X116200000Y-121650000D03*
X114800000Y-125850000D03*
X119000000Y-130050000D03*
X113400000Y-121650000D03*
X113400000Y-128650000D03*
X119000000Y-128650000D03*
X119000000Y-121650000D03*
X112000000Y-123050000D03*
X119000000Y-125850000D03*
X114800000Y-123050000D03*
X119000000Y-124450000D03*
X116200000Y-123050000D03*
X113400000Y-123050000D03*
X116200000Y-124450000D03*
X117600000Y-123050000D03*
X120400000Y-127250000D03*
X112000000Y-127250000D03*
X112000000Y-121650000D03*
X113400000Y-124450000D03*
X120400000Y-128650000D03*
X112000000Y-128650000D03*
X116200000Y-127250000D03*
X114800000Y-121650000D03*
X117600000Y-127250000D03*
X120400000Y-121650000D03*
X112000000Y-124450000D03*
X120400000Y-124450000D03*
X117600000Y-121650000D03*
X116200000Y-125850000D03*
X114800000Y-124450000D03*
X120400000Y-130050000D03*
X112000000Y-125850000D03*
D41*
X115600000Y-96574500D03*
X123450000Y-87350000D03*
D39*
X133100000Y-88350000D03*
X113600000Y-98150000D03*
D41*
X121500000Y-85450000D03*
X113100000Y-96900000D03*
X92600000Y-102500000D03*
X104500000Y-104000000D03*
X90700000Y-102300000D03*
X102500000Y-103100000D03*
X89600000Y-102600000D03*
X102400000Y-102150000D03*
D39*
X111000000Y-103650000D03*
D41*
X92400000Y-105000000D03*
X114000000Y-107100000D03*
X116800936Y-104203096D03*
X90023077Y-103976923D03*
X87700000Y-105050500D03*
X113300000Y-104325000D03*
X115150000Y-107400000D03*
X87850000Y-107750000D03*
X116450000Y-107550500D03*
X88625500Y-109500000D03*
X88800000Y-111500000D03*
X118050000Y-107550000D03*
X120800000Y-104450000D03*
D42*
X116650000Y-111100000D03*
D40*
X121800000Y-108250000D03*
D41*
X122700000Y-105350000D03*
X122550000Y-103700000D03*
D42*
X125425000Y-91650000D03*
X117941540Y-98425000D03*
X117941540Y-97575000D03*
X124575000Y-91650000D03*
D41*
X110800000Y-80800000D03*
X114000000Y-86600000D03*
X114600000Y-88500000D03*
X120300000Y-83600000D03*
X109700000Y-80800000D03*
X113050000Y-88400000D03*
X108700000Y-80800000D03*
X111500000Y-87000000D03*
X105500000Y-113550000D03*
X97200000Y-112150000D03*
D39*
X131100000Y-124450000D03*
X124100000Y-127250000D03*
X128300000Y-127250000D03*
D42*
X121475498Y-113600000D03*
D39*
X131100000Y-121650000D03*
X125500000Y-125850000D03*
X129700000Y-125850000D03*
D42*
X111828529Y-112162425D03*
D39*
X125500000Y-123050000D03*
X131100000Y-125850000D03*
X132500000Y-124450000D03*
X126900000Y-125850000D03*
X129700000Y-121650000D03*
X132500000Y-121650000D03*
X126900000Y-127250000D03*
X128300000Y-121650000D03*
X125500000Y-128650000D03*
X124100000Y-123050000D03*
X133900000Y-123050000D03*
X124100000Y-125850000D03*
X128300000Y-123050000D03*
X129700000Y-124450000D03*
X131100000Y-127250000D03*
X132500000Y-123050000D03*
X126900000Y-123050000D03*
X133900000Y-125850000D03*
X125500000Y-121650000D03*
X128300000Y-125850000D03*
X125500000Y-127250000D03*
X133900000Y-124450000D03*
X124100000Y-128650000D03*
X125500000Y-124450000D03*
X124100000Y-121650000D03*
X124100000Y-124450000D03*
X126900000Y-121650000D03*
X129700000Y-127250000D03*
X133900000Y-121650000D03*
X129700000Y-123050000D03*
X126900000Y-124450000D03*
X128300000Y-124450000D03*
X131100000Y-123050000D03*
X132500000Y-125850000D03*
D42*
X119400000Y-112375000D03*
D41*
X100700000Y-109900000D03*
X115275000Y-104150000D03*
X90500000Y-113500000D03*
X94700000Y-114000000D03*
X94700000Y-118700000D03*
D39*
X127700000Y-110550000D03*
D40*
X89550000Y-112800000D03*
X95850000Y-105800000D03*
D39*
X103700000Y-127250000D03*
X100900000Y-124450000D03*
X102300000Y-123050000D03*
X99500000Y-121650000D03*
X106500000Y-124450000D03*
X102300000Y-127250000D03*
X99500000Y-124450000D03*
X98100000Y-124450000D03*
X99500000Y-125850000D03*
X107900000Y-127250000D03*
X98100000Y-125850000D03*
X105100000Y-125850000D03*
X107900000Y-121650000D03*
X105100000Y-123050000D03*
X102300000Y-124450000D03*
X107900000Y-125850000D03*
X100900000Y-123050000D03*
X103700000Y-124450000D03*
X107900000Y-123050000D03*
X100900000Y-125850000D03*
X98100000Y-123050000D03*
X103700000Y-123050000D03*
X105100000Y-127250000D03*
X105100000Y-121650000D03*
X105100000Y-124450000D03*
D41*
X95650000Y-116650000D03*
D39*
X106500000Y-127250000D03*
X103700000Y-125850000D03*
X107900000Y-130050000D03*
X106500000Y-121650000D03*
X102300000Y-125850000D03*
X106500000Y-125850000D03*
X107900000Y-124450000D03*
X103700000Y-121650000D03*
X100900000Y-121650000D03*
X107900000Y-128650000D03*
X99500000Y-123050000D03*
X98100000Y-121650000D03*
X106500000Y-123050000D03*
X102300000Y-121650000D03*
D42*
X131600000Y-90750000D03*
D43*
X119200000Y-102600000D02*
X119200000Y-105200000D01*
D44*
X120200000Y-79450000D02*
X119700489Y-79949511D01*
X113600000Y-79650000D02*
X107000000Y-79650000D01*
X106800000Y-79450000D02*
X106250000Y-80000000D01*
X114299511Y-79949511D02*
X113800000Y-79450000D01*
D43*
X119900000Y-105900000D02*
X119900000Y-108200000D01*
D44*
X107000000Y-79650000D02*
X106800000Y-79450000D01*
D43*
X119200000Y-105200000D02*
X119900000Y-105900000D01*
D44*
X106250000Y-80000000D02*
X101150000Y-80000000D01*
X101150000Y-80000000D02*
X100500000Y-79350000D01*
D43*
X118900000Y-102300000D02*
X119200000Y-102600000D01*
D44*
X119700489Y-79949511D02*
X114299511Y-79949511D01*
X113800000Y-79450000D02*
X113600000Y-79650000D01*
X110980000Y-100620000D02*
X111600000Y-100000000D01*
X105750000Y-100800000D02*
X105200000Y-101350000D01*
X110500000Y-100000000D02*
X111600000Y-100000000D01*
X111600000Y-100620000D02*
X111600000Y-100000000D01*
X105875000Y-100800000D02*
X105750000Y-100800000D01*
X94650000Y-134900000D02*
X94800000Y-134750000D01*
X95925000Y-125150000D02*
X95000000Y-125150000D01*
X138550000Y-120450000D02*
X138725000Y-120450000D01*
X111600000Y-100620000D02*
X111120000Y-100620000D01*
X125400000Y-94350000D02*
X126275000Y-94350000D01*
X97525000Y-107000000D02*
X97525000Y-106625000D01*
X94200000Y-134900000D02*
X94650000Y-134900000D01*
X137600000Y-135450000D02*
X137720000Y-135450000D01*
X137720000Y-135450000D02*
X138120000Y-135050000D01*
X138725000Y-120450000D02*
X139225000Y-119950000D01*
X110500000Y-100620000D02*
X110980000Y-100620000D01*
X110500000Y-100620000D02*
X111600000Y-100620000D01*
X127270000Y-92750000D02*
X127795000Y-92225000D01*
X97525000Y-106625000D02*
X97050000Y-106150000D01*
X127000000Y-92750000D02*
X127270000Y-92750000D01*
X111120000Y-100620000D02*
X110500000Y-100000000D01*
X110500000Y-100620000D02*
X110500000Y-100000000D01*
D45*
X131722205Y-89150000D02*
X130335000Y-90537205D01*
X131722205Y-89150000D02*
X131605000Y-89032795D01*
X130335000Y-90537205D02*
X130335000Y-92225000D01*
X131722205Y-89150000D02*
X129258573Y-89150000D01*
X127795000Y-87686427D02*
X127795000Y-87275000D01*
X131605000Y-89032795D02*
X131605000Y-87275000D01*
X129258573Y-89150000D02*
X127795000Y-87686427D01*
D44*
X144450000Y-139950000D02*
X139550000Y-135050000D01*
X91750000Y-137050000D02*
X88900000Y-139900000D01*
X111600000Y-101580000D02*
X111620000Y-101600000D01*
D46*
X124300000Y-102598522D02*
X124300000Y-101600000D01*
D44*
X113250000Y-101350000D02*
X122100000Y-101350000D01*
X139550000Y-135050000D02*
X139080000Y-135050000D01*
X110510184Y-101590184D02*
X110500000Y-101580000D01*
X110510184Y-102158709D02*
X110510184Y-101590184D01*
X122100000Y-101350000D02*
X124050000Y-101350000D01*
D47*
X122100000Y-100250000D02*
X122100000Y-101350000D01*
D44*
X124050000Y-101350000D02*
X124300000Y-101600000D01*
X146700000Y-139950000D02*
X144450000Y-139950000D01*
X84600000Y-139900000D02*
X84500000Y-140000000D01*
X113000000Y-101600000D02*
X113250000Y-101350000D01*
X111600000Y-101580000D02*
X110500000Y-101580000D01*
D46*
X125100009Y-103398531D02*
X124300000Y-102598522D01*
D44*
X92600000Y-137050000D02*
X91750000Y-137050000D01*
X111620000Y-101600000D02*
X113000000Y-101600000D01*
X88900000Y-139900000D02*
X84600000Y-139900000D01*
D48*
X98850000Y-97000000D02*
X109800000Y-97000000D01*
X98750000Y-96900000D02*
X98850000Y-97000000D01*
X109800000Y-97000000D02*
X113200000Y-100400000D01*
X113200000Y-100400000D02*
X116900000Y-100400000D01*
X113500000Y-99450000D02*
X110324511Y-96274511D01*
X110324511Y-96274511D02*
X104620607Y-96274511D01*
X116900000Y-99450000D02*
X113500000Y-99450000D01*
X104446096Y-96100000D02*
X97850000Y-96100000D01*
X104620607Y-96274511D02*
X104446096Y-96100000D01*
X97850000Y-96100000D02*
X97750000Y-96200000D01*
D49*
X145300000Y-101350000D02*
X136400000Y-101350000D01*
D50*
X95124500Y-106650000D02*
X87650000Y-106650000D01*
D45*
X131300000Y-100300000D02*
X131300000Y-100900000D01*
D44*
X88000000Y-129850000D02*
X89400000Y-131250000D01*
D50*
X95975000Y-107000000D02*
X95625500Y-107000000D01*
X95625500Y-107000000D02*
X95200000Y-106574500D01*
D49*
X147850000Y-117550000D02*
X147850000Y-103900000D01*
X136400000Y-101350000D02*
X135950000Y-100900000D01*
X135950000Y-100900000D02*
X131300000Y-100900000D01*
D45*
X131125000Y-94350000D02*
X130800489Y-94674511D01*
D44*
X88000000Y-115350000D02*
X88000000Y-129850000D01*
D49*
X147850000Y-103900000D02*
X145300000Y-101350000D01*
D50*
X87650000Y-106650000D02*
X87050000Y-107250000D01*
D45*
X130800489Y-99800489D02*
X131300000Y-100300000D01*
X130800489Y-94674511D02*
X130800489Y-99800489D01*
D44*
X87900000Y-115250000D02*
X88000000Y-115350000D01*
D50*
X95200000Y-106574500D02*
X95124500Y-106650000D01*
D45*
X136395000Y-133025000D02*
X136395000Y-131745000D01*
X136395000Y-131745000D02*
X136100000Y-131450000D01*
X133200000Y-132250000D02*
X133200000Y-133512500D01*
X134000000Y-131450000D02*
X133200000Y-132250000D01*
X136100000Y-131450000D02*
X134000000Y-131450000D01*
X120825000Y-123475000D02*
X120400000Y-123050000D01*
X122150000Y-123475000D02*
X120825000Y-123475000D01*
X98800000Y-132550000D02*
X98800000Y-133512500D01*
X97650000Y-131400000D02*
X98800000Y-132550000D01*
X91895000Y-133025000D02*
X91895000Y-132155000D01*
X92650000Y-131400000D02*
X97650000Y-131400000D01*
X91895000Y-132155000D02*
X92650000Y-131400000D01*
D47*
X115600000Y-94950000D02*
X115600000Y-96574500D01*
X123450000Y-87350000D02*
X123200000Y-87350000D01*
X123200000Y-87350000D02*
X115600000Y-94950000D01*
X132000000Y-84750000D02*
X127500000Y-84750000D01*
X133000000Y-88250000D02*
X133000000Y-85750000D01*
X127500000Y-84750000D02*
X116199511Y-96050489D01*
X116199511Y-96050489D02*
X116199511Y-96822827D01*
X133100000Y-88350000D02*
X133000000Y-88250000D01*
X114872338Y-98150000D02*
X113600000Y-98150000D01*
X133000000Y-85750000D02*
X132000000Y-84750000D01*
X116199511Y-96822827D02*
X114872338Y-98150000D01*
X121500000Y-85500000D02*
X113100000Y-93900000D01*
X113100000Y-93900000D02*
X113100000Y-96900000D01*
X121500000Y-85450000D02*
X121500000Y-85500000D01*
X98950000Y-102000000D02*
X94797838Y-102000000D01*
X93149511Y-101950489D02*
X92600000Y-102500000D01*
X94748327Y-101950489D02*
X93149511Y-101950489D01*
X104500000Y-104000000D02*
X104400000Y-103900000D01*
X104400000Y-103900000D02*
X100850000Y-103900000D01*
X94797838Y-102000000D02*
X94748327Y-101950489D01*
X100850000Y-103900000D02*
X98950000Y-102000000D01*
X91900000Y-101100000D02*
X90700000Y-102300000D01*
X101174511Y-102574511D02*
X99700000Y-101100000D01*
X102500000Y-103100000D02*
X102475000Y-103100000D01*
X101949511Y-102574511D02*
X101174511Y-102574511D01*
X102475000Y-103100000D02*
X101949511Y-102574511D01*
X99700000Y-101100000D02*
X91900000Y-101100000D01*
X102400000Y-101875000D02*
X100425000Y-99900000D01*
X89600000Y-102050000D02*
X89600000Y-102600000D01*
X100425000Y-99900000D02*
X91750000Y-99900000D01*
X91750000Y-99900000D02*
X89600000Y-102050000D01*
X102400000Y-102150000D02*
X102400000Y-101875000D01*
D45*
X107700000Y-100800000D02*
X107425000Y-100800000D01*
D44*
X107475000Y-100750000D02*
X107425000Y-100800000D01*
D47*
X109025000Y-102175000D02*
X109075000Y-102175000D01*
D45*
X109075000Y-102175000D02*
X107700000Y-100800000D01*
D44*
X107475000Y-99150000D02*
X107475000Y-100750000D01*
D45*
X111000000Y-103650000D02*
X110550000Y-103650000D01*
X110550000Y-103650000D02*
X109075000Y-102175000D01*
D47*
X108550000Y-102650000D02*
X109025000Y-102175000D01*
X114050000Y-107100000D02*
X114650000Y-106500000D01*
X110201673Y-106750989D02*
X113650989Y-106750989D01*
X114000000Y-107100000D02*
X114050000Y-107100000D01*
X92550000Y-105150000D02*
X97150000Y-105150000D01*
X113650989Y-106750989D02*
X114000000Y-107100000D01*
X110102662Y-106850000D02*
X110201673Y-106750989D01*
X97150000Y-105150000D02*
X98850000Y-106850000D01*
X98850000Y-106850000D02*
X110102662Y-106850000D01*
X92400000Y-105000000D02*
X92550000Y-105150000D01*
X90395665Y-104349511D02*
X90023077Y-103976923D01*
X116800936Y-104200936D02*
X116150000Y-103550000D01*
X114369320Y-105650000D02*
X114169320Y-105850000D01*
X116800936Y-104203096D02*
X116800936Y-104200936D01*
X116800936Y-104203096D02*
X115354032Y-105650000D01*
X97949511Y-104349511D02*
X90395665Y-104349511D01*
X114169320Y-105850000D02*
X99450000Y-105850000D01*
X115354032Y-105650000D02*
X114369320Y-105650000D01*
X99450000Y-105850000D02*
X97949511Y-104349511D01*
X89999511Y-103150489D02*
X88099500Y-105050500D01*
X112725000Y-104900000D02*
X100250000Y-104900000D01*
X88099500Y-105050500D02*
X87700000Y-105050500D01*
X98500489Y-103150489D02*
X89999511Y-103150489D01*
X100250000Y-104900000D02*
X98500489Y-103150489D01*
X113300000Y-104325000D02*
X112725000Y-104900000D01*
X87999511Y-107600489D02*
X87850000Y-107750000D01*
X94769037Y-107600489D02*
X87999511Y-107600489D01*
X95118548Y-107950000D02*
X94769037Y-107600489D01*
X114600000Y-107950000D02*
X95118548Y-107950000D01*
X115150000Y-107400000D02*
X114600000Y-107950000D01*
X116450000Y-108200000D02*
X116085155Y-108564845D01*
X97400000Y-108950000D02*
X89175500Y-108950000D01*
X97800000Y-108550000D02*
X97400000Y-108950000D01*
X116450000Y-107550500D02*
X116450000Y-108200000D01*
X115467007Y-108564845D02*
X115452162Y-108550000D01*
X115452162Y-108550000D02*
X97800000Y-108550000D01*
X89175500Y-108950000D02*
X88625500Y-109500000D01*
X116085155Y-108564845D02*
X115467007Y-108564845D01*
X101000000Y-109150000D02*
X99102162Y-109150000D01*
X97502162Y-110750000D02*
X94118548Y-110750000D01*
X117875000Y-108625000D02*
X117050000Y-109450000D01*
X94118548Y-110750000D02*
X93769037Y-111099511D01*
X118400000Y-109100000D02*
X117925000Y-108625000D01*
X117925000Y-108625000D02*
X117875000Y-108625000D01*
X101300000Y-109450000D02*
X101000000Y-109150000D01*
X118050000Y-107550000D02*
X118050000Y-108450000D01*
X99102162Y-109150000D02*
X97502162Y-110750000D01*
X93769037Y-111099511D02*
X89200489Y-111099511D01*
X118050000Y-108450000D02*
X117875000Y-108625000D01*
X117050000Y-109450000D02*
X101300000Y-109450000D01*
X89200489Y-111099511D02*
X88800000Y-111500000D01*
X116650000Y-111100000D02*
X116550000Y-111200000D01*
X120800000Y-104450000D02*
X121500000Y-104450000D01*
X111000000Y-111200000D02*
X110300000Y-111900000D01*
X121500000Y-104450000D02*
X121800000Y-104750000D01*
D44*
X108675000Y-118025000D02*
X110300000Y-116400000D01*
X108675000Y-118150000D02*
X108675000Y-118025000D01*
D47*
X121800000Y-107350000D02*
X121050000Y-107350000D01*
X121800000Y-107350000D02*
X121800000Y-108250000D01*
X121800000Y-104750000D02*
X121800000Y-107350000D01*
X116550000Y-111200000D02*
X111000000Y-111200000D01*
X110300000Y-111900000D02*
X110300000Y-116150000D01*
X123150000Y-105950000D02*
X123100000Y-105900000D01*
X123100000Y-105900000D02*
X123100000Y-108300000D01*
D44*
X120875000Y-118000000D02*
X122475000Y-116400000D01*
X120875000Y-118150000D02*
X120875000Y-118000000D01*
D47*
X122450000Y-108950000D02*
X122450000Y-116375000D01*
X123800000Y-105950000D02*
X123150000Y-105950000D01*
X123100000Y-108300000D02*
X122450000Y-108950000D01*
X123100000Y-105750000D02*
X123100000Y-105900000D01*
X122450000Y-116375000D02*
X122475000Y-116400000D01*
X122700000Y-105350000D02*
X123100000Y-105750000D01*
X122550000Y-103700000D02*
X122550000Y-103050000D01*
X136900000Y-114050000D02*
X139175000Y-116325000D01*
X122550000Y-103700000D02*
X122850000Y-103700000D01*
X124900000Y-110850000D02*
X126500000Y-112450000D01*
X122850000Y-103700000D02*
X124900000Y-105750000D01*
X139175000Y-116325000D02*
X139175000Y-116550000D01*
X124900000Y-105750000D02*
X124900000Y-110850000D01*
X136550000Y-114050000D02*
X136900000Y-114050000D01*
D44*
X139225000Y-116600000D02*
X139175000Y-116550000D01*
D47*
X122550000Y-103050000D02*
X122650000Y-102950000D01*
X136550000Y-113100000D02*
X136550000Y-114050000D01*
X126500000Y-112450000D02*
X135900000Y-112450000D01*
X135900000Y-112450000D02*
X136550000Y-113100000D01*
D44*
X139225000Y-118250000D02*
X139225000Y-116600000D01*
D51*
X117941540Y-98425000D02*
X118146540Y-98220000D01*
X125220000Y-91855000D02*
X125425000Y-91650000D01*
X118146540Y-98220000D02*
X119991128Y-98220000D01*
X125220000Y-92991128D02*
X125220000Y-91855000D01*
X119991128Y-98220000D02*
X125220000Y-92991128D01*
X124780000Y-91855000D02*
X124575000Y-91650000D01*
X119808872Y-97780000D02*
X124780000Y-92808872D01*
X118146540Y-97780000D02*
X119808872Y-97780000D01*
X117941540Y-97575000D02*
X118146540Y-97780000D01*
X124780000Y-92808872D02*
X124780000Y-91855000D01*
D47*
X114100000Y-84100000D02*
X110800000Y-80800000D01*
X114100000Y-86500000D02*
X114100000Y-84100000D01*
X114000000Y-86600000D02*
X114100000Y-86500000D01*
X116250000Y-88500000D02*
X120300000Y-84450000D01*
X120300000Y-84450000D02*
X120300000Y-83600000D01*
X114600000Y-88500000D02*
X116250000Y-88500000D01*
X113050000Y-88400000D02*
X112500000Y-87850000D01*
X112500000Y-87850000D02*
X112500000Y-84250000D01*
X112500000Y-84250000D02*
X109700000Y-81450000D01*
X109700000Y-81450000D02*
X109700000Y-80800000D01*
X111500000Y-85500000D02*
X108700000Y-82700000D01*
X111500000Y-87000000D02*
X111500000Y-85500000D01*
X108700000Y-82700000D02*
X108700000Y-80800000D01*
X97200000Y-112150000D02*
X98650000Y-113600000D01*
X105450000Y-113600000D02*
X105500000Y-113550000D01*
X98650000Y-113600000D02*
X105450000Y-113600000D01*
D45*
X136395000Y-129355000D02*
X136100000Y-129650000D01*
X133200000Y-128850000D02*
X133200000Y-127587500D01*
X111828529Y-112162425D02*
X111575489Y-112415465D01*
X136395000Y-128075000D02*
X136395000Y-129355000D01*
X111970607Y-113574511D02*
X113125489Y-113574511D01*
X121023048Y-113600000D02*
X121416807Y-113600000D01*
X111575489Y-112415465D02*
X111575489Y-113179393D01*
X120623048Y-113200000D02*
X121023048Y-113600000D01*
X134000000Y-129650000D02*
X133200000Y-128850000D01*
D47*
X121416807Y-113600000D02*
X121475498Y-113600000D01*
D45*
X136575000Y-121650000D02*
X134900000Y-121650000D01*
X113125489Y-113574511D02*
X113500000Y-113200000D01*
X113500000Y-113200000D02*
X120623048Y-113200000D01*
X136100000Y-129650000D02*
X134000000Y-129650000D01*
X111575489Y-113179393D02*
X111970607Y-113574511D01*
D47*
X119400000Y-112375000D02*
X117375000Y-110350000D01*
X117375000Y-110350000D02*
X101150000Y-110350000D01*
X101150000Y-110350000D02*
X100700000Y-109900000D01*
X85200000Y-106350000D02*
X87400489Y-104149511D01*
X85200000Y-112050000D02*
X85200000Y-106350000D01*
X109725000Y-103875000D02*
X110249511Y-104399511D01*
X102100000Y-99250000D02*
X106725000Y-103875000D01*
X87400489Y-103149511D02*
X91300000Y-99250000D01*
X110249511Y-104399511D02*
X112075489Y-104399511D01*
X112974511Y-103500489D02*
X114675489Y-103500489D01*
X87400489Y-104149511D02*
X87400489Y-103149511D01*
X114675489Y-103500489D02*
X115275000Y-104100000D01*
X90450000Y-113550000D02*
X86700000Y-113550000D01*
X106725000Y-103875000D02*
X109725000Y-103875000D01*
X91300000Y-99250000D02*
X102100000Y-99250000D01*
X90500000Y-113500000D02*
X90450000Y-113550000D01*
X86700000Y-113550000D02*
X85200000Y-112050000D01*
X112075489Y-104399511D02*
X112974511Y-103500489D01*
D48*
X94700000Y-118700000D02*
X94700000Y-114000000D01*
D44*
X136500000Y-110650000D02*
X141150000Y-115300000D01*
X127800000Y-110650000D02*
X136500000Y-110650000D01*
X140205000Y-131595000D02*
X140205000Y-133025000D01*
X127700000Y-110550000D02*
X127800000Y-110650000D01*
X141150000Y-115300000D02*
X141150000Y-130650000D01*
X141150000Y-130650000D02*
X140205000Y-131595000D01*
X87400000Y-136150000D02*
X84400000Y-133150000D01*
X95705000Y-133025000D02*
X95705000Y-135245000D01*
X105125000Y-98450000D02*
X105825000Y-99150000D01*
X89800000Y-98450000D02*
X105125000Y-98450000D01*
X84400000Y-133150000D02*
X84400000Y-103850000D01*
X95705000Y-135245000D02*
X94800000Y-136150000D01*
X94800000Y-136150000D02*
X87400000Y-136150000D01*
X84400000Y-103850000D02*
X89800000Y-98450000D01*
D45*
X86100000Y-110750000D02*
X88150000Y-112800000D01*
X86100000Y-106850000D02*
X86100000Y-110750000D01*
X88150000Y-112800000D02*
X89550000Y-112800000D01*
X95750000Y-105900000D02*
X87050000Y-105900000D01*
X95850000Y-105800000D02*
X95750000Y-105900000D01*
X87050000Y-105900000D02*
X86100000Y-106850000D01*
X91895000Y-128845000D02*
X92850000Y-129800000D01*
X95650000Y-116650000D02*
X96050000Y-117050000D01*
X96050000Y-120500000D02*
X97200000Y-121650000D01*
X108325000Y-123475000D02*
X107900000Y-123050000D01*
X98800000Y-128550000D02*
X98800000Y-127587500D01*
X92850000Y-129800000D02*
X97550000Y-129800000D01*
X97550000Y-129800000D02*
X98800000Y-128550000D01*
X97200000Y-121650000D02*
X98100000Y-121650000D01*
X96050000Y-117050000D02*
X96050000Y-120500000D01*
X91895000Y-128075000D02*
X91895000Y-128845000D01*
X109800000Y-123475000D02*
X108325000Y-123475000D01*
D44*
X137575000Y-121000000D02*
X137575000Y-118250000D01*
X138225000Y-121650000D02*
X137575000Y-121000000D01*
X122150000Y-121825000D02*
X122525000Y-121450000D01*
X122525000Y-121450000D02*
X122525000Y-118150000D01*
X109975000Y-121825000D02*
X110325000Y-121475000D01*
X110325000Y-121475000D02*
X110325000Y-118150000D01*
D45*
X131600000Y-90750000D02*
X131605000Y-90755000D01*
X131605000Y-90755000D02*
X131605000Y-92225000D01*
X129475000Y-94350000D02*
X127925000Y-94350000D01*
X129065000Y-93940000D02*
X129475000Y-94350000D01*
X129065000Y-92225000D02*
X129065000Y-93940000D01*
D47*
X127950000Y-95000000D02*
X127950000Y-94375000D01*
X127950000Y-94375000D02*
X127925000Y-94350000D01*
X127300000Y-95650000D02*
X127950000Y-95000000D01*
G04 #@! TA.AperFunction,Conductor*
G36*
X95759561Y-126376902D02*
G01*
X95800658Y-126385076D01*
X95845492Y-126393994D01*
X95881178Y-126408776D01*
X95932397Y-126442999D01*
X95945759Y-126451928D01*
X95973072Y-126479241D01*
X96016223Y-126543820D01*
X96031006Y-126579509D01*
X96048098Y-126665439D01*
X96050000Y-126684752D01*
X96050000Y-128740248D01*
X96048098Y-128759561D01*
X96031006Y-128845491D01*
X96016223Y-128881180D01*
X95973072Y-128945759D01*
X95945759Y-128973072D01*
X95881178Y-129016224D01*
X95845492Y-129031006D01*
X95800658Y-129039924D01*
X95759561Y-129048098D01*
X95740248Y-129050000D01*
X93159752Y-129050000D01*
X93140439Y-129048098D01*
X93099342Y-129039924D01*
X93054508Y-129031006D01*
X93018822Y-129016224D01*
X92954241Y-128973072D01*
X92926928Y-128945759D01*
X92883777Y-128881180D01*
X92868994Y-128845491D01*
X92851902Y-128759561D01*
X92850000Y-128740248D01*
X92850000Y-126684752D01*
X92851902Y-126665439D01*
X92868994Y-126579509D01*
X92883777Y-126543820D01*
X92926928Y-126479241D01*
X92954241Y-126451928D01*
X92967603Y-126442999D01*
X93018822Y-126408776D01*
X93054508Y-126393994D01*
X93099342Y-126385076D01*
X93140439Y-126376902D01*
X93159752Y-126375000D01*
X95740248Y-126375000D01*
X95759561Y-126376902D01*
G37*
G04 #@! TD.AperFunction*
G04 #@! TA.AperFunction,Conductor*
G36*
X104943066Y-130909422D02*
G01*
X104988875Y-130962179D01*
X105000134Y-131013808D01*
X105000103Y-132750000D01*
X105000035Y-136677737D01*
X105000000Y-138650000D01*
X110000000Y-143650000D01*
X110010480Y-143650000D01*
X111229971Y-143649963D01*
X111277428Y-143659402D01*
X111345800Y-143687723D01*
X111370409Y-143697916D01*
X111372317Y-143698564D01*
X111372323Y-143698566D01*
X111384208Y-143702600D01*
X111407569Y-143710531D01*
X111438836Y-143718909D01*
X111440806Y-143719301D01*
X111440811Y-143719302D01*
X111451741Y-143721476D01*
X111477324Y-143726564D01*
X111602231Y-143743008D01*
X111626784Y-143746241D01*
X111626815Y-143746245D01*
X111627783Y-143746372D01*
X111628750Y-143746467D01*
X111628774Y-143746470D01*
X111646289Y-143748195D01*
X111646304Y-143748196D01*
X111647317Y-143748296D01*
X111648357Y-143748364D01*
X111648367Y-143748365D01*
X111653251Y-143748685D01*
X111663502Y-143749357D01*
X111664564Y-143749392D01*
X111664568Y-143749392D01*
X111668451Y-143749519D01*
X111683126Y-143750000D01*
X112174374Y-143750000D01*
X112241413Y-143769685D01*
X112262055Y-143786319D01*
X112913681Y-144437945D01*
X112947166Y-144499268D01*
X112950000Y-144525626D01*
X112950000Y-146745933D01*
X112950160Y-146755730D01*
X112950425Y-146763840D01*
X112950907Y-146773664D01*
X112970643Y-147074781D01*
X112972570Y-147094334D01*
X112974688Y-147110415D01*
X112977883Y-147129768D01*
X112978078Y-147130748D01*
X112998430Y-147233065D01*
X113000813Y-147257228D01*
X113001326Y-149532837D01*
X112981657Y-149599881D01*
X112928863Y-149645648D01*
X112877246Y-149656865D01*
X112577394Y-149656671D01*
X112446420Y-149656586D01*
X112379394Y-149636858D01*
X112364015Y-149625172D01*
X112334574Y-149598941D01*
X112308303Y-149575533D01*
X112308301Y-149575532D01*
X112302721Y-149570560D01*
X112288347Y-149562949D01*
X112159489Y-149494723D01*
X112152881Y-149491224D01*
X111988441Y-149449919D01*
X111902248Y-149449468D01*
X111826368Y-149449070D01*
X111826367Y-149449070D01*
X111818895Y-149449031D01*
X111797235Y-149454231D01*
X111661295Y-149486868D01*
X111661293Y-149486869D01*
X111654032Y-149488612D01*
X111647399Y-149492035D01*
X111647395Y-149492037D01*
X111580465Y-149526583D01*
X111503369Y-149566375D01*
X111497737Y-149571288D01*
X111435800Y-149625319D01*
X111372342Y-149654555D01*
X111354208Y-149655877D01*
X107943140Y-149653663D01*
X107876114Y-149633935D01*
X107860732Y-149622246D01*
X107808303Y-149575533D01*
X107808301Y-149575532D01*
X107802721Y-149570560D01*
X107788347Y-149562949D01*
X107659489Y-149494723D01*
X107652881Y-149491224D01*
X107488441Y-149449919D01*
X107402248Y-149449468D01*
X107326368Y-149449070D01*
X107326367Y-149449070D01*
X107318895Y-149449031D01*
X107297235Y-149454231D01*
X107161295Y-149486868D01*
X107161293Y-149486869D01*
X107154032Y-149488612D01*
X107147399Y-149492035D01*
X107147395Y-149492037D01*
X107080465Y-149526583D01*
X107003369Y-149566375D01*
X106997737Y-149571288D01*
X106939146Y-149622400D01*
X106875688Y-149651636D01*
X106857552Y-149652958D01*
X102939495Y-149650415D01*
X102872468Y-149630687D01*
X102857087Y-149618998D01*
X102808308Y-149575538D01*
X102802721Y-149570560D01*
X102796113Y-149567061D01*
X102796110Y-149567059D01*
X102659489Y-149494723D01*
X102652881Y-149491224D01*
X102488441Y-149449919D01*
X102402248Y-149449468D01*
X102326368Y-149449070D01*
X102326367Y-149449070D01*
X102318895Y-149449031D01*
X102209121Y-149475386D01*
X102139340Y-149471896D01*
X102092493Y-149442493D01*
X95036319Y-142386319D01*
X95002834Y-142324996D01*
X95000000Y-142298638D01*
X95000000Y-136744776D01*
X95019685Y-136677737D01*
X95074755Y-136630974D01*
X95087855Y-136625305D01*
X95094421Y-136619988D01*
X95094423Y-136619987D01*
X95099676Y-136615733D01*
X95117965Y-136603443D01*
X95131308Y-136596107D01*
X95139422Y-136589103D01*
X95164034Y-136564491D01*
X95173679Y-136555806D01*
X95205070Y-136530386D01*
X95216064Y-136514916D01*
X95229459Y-136499066D01*
X96083667Y-135644857D01*
X96087415Y-135641262D01*
X96126935Y-135604922D01*
X96126937Y-135604920D01*
X96133156Y-135599201D01*
X96156136Y-135562137D01*
X96162753Y-135552510D01*
X96181635Y-135527634D01*
X96189112Y-135517784D01*
X96194714Y-135503636D01*
X96204615Y-135483950D01*
X96208182Y-135478196D01*
X96212635Y-135471014D01*
X96224802Y-135429135D01*
X96228586Y-135418084D01*
X96241523Y-135385410D01*
X96241525Y-135385403D01*
X96244635Y-135377547D01*
X96245518Y-135369144D01*
X96245519Y-135369140D01*
X96246224Y-135362427D01*
X96250470Y-135340786D01*
X96252902Y-135332415D01*
X96254715Y-135326175D01*
X96255500Y-135315485D01*
X96255500Y-135280677D01*
X96256179Y-135267715D01*
X96259517Y-135235952D01*
X96260401Y-135227546D01*
X96257236Y-135208833D01*
X96255500Y-135188154D01*
X96255500Y-134090402D01*
X96262504Y-134049316D01*
X96271718Y-134023077D01*
X96302519Y-133935369D01*
X96305500Y-133903834D01*
X96305500Y-132874000D01*
X96325185Y-132806961D01*
X96377989Y-132761206D01*
X96429500Y-132750000D01*
X100650000Y-132750000D01*
X100650000Y-131018041D01*
X100669685Y-130951002D01*
X100722489Y-130905247D01*
X100773872Y-130894041D01*
X102987435Y-130891756D01*
X104876006Y-130889807D01*
X104943066Y-130909422D01*
G37*
G04 #@! TD.AperFunction*
G04 #@! TA.AperFunction,Conductor*
G36*
X135292122Y-121220002D02*
G01*
X135338615Y-121273658D01*
X135350001Y-121325999D01*
X135350031Y-128123999D01*
X135330029Y-128192120D01*
X135276374Y-128238613D01*
X135224031Y-128250000D01*
X131600000Y-128250000D01*
X131300000Y-128550000D01*
X131300000Y-130328848D01*
X131279998Y-130396969D01*
X131226342Y-130443462D01*
X131173919Y-130454848D01*
X127909670Y-130452752D01*
X123625868Y-130450001D01*
X123557761Y-130429955D01*
X123511303Y-130376270D01*
X123499950Y-130324051D01*
X123499240Y-128537188D01*
X123496373Y-121326049D01*
X123516348Y-121257921D01*
X123569985Y-121211407D01*
X123622373Y-121200000D01*
X135224001Y-121200000D01*
X135292122Y-121220002D01*
G37*
G04 #@! TD.AperFunction*
G04 #@! TA.AperFunction,Conductor*
G36*
X135872154Y-113168907D02*
G01*
X135908118Y-113218407D01*
X135908118Y-113279593D01*
X135896279Y-113304001D01*
X135864034Y-113352260D01*
X135849500Y-113425326D01*
X135849500Y-114674674D01*
X135864034Y-114747740D01*
X135919399Y-114830601D01*
X136002260Y-114885966D01*
X136075326Y-114900500D01*
X137024674Y-114900500D01*
X137097740Y-114885966D01*
X137115635Y-114874009D01*
X137174523Y-114857401D01*
X137231926Y-114878579D01*
X137240640Y-114886321D01*
X138071004Y-115716685D01*
X138098781Y-115771202D01*
X138100000Y-115786689D01*
X138100000Y-117471939D01*
X138081093Y-117530130D01*
X138031593Y-117566094D01*
X137968198Y-117565347D01*
X137866064Y-117529481D01*
X137866065Y-117529481D01*
X137860369Y-117527481D01*
X137854362Y-117526913D01*
X137854361Y-117526913D01*
X137831145Y-117524718D01*
X137831135Y-117524718D01*
X137828834Y-117524500D01*
X137321166Y-117524500D01*
X137318865Y-117524718D01*
X137318855Y-117524718D01*
X137295639Y-117526913D01*
X137295638Y-117526913D01*
X137289631Y-117527481D01*
X137161816Y-117572366D01*
X137052850Y-117652850D01*
X137048450Y-117658807D01*
X137046228Y-117661816D01*
X136972366Y-117761816D01*
X136927481Y-117889631D01*
X136924500Y-117921166D01*
X136924500Y-118578834D01*
X136927481Y-118610369D01*
X136972366Y-118738184D01*
X136976761Y-118744135D01*
X136976762Y-118744136D01*
X137052850Y-118847150D01*
X137050808Y-118848658D01*
X137073281Y-118892764D01*
X137074500Y-118908251D01*
X137074500Y-119291749D01*
X137055593Y-119349940D01*
X137053547Y-119352335D01*
X137052850Y-119352850D01*
X137051204Y-119355078D01*
X137051201Y-119355082D01*
X136976762Y-119455864D01*
X136972366Y-119461816D01*
X136927481Y-119589631D01*
X136924500Y-119621166D01*
X136924500Y-120278834D01*
X136927481Y-120310369D01*
X136972366Y-120438184D01*
X136976761Y-120444135D01*
X136976762Y-120444136D01*
X137052850Y-120547150D01*
X137050808Y-120548658D01*
X137073281Y-120592764D01*
X137074500Y-120608251D01*
X137074500Y-120801000D01*
X137055593Y-120859191D01*
X137006093Y-120895155D01*
X136975500Y-120900000D01*
X123509752Y-120900000D01*
X123490439Y-120898098D01*
X123449342Y-120889924D01*
X123404508Y-120881006D01*
X123368822Y-120866224D01*
X123304241Y-120823072D01*
X123276928Y-120795759D01*
X123233777Y-120731180D01*
X123218994Y-120695491D01*
X123201902Y-120609561D01*
X123200000Y-120590248D01*
X123200000Y-113459752D01*
X123201902Y-113440439D01*
X123210076Y-113399342D01*
X123218994Y-113354508D01*
X123233777Y-113318820D01*
X123276928Y-113254241D01*
X123304241Y-113226928D01*
X123317603Y-113217999D01*
X123368822Y-113183776D01*
X123404508Y-113168994D01*
X123449342Y-113160076D01*
X123490439Y-113151902D01*
X123509752Y-113150000D01*
X135813963Y-113150000D01*
X135872154Y-113168907D01*
G37*
G04 #@! TD.AperFunction*
G04 #@! TA.AperFunction,Conductor*
G36*
X94459561Y-132051902D02*
G01*
X94500658Y-132060076D01*
X94545492Y-132068994D01*
X94581178Y-132083776D01*
X94632397Y-132117999D01*
X94645759Y-132126928D01*
X94673072Y-132154241D01*
X94716223Y-132218820D01*
X94731006Y-132254509D01*
X94748098Y-132340439D01*
X94750000Y-132359752D01*
X94750000Y-133815984D01*
X94748098Y-133835297D01*
X94731006Y-133921227D01*
X94716223Y-133956916D01*
X94667551Y-134029758D01*
X94655240Y-134044760D01*
X94644760Y-134055240D01*
X94629758Y-134067551D01*
X94556914Y-134116224D01*
X94521228Y-134131006D01*
X94507039Y-134133828D01*
X94435297Y-134148098D01*
X94415984Y-134150000D01*
X94150000Y-134150000D01*
X93700000Y-134550000D01*
X93700000Y-135240248D01*
X93698098Y-135259561D01*
X93681006Y-135345491D01*
X93666223Y-135381180D01*
X93623072Y-135445759D01*
X93595759Y-135473072D01*
X93531178Y-135516224D01*
X93495492Y-135531006D01*
X93450658Y-135539924D01*
X93409561Y-135548098D01*
X93390248Y-135550000D01*
X92759752Y-135550000D01*
X92740439Y-135548098D01*
X92699342Y-135539924D01*
X92654508Y-135531006D01*
X92618822Y-135516224D01*
X92554241Y-135473072D01*
X92526928Y-135445759D01*
X92483777Y-135381180D01*
X92468994Y-135345491D01*
X92451902Y-135259561D01*
X92450000Y-135240248D01*
X92450000Y-134534016D01*
X92451902Y-134514703D01*
X92468994Y-134428773D01*
X92483777Y-134393084D01*
X92532449Y-134320242D01*
X92544760Y-134305240D01*
X92800000Y-134050000D01*
X92800000Y-132359752D01*
X92801902Y-132340439D01*
X92818994Y-132254509D01*
X92833777Y-132218820D01*
X92876928Y-132154241D01*
X92904241Y-132126928D01*
X92917603Y-132117999D01*
X92968822Y-132083776D01*
X93004508Y-132068994D01*
X93049342Y-132060076D01*
X93090439Y-132051902D01*
X93109752Y-132050000D01*
X94440248Y-132050000D01*
X94459561Y-132051902D01*
G37*
G04 #@! TD.AperFunction*
G04 #@! TA.AperFunction,Conductor*
G36*
X108412172Y-121152421D02*
G01*
X108490225Y-121167947D01*
X108535642Y-121186759D01*
X108591295Y-121223945D01*
X108626055Y-121258705D01*
X108663241Y-121314358D01*
X108682054Y-121359777D01*
X108697579Y-121437829D01*
X108700000Y-121462410D01*
X108700000Y-130137590D01*
X108697579Y-130162171D01*
X108682054Y-130240223D01*
X108663241Y-130285642D01*
X108626056Y-130341294D01*
X108591295Y-130376055D01*
X108535642Y-130413241D01*
X108490225Y-130432053D01*
X108421876Y-130445649D01*
X108412171Y-130447579D01*
X108387590Y-130450000D01*
X100776000Y-130450000D01*
X100707879Y-130429998D01*
X100661386Y-130376342D01*
X100650000Y-130324000D01*
X100650000Y-128550000D01*
X100350000Y-128250000D01*
X97076000Y-128250000D01*
X97007879Y-128229998D01*
X96961386Y-128176342D01*
X96950000Y-128124000D01*
X96950000Y-121462410D01*
X96952421Y-121437829D01*
X96967946Y-121359777D01*
X96986759Y-121314358D01*
X97023945Y-121258705D01*
X97058705Y-121223945D01*
X97114358Y-121186759D01*
X97159775Y-121167947D01*
X97237828Y-121152421D01*
X97262410Y-121150000D01*
X108387590Y-121150000D01*
X108412172Y-121152421D01*
G37*
G04 #@! TD.AperFunction*
G04 #@! TA.AperFunction,Conductor*
G36*
X123156765Y-124268907D02*
G01*
X123192729Y-124318407D01*
X123197574Y-124348961D01*
X123199076Y-128123998D01*
X123199240Y-128537307D01*
X123199950Y-130324170D01*
X123201697Y-130340403D01*
X123189129Y-130400282D01*
X123143764Y-130441338D01*
X123103267Y-130450000D01*
X121349000Y-130450000D01*
X121290809Y-130431093D01*
X121254845Y-130381593D01*
X121250000Y-130351000D01*
X121250000Y-124349000D01*
X121268907Y-124290809D01*
X121318407Y-124254845D01*
X121349000Y-124250000D01*
X123098574Y-124250000D01*
X123156765Y-124268907D01*
G37*
G04 #@! TD.AperFunction*
G04 #@! TA.AperFunction,Conductor*
G36*
X124798819Y-101321603D02*
G01*
X124802648Y-101325653D01*
X124808495Y-101329146D01*
X124808497Y-101329148D01*
X124861302Y-101360697D01*
X124879058Y-101371305D01*
X124884337Y-101373020D01*
X124884341Y-101373022D01*
X124933546Y-101389009D01*
X124937249Y-101390212D01*
X124941093Y-101390821D01*
X124941098Y-101390822D01*
X124995203Y-101399391D01*
X124995208Y-101399391D01*
X124999051Y-101400000D01*
X125426150Y-101400000D01*
X125484341Y-101418907D01*
X125496154Y-101428996D01*
X125688575Y-101621417D01*
X125712441Y-101641801D01*
X125714028Y-101642954D01*
X125729532Y-101654218D01*
X125741346Y-101664307D01*
X125771004Y-101693965D01*
X125798781Y-101748482D01*
X125800000Y-101763969D01*
X125800000Y-102240248D01*
X125798098Y-102259561D01*
X125788618Y-102307223D01*
X125773836Y-102342910D01*
X125752360Y-102375050D01*
X125725050Y-102402360D01*
X125692910Y-102423836D01*
X125657224Y-102438618D01*
X125631978Y-102443639D01*
X125609561Y-102448098D01*
X125590248Y-102450000D01*
X123709752Y-102450000D01*
X123690439Y-102448098D01*
X123668022Y-102443639D01*
X123642776Y-102438618D01*
X123607090Y-102423836D01*
X123574950Y-102402360D01*
X123547640Y-102375050D01*
X123526164Y-102342910D01*
X123511382Y-102307223D01*
X123501902Y-102259561D01*
X123500000Y-102240248D01*
X123500000Y-101509752D01*
X123501902Y-101490439D01*
X123511382Y-101442777D01*
X123526164Y-101407090D01*
X123547640Y-101374950D01*
X123574950Y-101347640D01*
X123607090Y-101326164D01*
X123642776Y-101311382D01*
X123668022Y-101306361D01*
X123690439Y-101301902D01*
X123709752Y-101300000D01*
X124737360Y-101300000D01*
X124798819Y-101321603D01*
G37*
G04 #@! TD.AperFunction*
G04 #@! TA.AperFunction,Conductor*
G36*
X120711980Y-121152383D02*
G01*
X120790613Y-121168024D01*
X120835313Y-121186539D01*
X120891624Y-121224165D01*
X120925835Y-121258376D01*
X120963461Y-121314687D01*
X120981976Y-121359387D01*
X120997617Y-121438020D01*
X121000000Y-121462211D01*
X121000000Y-130350000D01*
X111000000Y-130350000D01*
X111000000Y-121462211D01*
X111002383Y-121438020D01*
X111018024Y-121359387D01*
X111036539Y-121314687D01*
X111074165Y-121258376D01*
X111108376Y-121224165D01*
X111164687Y-121186539D01*
X111209387Y-121168024D01*
X111288020Y-121152383D01*
X111312211Y-121150000D01*
X120687789Y-121150000D01*
X120711980Y-121152383D01*
G37*
G04 #@! TD.AperFunction*
G04 #@! TA.AperFunction,Conductor*
G36*
X131243039Y-130919685D02*
G01*
X131288794Y-130972489D01*
X131300000Y-131024000D01*
X131300000Y-132750000D01*
X135462500Y-132750000D01*
X135529539Y-132769685D01*
X135575294Y-132822489D01*
X135586500Y-132874000D01*
X135586500Y-133916502D01*
X135589438Y-133953831D01*
X135591205Y-133959913D01*
X135609556Y-134023077D01*
X135635855Y-134113601D01*
X135639828Y-134120319D01*
X135716574Y-134250090D01*
X135716576Y-134250093D01*
X135720547Y-134256807D01*
X135838193Y-134374453D01*
X135844907Y-134378424D01*
X135844910Y-134378426D01*
X135948066Y-134439432D01*
X135981399Y-134459145D01*
X135988888Y-134461321D01*
X135988891Y-134461322D01*
X136123574Y-134500450D01*
X136141169Y-134505562D01*
X136178498Y-134508500D01*
X136611502Y-134508500D01*
X136648831Y-134505562D01*
X136666426Y-134500450D01*
X136801109Y-134461322D01*
X136801112Y-134461321D01*
X136808601Y-134459145D01*
X136815319Y-134455172D01*
X136822473Y-134452076D01*
X136823294Y-134453973D01*
X136880603Y-134439432D01*
X136946865Y-134461592D01*
X136990629Y-134516058D01*
X137000000Y-134563347D01*
X137000000Y-135398715D01*
X136998939Y-135414900D01*
X136994318Y-135450000D01*
X136995379Y-135458059D01*
X136998939Y-135485100D01*
X137000000Y-135501285D01*
X137000000Y-137615333D01*
X136991530Y-137660376D01*
X136966524Y-137724513D01*
X136944394Y-137892611D01*
X136962999Y-138061135D01*
X136965566Y-138068150D01*
X136965568Y-138068158D01*
X136992447Y-138141607D01*
X137000000Y-138184221D01*
X137000000Y-139615333D01*
X136991530Y-139660376D01*
X136966524Y-139724513D01*
X136944394Y-139892611D01*
X136962999Y-140061135D01*
X136965566Y-140068150D01*
X136965568Y-140068158D01*
X136992447Y-140141607D01*
X137000000Y-140184221D01*
X137000000Y-141865333D01*
X136991530Y-141910376D01*
X136966524Y-141974513D01*
X136944394Y-142142611D01*
X136962361Y-142305355D01*
X136962999Y-142311135D01*
X136962035Y-142311241D01*
X136958544Y-142374409D01*
X136929357Y-142420643D01*
X129736319Y-149613681D01*
X129674996Y-149647166D01*
X129648638Y-149650000D01*
X127439110Y-149650000D01*
X127372071Y-149630315D01*
X127356622Y-149618583D01*
X127308308Y-149575537D01*
X127308304Y-149575534D01*
X127302721Y-149570560D01*
X127288347Y-149562949D01*
X127159489Y-149494723D01*
X127152881Y-149491224D01*
X126988441Y-149449919D01*
X126902248Y-149449468D01*
X126826368Y-149449070D01*
X126826367Y-149449070D01*
X126818895Y-149449031D01*
X126797235Y-149454231D01*
X126661295Y-149486868D01*
X126661293Y-149486869D01*
X126654032Y-149488612D01*
X126647399Y-149492035D01*
X126647395Y-149492037D01*
X126581594Y-149526000D01*
X126503369Y-149566375D01*
X126497737Y-149571288D01*
X126442537Y-149619442D01*
X126379079Y-149648678D01*
X126361023Y-149650000D01*
X122439110Y-149650000D01*
X122372071Y-149630315D01*
X122356622Y-149618583D01*
X122308308Y-149575537D01*
X122308304Y-149575534D01*
X122302721Y-149570560D01*
X122288347Y-149562949D01*
X122159489Y-149494723D01*
X122152881Y-149491224D01*
X121988441Y-149449919D01*
X121902248Y-149449468D01*
X121826368Y-149449070D01*
X121826367Y-149449070D01*
X121818895Y-149449031D01*
X121797235Y-149454231D01*
X121661295Y-149486868D01*
X121661293Y-149486869D01*
X121654032Y-149488612D01*
X121647399Y-149492035D01*
X121647395Y-149492037D01*
X121581594Y-149526000D01*
X121503369Y-149566375D01*
X121497737Y-149571288D01*
X121442537Y-149619442D01*
X121379079Y-149648678D01*
X121361023Y-149650000D01*
X119124000Y-149650000D01*
X119056961Y-149630315D01*
X119011206Y-149577511D01*
X119000000Y-149526000D01*
X119000000Y-147253168D01*
X119002383Y-147228977D01*
X119021922Y-147130748D01*
X119022117Y-147129768D01*
X119025312Y-147110415D01*
X119027430Y-147094334D01*
X119029357Y-147074781D01*
X119049093Y-146773664D01*
X119049575Y-146763840D01*
X119049840Y-146755730D01*
X119050000Y-146745933D01*
X119050000Y-144525626D01*
X119069685Y-144458587D01*
X119086319Y-144437945D01*
X119737945Y-143786319D01*
X119799268Y-143752834D01*
X119825626Y-143750000D01*
X120316874Y-143750000D01*
X120331549Y-143749519D01*
X120335432Y-143749392D01*
X120335436Y-143749392D01*
X120336498Y-143749357D01*
X120347843Y-143748613D01*
X120351678Y-143748362D01*
X120351685Y-143748361D01*
X120352683Y-143748296D01*
X120367112Y-143746876D01*
X120371161Y-143746477D01*
X120371169Y-143746476D01*
X120372216Y-143746373D01*
X120373234Y-143746239D01*
X120373260Y-143746236D01*
X120397768Y-143743009D01*
X120520664Y-143726830D01*
X120520672Y-143726829D01*
X120522675Y-143726565D01*
X120524660Y-143726170D01*
X120524667Y-143726169D01*
X120541920Y-143722737D01*
X120561164Y-143718909D01*
X120592431Y-143710531D01*
X120615792Y-143702600D01*
X120627677Y-143698566D01*
X120627683Y-143698564D01*
X120629591Y-143697916D01*
X120722481Y-143659439D01*
X120769935Y-143650000D01*
X122000000Y-143650000D01*
X127000000Y-138650000D01*
X127000000Y-131024000D01*
X127019685Y-130956961D01*
X127072489Y-130911206D01*
X127124000Y-130900000D01*
X131176000Y-130900000D01*
X131243039Y-130919685D01*
G37*
G04 #@! TD.AperFunction*
G04 #@! TA.AperFunction,Conductor*
G36*
X138709561Y-126351902D02*
G01*
X138750658Y-126360076D01*
X138795492Y-126368994D01*
X138831178Y-126383776D01*
X138882397Y-126417999D01*
X138895759Y-126426928D01*
X138923072Y-126454241D01*
X138966223Y-126518820D01*
X138981005Y-126554506D01*
X139000000Y-126650000D01*
X139000000Y-126950000D01*
X140190248Y-126950000D01*
X140209561Y-126951902D01*
X140250658Y-126960076D01*
X140295492Y-126968994D01*
X140331178Y-126983776D01*
X140382397Y-127017999D01*
X140395759Y-127026928D01*
X140423072Y-127054241D01*
X140466223Y-127118820D01*
X140481006Y-127154509D01*
X140498098Y-127240439D01*
X140500000Y-127259752D01*
X140500000Y-128790248D01*
X140498098Y-128809561D01*
X140481006Y-128895491D01*
X140466223Y-128931180D01*
X140423072Y-128995759D01*
X140395759Y-129023072D01*
X140331178Y-129066224D01*
X140295492Y-129081006D01*
X140250658Y-129089924D01*
X140209561Y-129098098D01*
X140190248Y-129100000D01*
X137609752Y-129100000D01*
X137590439Y-129098098D01*
X137549342Y-129089924D01*
X137504508Y-129081006D01*
X137468822Y-129066224D01*
X137404241Y-129023072D01*
X137376928Y-128995759D01*
X137333777Y-128931180D01*
X137318994Y-128895491D01*
X137301902Y-128809561D01*
X137300000Y-128790248D01*
X137300000Y-126659752D01*
X137301902Y-126640439D01*
X137318994Y-126554509D01*
X137333777Y-126518820D01*
X137376928Y-126454241D01*
X137404241Y-126426928D01*
X137417603Y-126417999D01*
X137468822Y-126383776D01*
X137504508Y-126368994D01*
X137549342Y-126360076D01*
X137590439Y-126351902D01*
X137609752Y-126350000D01*
X138690248Y-126350000D01*
X138709561Y-126351902D01*
G37*
G04 #@! TD.AperFunction*
G04 #@! TA.AperFunction,Conductor*
G36*
X108409561Y-114251902D02*
G01*
X108450658Y-114260076D01*
X108495492Y-114268994D01*
X108531178Y-114283776D01*
X108582397Y-114317999D01*
X108595759Y-114326928D01*
X108623072Y-114354241D01*
X108666223Y-114418820D01*
X108681006Y-114454509D01*
X108698098Y-114540439D01*
X108700000Y-114559752D01*
X108700000Y-117251178D01*
X108681093Y-117309369D01*
X108671004Y-117321182D01*
X108596682Y-117395504D01*
X108542165Y-117423281D01*
X108526678Y-117424500D01*
X108421166Y-117424500D01*
X108418865Y-117424718D01*
X108418855Y-117424718D01*
X108395639Y-117426913D01*
X108395638Y-117426913D01*
X108389631Y-117427481D01*
X108261816Y-117472366D01*
X108152850Y-117552850D01*
X108072366Y-117661816D01*
X108027481Y-117789631D01*
X108024500Y-117821166D01*
X108024500Y-118478834D01*
X108027481Y-118510369D01*
X108072366Y-118638184D01*
X108152850Y-118747150D01*
X108261816Y-118827634D01*
X108389631Y-118872519D01*
X108395638Y-118873087D01*
X108395639Y-118873087D01*
X108418855Y-118875282D01*
X108418865Y-118875282D01*
X108421166Y-118875500D01*
X108601000Y-118875500D01*
X108659191Y-118894407D01*
X108695155Y-118943907D01*
X108700000Y-118974500D01*
X108700000Y-120590248D01*
X108698098Y-120609561D01*
X108681006Y-120695491D01*
X108666223Y-120731180D01*
X108623072Y-120795759D01*
X108595759Y-120823072D01*
X108531178Y-120866224D01*
X108495492Y-120881006D01*
X108450658Y-120889924D01*
X108409561Y-120898098D01*
X108390248Y-120900000D01*
X97259752Y-120900000D01*
X97240439Y-120898098D01*
X97199342Y-120889924D01*
X97154508Y-120881006D01*
X97118822Y-120866224D01*
X97054241Y-120823072D01*
X97026928Y-120795759D01*
X96983777Y-120731180D01*
X96968994Y-120695491D01*
X96951902Y-120609561D01*
X96950000Y-120590248D01*
X96950000Y-114559752D01*
X96951902Y-114540439D01*
X96968994Y-114454509D01*
X96983777Y-114418820D01*
X97026928Y-114354241D01*
X97054241Y-114326928D01*
X97067603Y-114317999D01*
X97118822Y-114283776D01*
X97154508Y-114268994D01*
X97199342Y-114260076D01*
X97240439Y-114251902D01*
X97259752Y-114250000D01*
X108390248Y-114250000D01*
X108409561Y-114251902D01*
G37*
G04 #@! TD.AperFunction*
G04 #@! TA.AperFunction,Conductor*
G36*
X128509191Y-99468907D02*
G01*
X128545155Y-99518407D01*
X128550000Y-99549000D01*
X128550000Y-100301000D01*
X128531093Y-100359191D01*
X128481593Y-100395155D01*
X128451000Y-100400000D01*
X126100000Y-100400000D01*
X125900000Y-100600000D01*
X125900000Y-100850000D01*
X126179996Y-101129996D01*
X126207773Y-101184513D01*
X126198202Y-101244945D01*
X126179996Y-101270004D01*
X125970004Y-101479996D01*
X125915487Y-101507773D01*
X125855055Y-101498202D01*
X125829996Y-101479996D01*
X125550000Y-101200000D01*
X124999051Y-101200000D01*
X124940860Y-101181093D01*
X124910842Y-101145946D01*
X124902066Y-101128722D01*
X124902063Y-101128718D01*
X124898528Y-101121780D01*
X124803220Y-101026472D01*
X124796283Y-101022937D01*
X124796281Y-101022936D01*
X124690066Y-100968817D01*
X124690065Y-100968817D01*
X124683126Y-100965281D01*
X124675432Y-100964062D01*
X124675431Y-100964062D01*
X124587333Y-100950109D01*
X124583488Y-100949500D01*
X124583059Y-100949500D01*
X124557655Y-100943752D01*
X124552881Y-100941224D01*
X124446693Y-100914551D01*
X124394231Y-100901373D01*
X124394228Y-100901373D01*
X124388441Y-100899919D01*
X124302841Y-100899471D01*
X124224861Y-100899062D01*
X124224859Y-100899062D01*
X124218895Y-100899031D01*
X124213096Y-100900423D01*
X124213089Y-100900424D01*
X124191827Y-100905529D01*
X124150181Y-100903381D01*
X124149620Y-100906320D01*
X124142355Y-100904934D01*
X124135369Y-100902481D01*
X124129329Y-100902244D01*
X124126651Y-100901722D01*
X124121270Y-100900020D01*
X124114663Y-100899500D01*
X124061459Y-100899500D01*
X124057572Y-100899424D01*
X124007397Y-100897452D01*
X124007394Y-100897452D01*
X124000006Y-100897162D01*
X123993228Y-100898959D01*
X123983403Y-100899500D01*
X123249000Y-100899500D01*
X123190809Y-100880593D01*
X123154845Y-100831093D01*
X123150000Y-100800500D01*
X123150000Y-99549000D01*
X123168907Y-99490809D01*
X123218407Y-99454845D01*
X123249000Y-99450000D01*
X128451000Y-99450000D01*
X128509191Y-99468907D01*
G37*
G04 #@! TD.AperFunction*
G04 #@! TA.AperFunction,Conductor*
G36*
X129161216Y-100602648D02*
G01*
X129184230Y-100608081D01*
X129216698Y-100615746D01*
X129257385Y-100636089D01*
X129278662Y-100653846D01*
X129301152Y-100672616D01*
X129316916Y-100689222D01*
X129344613Y-100726150D01*
X129355211Y-100740281D01*
X129363702Y-100753732D01*
X129373425Y-100772288D01*
X129382281Y-100789192D01*
X129392310Y-100819278D01*
X129398722Y-100858789D01*
X129400000Y-100874648D01*
X129400000Y-101607405D01*
X129398098Y-101626718D01*
X129388618Y-101674380D01*
X129373836Y-101710067D01*
X129355863Y-101736965D01*
X129346840Y-101750469D01*
X129334529Y-101765471D01*
X129265471Y-101834529D01*
X129250469Y-101846840D01*
X129210067Y-101873836D01*
X129174381Y-101888618D01*
X129149135Y-101893639D01*
X129126718Y-101898098D01*
X129107405Y-101900000D01*
X126213035Y-101900000D01*
X126187413Y-101896627D01*
X126150625Y-101886770D01*
X126106243Y-101861147D01*
X126088853Y-101843757D01*
X126063230Y-101799375D01*
X126053373Y-101762587D01*
X126050000Y-101736965D01*
X126050000Y-101716488D01*
X126068907Y-101658297D01*
X126090810Y-101636395D01*
X126108280Y-101623702D01*
X126111425Y-101621417D01*
X126321417Y-101411425D01*
X126341801Y-101387559D01*
X126354218Y-101370467D01*
X126364307Y-101358654D01*
X126395150Y-101327811D01*
X126428278Y-101278231D01*
X126443839Y-101200000D01*
X126428278Y-101121769D01*
X126395150Y-101072189D01*
X126353178Y-101030217D01*
X126343089Y-101018404D01*
X126323698Y-100991714D01*
X126323695Y-100991711D01*
X126321417Y-100988575D01*
X126128996Y-100796154D01*
X126101219Y-100741637D01*
X126100000Y-100726150D01*
X126100000Y-100723850D01*
X126118907Y-100665659D01*
X126128996Y-100653846D01*
X126153846Y-100628996D01*
X126208363Y-100601219D01*
X126223850Y-100600000D01*
X129138471Y-100600000D01*
X129161216Y-100602648D01*
G37*
G04 #@! TD.AperFunction*
G04 #@! TA.AperFunction,Conductor*
G36*
X130409561Y-86051902D02*
G01*
X130450658Y-86060076D01*
X130495492Y-86068994D01*
X130531178Y-86083776D01*
X130582397Y-86117999D01*
X130595759Y-86126928D01*
X130623072Y-86154241D01*
X130666223Y-86218820D01*
X130681006Y-86254509D01*
X130698098Y-86340439D01*
X130700000Y-86359752D01*
X130700000Y-87740248D01*
X130698098Y-87759561D01*
X130681006Y-87845491D01*
X130666223Y-87881180D01*
X130623072Y-87945759D01*
X130595759Y-87973072D01*
X130531178Y-88016224D01*
X130495492Y-88031006D01*
X130450658Y-88039924D01*
X130409561Y-88048098D01*
X130390248Y-88050000D01*
X129009752Y-88050000D01*
X128990439Y-88048098D01*
X128949342Y-88039924D01*
X128904508Y-88031006D01*
X128868822Y-88016224D01*
X128804241Y-87973072D01*
X128776928Y-87945759D01*
X128733777Y-87881180D01*
X128718994Y-87845491D01*
X128701902Y-87759561D01*
X128700000Y-87740248D01*
X128700000Y-86359752D01*
X128701902Y-86340439D01*
X128718994Y-86254509D01*
X128733777Y-86218820D01*
X128776928Y-86154241D01*
X128804241Y-86126928D01*
X128817603Y-86117999D01*
X128868822Y-86083776D01*
X128904508Y-86068994D01*
X128949342Y-86060076D01*
X128990439Y-86051902D01*
X129009752Y-86050000D01*
X130390248Y-86050000D01*
X130409561Y-86051902D01*
G37*
G04 #@! TD.AperFunction*
G04 #@! TA.AperFunction,Conductor*
G36*
X120609561Y-114251902D02*
G01*
X120650658Y-114260076D01*
X120695492Y-114268994D01*
X120731178Y-114283776D01*
X120782397Y-114317999D01*
X120795759Y-114326928D01*
X120823072Y-114354241D01*
X120866223Y-114418820D01*
X120881006Y-114454509D01*
X120898098Y-114540439D01*
X120900000Y-114559752D01*
X120900000Y-117226178D01*
X120881093Y-117284369D01*
X120871004Y-117296182D01*
X120771682Y-117395504D01*
X120717165Y-117423281D01*
X120701678Y-117424500D01*
X120621166Y-117424500D01*
X120618865Y-117424718D01*
X120618855Y-117424718D01*
X120595639Y-117426913D01*
X120595638Y-117426913D01*
X120589631Y-117427481D01*
X120461816Y-117472366D01*
X120352850Y-117552850D01*
X120272366Y-117661816D01*
X120227481Y-117789631D01*
X120224500Y-117821166D01*
X120224500Y-118478834D01*
X120227481Y-118510369D01*
X120272366Y-118638184D01*
X120352850Y-118747150D01*
X120461816Y-118827634D01*
X120589631Y-118872519D01*
X120595638Y-118873087D01*
X120595639Y-118873087D01*
X120618855Y-118875282D01*
X120618865Y-118875282D01*
X120621166Y-118875500D01*
X120801000Y-118875500D01*
X120859191Y-118894407D01*
X120895155Y-118943907D01*
X120900000Y-118974500D01*
X120900000Y-120590248D01*
X120898098Y-120609561D01*
X120881006Y-120695491D01*
X120866223Y-120731180D01*
X120823072Y-120795759D01*
X120795759Y-120823072D01*
X120731178Y-120866224D01*
X120695492Y-120881006D01*
X120650658Y-120889924D01*
X120609561Y-120898098D01*
X120590248Y-120900000D01*
X111309752Y-120900000D01*
X111290439Y-120898098D01*
X111249342Y-120889924D01*
X111204508Y-120881006D01*
X111168822Y-120866224D01*
X111104241Y-120823072D01*
X111076928Y-120795759D01*
X111033777Y-120731180D01*
X111018994Y-120695491D01*
X111001902Y-120609561D01*
X111000000Y-120590248D01*
X111000000Y-116704247D01*
X111000145Y-116698893D01*
X111000211Y-116697676D01*
X111000500Y-116695015D01*
X111000499Y-116104986D01*
X111000210Y-116102323D01*
X111000145Y-116101127D01*
X111000000Y-116095773D01*
X111000000Y-114559752D01*
X111001902Y-114540439D01*
X111018994Y-114454509D01*
X111033777Y-114418820D01*
X111076928Y-114354241D01*
X111104241Y-114326928D01*
X111117603Y-114317999D01*
X111168822Y-114283776D01*
X111204508Y-114268994D01*
X111249342Y-114260076D01*
X111290439Y-114251902D01*
X111309752Y-114250000D01*
X120590248Y-114250000D01*
X120609561Y-114251902D01*
G37*
G04 #@! TD.AperFunction*
G04 #@! TA.AperFunction,Conductor*
G36*
X139209561Y-132001902D02*
G01*
X139250658Y-132010076D01*
X139295492Y-132018994D01*
X139331178Y-132033776D01*
X139382397Y-132067999D01*
X139395759Y-132076928D01*
X139423072Y-132104241D01*
X139466223Y-132168820D01*
X139481006Y-132204509D01*
X139498098Y-132290439D01*
X139500000Y-132309752D01*
X139500000Y-135240248D01*
X139498098Y-135259561D01*
X139481006Y-135345491D01*
X139466223Y-135381180D01*
X139423072Y-135445759D01*
X139395759Y-135473072D01*
X139331178Y-135516224D01*
X139295492Y-135531006D01*
X139250658Y-135539924D01*
X139209561Y-135548098D01*
X139190248Y-135550000D01*
X138709752Y-135550000D01*
X138690439Y-135548098D01*
X138647861Y-135539629D01*
X138624061Y-135534895D01*
X138570676Y-135504999D01*
X138545060Y-135449434D01*
X138553649Y-135395960D01*
X138593972Y-135309487D01*
X138600500Y-135259901D01*
X138600499Y-134840100D01*
X138593972Y-134790513D01*
X138543224Y-134681684D01*
X138458316Y-134596776D01*
X138450468Y-134593116D01*
X138450466Y-134593115D01*
X138356356Y-134549231D01*
X138349487Y-134546028D01*
X138321243Y-134542310D01*
X138264161Y-134514161D01*
X137800000Y-134050000D01*
X137597427Y-134050000D01*
X137582926Y-134048932D01*
X137518369Y-134039373D01*
X137490615Y-134030971D01*
X137442805Y-134008404D01*
X137411763Y-133985418D01*
X137386615Y-133957714D01*
X137363891Y-133915255D01*
X137352973Y-133871718D01*
X137350000Y-133847637D01*
X137350000Y-132309752D01*
X137351902Y-132290439D01*
X137368994Y-132204509D01*
X137383777Y-132168820D01*
X137426928Y-132104241D01*
X137454241Y-132076928D01*
X137467603Y-132067999D01*
X137518822Y-132033776D01*
X137554508Y-132018994D01*
X137599342Y-132010076D01*
X137640439Y-132001902D01*
X137659752Y-132000000D01*
X139190248Y-132000000D01*
X139209561Y-132001902D01*
G37*
G04 #@! TD.AperFunction*
G04 #@! TA.AperFunction,Conductor*
G36*
X110643039Y-130919685D02*
G01*
X110688794Y-130972489D01*
X110700000Y-131023998D01*
X110700000Y-142766874D01*
X110700643Y-142786498D01*
X110701704Y-142802683D01*
X110703627Y-142822217D01*
X110723435Y-142972675D01*
X110731091Y-143011161D01*
X110739469Y-143042429D01*
X110752084Y-143079591D01*
X110787695Y-143165563D01*
X110793065Y-143178527D01*
X110800534Y-143247996D01*
X110769259Y-143310476D01*
X110709170Y-143346128D01*
X110678510Y-143349980D01*
X110475890Y-143349986D01*
X110175625Y-143349995D01*
X110108585Y-143330312D01*
X110087940Y-143313676D01*
X105336322Y-138562058D01*
X105302837Y-138500735D01*
X105300003Y-138474375D01*
X105300035Y-136677742D01*
X105300103Y-132750005D01*
X105300134Y-131023998D01*
X105319820Y-130956959D01*
X105372625Y-130911205D01*
X105424134Y-130900000D01*
X110576000Y-130900000D01*
X110643039Y-130919685D01*
G37*
G04 #@! TD.AperFunction*
G04 #@! TA.AperFunction,Conductor*
G36*
X110709191Y-124268907D02*
G01*
X110745155Y-124318407D01*
X110750000Y-124349000D01*
X110750000Y-130351000D01*
X110731093Y-130409191D01*
X110681593Y-130445155D01*
X110651000Y-130450000D01*
X109011896Y-130450000D01*
X108953705Y-130431093D01*
X108917741Y-130381593D01*
X108917159Y-130322262D01*
X108927251Y-130288994D01*
X108942776Y-130210942D01*
X108946375Y-130186675D01*
X108948796Y-130162094D01*
X108950000Y-130137590D01*
X108950000Y-124349000D01*
X108968907Y-124290809D01*
X109018407Y-124254845D01*
X109049000Y-124250000D01*
X110651000Y-124250000D01*
X110709191Y-124268907D01*
G37*
G04 #@! TD.AperFunction*
G04 #@! TA.AperFunction,Conductor*
G36*
X121000000Y-142766874D02*
G01*
X120998939Y-142783059D01*
X120979131Y-142933517D01*
X120970753Y-142964785D01*
X120915814Y-143097418D01*
X120899629Y-143125451D01*
X120812235Y-143239345D01*
X120789345Y-143262235D01*
X120675451Y-143349629D01*
X120647418Y-143365814D01*
X120514785Y-143420753D01*
X120483518Y-143429131D01*
X120358611Y-143445575D01*
X120333059Y-143448939D01*
X120316874Y-143450000D01*
X119650000Y-143450000D01*
X118750000Y-144350000D01*
X118750000Y-146745933D01*
X118749735Y-146754043D01*
X118729999Y-147055160D01*
X118727881Y-147071241D01*
X118669808Y-147363193D01*
X118665610Y-147378861D01*
X118569923Y-147660744D01*
X118563716Y-147675729D01*
X118432056Y-147942710D01*
X118423946Y-147956757D01*
X118258563Y-148204270D01*
X118248690Y-148217136D01*
X118052410Y-148440951D01*
X118040951Y-148452410D01*
X117817138Y-148648689D01*
X117804270Y-148658563D01*
X117556757Y-148823946D01*
X117542710Y-148832056D01*
X117275729Y-148963716D01*
X117260744Y-148969923D01*
X116978861Y-149065610D01*
X116963193Y-149069808D01*
X116671241Y-149127881D01*
X116655160Y-149129999D01*
X116354043Y-149149735D01*
X116345933Y-149150000D01*
X115654067Y-149150000D01*
X115645957Y-149149735D01*
X115344840Y-149129999D01*
X115328759Y-149127881D01*
X115036807Y-149069808D01*
X115021139Y-149065610D01*
X114739256Y-148969923D01*
X114724271Y-148963716D01*
X114457290Y-148832056D01*
X114443243Y-148823946D01*
X114195730Y-148658563D01*
X114182862Y-148648689D01*
X113959049Y-148452410D01*
X113947590Y-148440951D01*
X113751310Y-148217136D01*
X113741437Y-148204270D01*
X113576054Y-147956757D01*
X113567944Y-147942710D01*
X113436284Y-147675729D01*
X113430077Y-147660744D01*
X113334390Y-147378861D01*
X113330192Y-147363193D01*
X113272119Y-147071241D01*
X113270001Y-147055160D01*
X113250265Y-146754043D01*
X113250000Y-146745933D01*
X113250000Y-144350000D01*
X112350000Y-143450000D01*
X111683126Y-143450000D01*
X111666941Y-143448939D01*
X111641389Y-143445575D01*
X111516482Y-143429131D01*
X111485215Y-143420753D01*
X111352582Y-143365814D01*
X111324549Y-143349629D01*
X111210655Y-143262235D01*
X111187765Y-143239345D01*
X111100371Y-143125451D01*
X111084186Y-143097418D01*
X111029247Y-142964785D01*
X111020869Y-142933517D01*
X111001061Y-142783059D01*
X111000000Y-142766874D01*
X111000000Y-130350000D01*
X121000000Y-130350000D01*
X121000000Y-142766874D01*
G37*
G04 #@! TD.AperFunction*
G04 #@! TA.AperFunction,Conductor*
G36*
X126643039Y-130919685D02*
G01*
X126688794Y-130972489D01*
X126700000Y-131024000D01*
X126700000Y-138474374D01*
X126680315Y-138541413D01*
X126663681Y-138562055D01*
X121912055Y-143313681D01*
X121850732Y-143347166D01*
X121824374Y-143350000D01*
X121321488Y-143350000D01*
X121254449Y-143330315D01*
X121208694Y-143277511D01*
X121198750Y-143208353D01*
X121206927Y-143178547D01*
X121247140Y-143081464D01*
X121247916Y-143079591D01*
X121260531Y-143042429D01*
X121268909Y-143011161D01*
X121276565Y-142972675D01*
X121296373Y-142822217D01*
X121298296Y-142802683D01*
X121299357Y-142786498D01*
X121300000Y-142766874D01*
X121300000Y-131024000D01*
X121319685Y-130956961D01*
X121372489Y-130911206D01*
X121424000Y-130900000D01*
X126576000Y-130900000D01*
X126643039Y-130919685D01*
G37*
G04 #@! TD.AperFunction*
M02*
