M48
; DRILL file {KiCad (6.0.2)} date Thu Jul 28 14:32:18 2022
; FORMAT={-:-/ absolute / metric / decimal}
; #@! TF.CreationDate,2022-07-28T14:32:18+02:00
; #@! TF.GenerationSoftware,Kicad,Pcbnew,(6.0.2)
; #@! TF.FileFunction,Plated,1,4,PTH
FMAT,2
METRIC
; #@! TA.AperFunction,Plated,PTH,ViaDrill
T1C0.200
; #@! TA.AperFunction,Plated,PTH,ViaDrill
T2C0.250
; #@! TA.AperFunction,Plated,PTH,ViaDrill
T3C0.300
; #@! TA.AperFunction,Plated,PTH,ViaDrill
T4C0.400
; #@! TA.AperFunction,Plated,PTH,ComponentDrill
T5C0.500
; #@! TA.AperFunction,Plated,PTH,ComponentDrill
T6C0.550
; #@! TA.AperFunction,Plated,PTH,ComponentDrill
T7C1.000
; #@! TA.AperFunction,Plated,PTH,ComponentDrill
T8C1.200
; #@! TA.AperFunction,Plated,PTH,ComponentDrill
T9C1.300
; #@! TA.AperFunction,Plated,PTH,ComponentDrill
T10C3.200
%
G90
G05
T1
X87.7Y-105.05
X87.85Y-107.75
X87.95Y-109.95
X88.0Y-104.3
X88.0Y-108.55
X88.25Y-110.9
X88.626Y-109.5
X88.8Y-111.5
X88.824Y-103.0
X89.6Y-102.6
X90.023Y-103.977
X90.5Y-113.5
X90.7Y-102.3
X90.85Y-103.75
X91.55Y-102.35
X92.1Y-103.75
X92.25Y-101.75
X92.4Y-105.0
X92.6Y-102.5
X92.75Y-135.3
X93.15Y-126.7
X94.05Y-119.25
X94.4Y-126.7
X94.5Y-100.5
X94.5Y-102.55
X94.55Y-103.75
X94.7Y-114.0
X94.7Y-118.7
X94.8Y-134.75
X95.4Y-117.55
X95.65Y-116.65
X95.7Y-126.7
X97.2Y-112.15
X99.85Y-109.75
X100.7Y-109.9
X101.575Y-101.975
X101.725Y-103.3
X102.4Y-102.15
X102.5Y-103.1
X104.5Y-104.0
X105.15Y-103.5
X105.2Y-101.35
X105.5Y-113.55
X105.5Y-114.35
X108.7Y-80.8
X109.7Y-80.8
X110.45Y-107.35
X110.51Y-102.159
X110.8Y-80.8
X111.5Y-87.0
X111.9Y-103.45
X113.05Y-88.4
X113.1Y-96.9
X113.2Y-107.35
X113.3Y-104.325
X113.6Y-111.8
X114.0Y-86.6
X114.0Y-107.1
X114.15Y-104.1
X114.6Y-88.5
X115.15Y-107.4
X115.275Y-104.15
X115.6Y-96.575
X115.715Y-107.965
X116.45Y-107.55
X116.801Y-104.203
X116.9Y-99.45
X116.9Y-100.4
X117.25Y-107.55
X117.65Y-104.25
X118.05Y-107.55
X118.8Y-108.0
X120.3Y-83.6
X120.8Y-104.45
X121.15Y-105.2
X121.5Y-85.45
X122.4Y-106.1
X122.55Y-103.7
X122.65Y-104.5
X122.7Y-105.35
X123.45Y-87.35
X137.6Y-135.45
X137.65Y-126.7
X138.55Y-120.45
X138.7Y-126.7
T2
X92.6Y-137.05
X95.2Y-106.575
X97.05Y-106.15
X111.829Y-112.162
X112.25Y-112.9
X116.65Y-111.1
X117.2Y-97.15
X117.2Y-111.75
X117.942Y-97.575
X117.942Y-98.425
X118.575Y-99.0
X119.4Y-112.375
X120.3Y-112.35
X121.39Y-112.755
X121.475Y-113.6
X123.7Y-91.65
X124.575Y-91.65
X125.425Y-91.65
X126.3Y-91.65
X128.509Y-103.014
X131.6Y-90.75
T3
X89.55Y-112.8
X91.5Y-108.25
X91.5Y-111.75
X92.55Y-109.6
X92.55Y-110.45
X93.45Y-109.6
X93.45Y-110.45
X94.5Y-108.25
X94.5Y-111.75
X95.85Y-105.8
X102.7Y-101.0
X104.9Y-95.1
X105.9Y-95.6
X107.0Y-92.1
X107.0Y-92.8
X109.05Y-92.85
X110.5Y-100.0
X111.6Y-100.0
X120.2Y-79.45
X121.8Y-108.25
X121.8Y-109.15
X122.3Y-97.67
X123.5Y-100.0
X124.0Y-98.2
X124.0Y-99.0
X125.0Y-98.2
X125.0Y-99.0
X125.1Y-100.0
X125.9Y-98.2
X125.9Y-99.0
X126.2Y-100.0
X126.8Y-98.2
X126.9Y-99.0
X127.19Y-100.0
X130.25Y-101.85
X131.75Y-97.75
X132.55Y-93.025
X132.55Y-94.025
X132.55Y-94.8
X132.55Y-95.8
X132.75Y-97.75
X137.3Y-104.25
X137.9Y-90.25
X138.0Y-99.15
X138.0Y-100.0
X138.9Y-86.85
X138.95Y-100.0
X139.0Y-99.15
X140.0Y-96.0
X140.0Y-97.0
X140.0Y-98.0
X140.0Y-99.0
X140.0Y-100.0
X141.0Y-96.0
X141.0Y-97.0
X141.0Y-98.0
X141.0Y-99.0
X141.0Y-100.0
X142.0Y-95.95
X142.0Y-96.95
X142.0Y-97.95
X142.0Y-98.95
X142.0Y-99.95
T4
X84.5Y-140.0
X84.85Y-98.9
X84.85Y-100.75
X86.4Y-117.65
X86.4Y-122.65
X86.4Y-127.65
X86.4Y-132.65
X86.4Y-137.65
X86.9Y-89.7
X87.05Y-107.25
X87.9Y-115.25
X89.4Y-131.25
X89.4Y-132.65
X89.4Y-134.15
X89.8Y-90.9
X90.7Y-117.6
X91.9Y-138.65
X91.9Y-140.4
X91.9Y-142.15
X92.25Y-87.0
X92.4Y-150.15
X92.5Y-92.85
X92.5Y-121.55
X92.5Y-122.65
X92.5Y-123.75
X92.75Y-117.6
X93.6Y-121.55
X93.6Y-122.65
X93.6Y-123.75
X94.0Y-144.55
X94.0Y-145.65
X94.0Y-146.75
X94.0Y-147.85
X94.15Y-138.65
X94.15Y-140.4
X94.15Y-142.15
X94.7Y-121.55
X94.7Y-122.65
X94.7Y-123.75
X95.0Y-125.15
X95.1Y-144.55
X95.1Y-145.65
X95.1Y-146.75
X95.1Y-147.85
X95.8Y-121.55
X95.8Y-122.65
X95.8Y-123.75
X96.2Y-144.55
X96.2Y-145.65
X96.2Y-146.75
X96.2Y-147.85
X97.2Y-90.95
X97.2Y-94.75
X97.3Y-145.65
X97.3Y-146.75
X97.3Y-147.85
X97.4Y-150.15
X97.75Y-96.2
X98.1Y-121.65
X98.1Y-123.05
X98.1Y-124.45
X98.1Y-125.85
X98.75Y-96.9
X99.2Y-93.45
X99.2Y-114.95
X99.2Y-116.25
X99.2Y-117.65
X99.2Y-119.05
X99.5Y-121.65
X99.5Y-123.05
X99.5Y-124.45
X99.5Y-125.85
X99.6Y-88.35
X99.6Y-89.55
X100.5Y-79.35
X100.6Y-114.95
X100.6Y-116.25
X100.6Y-117.65
X100.6Y-119.05
X100.9Y-121.65
X100.9Y-123.05
X100.9Y-124.45
X100.9Y-125.85
X102.0Y-114.95
X102.0Y-116.25
X102.0Y-117.65
X102.0Y-119.05
X102.3Y-121.65
X102.3Y-123.05
X102.3Y-124.45
X102.3Y-125.85
X102.3Y-127.25
X102.4Y-150.15
X103.4Y-114.95
X103.4Y-116.25
X103.4Y-117.65
X103.7Y-121.65
X103.7Y-123.05
X103.7Y-124.45
X103.7Y-125.85
X103.7Y-127.25
X104.4Y-86.65
X104.4Y-89.15
X104.8Y-114.95
X104.8Y-116.25
X104.8Y-117.65
X105.1Y-121.65
X105.1Y-123.05
X105.1Y-124.45
X105.1Y-125.85
X105.1Y-127.25
X105.2Y-79.1
X105.8Y-82.5
X106.2Y-114.95
X106.2Y-116.25
X106.2Y-117.65
X106.2Y-131.55
X106.2Y-132.95
X106.2Y-134.35
X106.2Y-135.75
X106.2Y-137.15
X106.5Y-121.65
X106.5Y-123.05
X106.5Y-124.45
X106.5Y-125.85
X106.5Y-127.25
X106.8Y-79.45
X106.8Y-82.5
X107.3Y-81.1
X107.4Y-150.15
X107.45Y-132.25
X107.45Y-133.65
X107.45Y-135.05
X107.45Y-136.45
X107.45Y-137.85
X107.6Y-114.95
X107.6Y-116.25
X107.6Y-117.65
X107.6Y-119.05
X107.6Y-120.35
X107.8Y-82.5
X107.9Y-121.65
X107.9Y-123.05
X107.9Y-124.45
X107.9Y-125.85
X107.9Y-127.25
X107.9Y-128.65
X107.9Y-130.05
X108.4Y-86.65
X108.4Y-89.15
X108.7Y-131.55
X108.7Y-132.95
X108.7Y-134.35
X108.7Y-135.75
X108.7Y-137.15
X109.6Y-128.3
X109.65Y-126.8
X109.95Y-133.65
X109.95Y-135.05
X109.95Y-136.45
X109.95Y-137.85
X111.0Y-103.65
X111.45Y-114.95
X111.45Y-116.25
X111.45Y-117.65
X111.45Y-119.05
X111.9Y-150.15
X112.0Y-121.65
X112.0Y-123.05
X112.0Y-124.45
X112.0Y-125.85
X112.0Y-127.25
X112.0Y-128.65
X112.85Y-114.95
X112.85Y-116.25
X112.85Y-117.65
X112.85Y-119.05
X113.4Y-121.65
X113.4Y-123.05
X113.4Y-124.45
X113.4Y-125.85
X113.4Y-127.25
X113.4Y-128.65
X113.6Y-98.15
X113.8Y-79.45
X113.8Y-82.5
X114.25Y-114.95
X114.25Y-116.25
X114.25Y-117.65
X114.7Y-82.5
X114.8Y-121.65
X114.8Y-123.05
X114.8Y-124.45
X114.8Y-125.85
X114.8Y-127.25
X115.3Y-79.1
X115.65Y-114.95
X115.65Y-116.25
X115.65Y-117.65
X116.2Y-121.65
X116.2Y-123.05
X116.2Y-124.45
X116.2Y-125.85
X116.2Y-127.25
X116.9Y-85.15
X116.9Y-150.15
X117.05Y-114.95
X117.05Y-116.25
X117.05Y-117.65
X117.6Y-121.65
X117.6Y-123.05
X117.6Y-124.45
X117.6Y-125.85
X117.6Y-127.25
X118.45Y-114.95
X118.45Y-116.25
X118.45Y-117.65
X118.45Y-119.05
X118.9Y-102.3
X119.0Y-121.65
X119.0Y-123.05
X119.0Y-124.45
X119.0Y-125.85
X119.0Y-127.25
X119.0Y-128.65
X119.0Y-130.05
X119.85Y-114.95
X119.85Y-116.25
X119.85Y-117.65
X119.85Y-119.05
X119.85Y-120.35
X119.9Y-108.2
X120.4Y-121.65
X120.4Y-123.05
X120.4Y-124.45
X120.4Y-125.85
X120.4Y-127.25
X120.4Y-128.65
X120.4Y-130.05
X121.35Y-87.7
X121.9Y-150.15
X122.0Y-128.4
X122.05Y-126.85
X122.05Y-133.65
X122.05Y-135.05
X122.05Y-136.45
X122.05Y-137.85
X123.3Y-131.55
X123.3Y-132.95
X123.3Y-134.35
X123.3Y-135.75
X123.3Y-137.15
X123.6Y-113.65
X123.6Y-114.95
X123.6Y-116.25
X123.6Y-117.65
X123.6Y-119.05
X123.9Y-111.65
X124.0Y-80.85
X124.1Y-121.65
X124.1Y-123.05
X124.1Y-124.45
X124.1Y-125.85
X124.1Y-127.25
X124.1Y-128.65
X124.55Y-132.25
X124.55Y-133.65
X124.55Y-135.05
X124.55Y-136.45
X124.55Y-137.85
X125.0Y-113.65
X125.0Y-114.95
X125.0Y-116.25
X125.0Y-117.65
X125.0Y-119.05
X125.1Y-103.399
X125.4Y-94.35
X125.5Y-121.65
X125.5Y-123.05
X125.5Y-124.45
X125.5Y-125.85
X125.5Y-127.25
X125.5Y-128.65
X125.65Y-107.65
X125.8Y-131.55
X125.8Y-132.95
X125.8Y-134.35
X125.8Y-135.75
X125.8Y-137.15
X126.2Y-104.725
X126.4Y-113.65
X126.4Y-114.95
X126.4Y-116.25
X126.4Y-117.65
X126.4Y-119.05
X126.9Y-121.65
X126.9Y-123.05
X126.9Y-124.45
X126.9Y-125.85
X126.9Y-127.25
X126.9Y-150.15
X127.0Y-92.75
X127.7Y-110.55
X127.7Y-111.65
X127.8Y-113.65
X127.8Y-114.95
X127.8Y-116.25
X127.8Y-117.65
X128.3Y-121.65
X128.3Y-123.05
X128.3Y-124.45
X128.3Y-125.85
X128.3Y-127.25
X128.65Y-95.75
X128.65Y-97.15
X129.0Y-101.1
X129.2Y-105.75
X129.2Y-109.45
X129.2Y-113.65
X129.2Y-114.95
X129.2Y-116.25
X129.2Y-117.65
X129.65Y-79.85
X129.7Y-121.65
X129.7Y-123.05
X129.7Y-124.45
X129.7Y-125.85
X129.7Y-127.25
X130.05Y-95.75
X130.05Y-97.15
X130.6Y-113.65
X130.6Y-114.95
X130.6Y-116.25
X130.6Y-117.65
X131.1Y-121.65
X131.1Y-123.05
X131.1Y-124.45
X131.1Y-125.85
X131.1Y-127.25
X131.3Y-100.9
X131.475Y-85.675
X131.722Y-89.15
X132.0Y-113.65
X132.0Y-114.95
X132.0Y-116.25
X132.0Y-117.65
X132.0Y-119.05
X132.0Y-120.35
X132.3Y-100.9
X132.5Y-121.65
X132.5Y-123.05
X132.5Y-124.45
X132.5Y-125.85
X132.6Y-82.25
X133.1Y-88.35
X133.3Y-100.9
X133.4Y-115.45
X133.4Y-117.65
X133.4Y-119.05
X133.4Y-120.35
X133.9Y-121.65
X133.9Y-123.05
X133.9Y-124.45
X133.9Y-125.85
X134.4Y-130.65
X134.4Y-150.15
X134.7Y-145.65
X134.7Y-146.75
X134.7Y-147.85
X134.8Y-91.15
X134.8Y-92.55
X134.8Y-115.45
X134.8Y-117.65
X134.8Y-120.35
X135.4Y-103.6
X135.8Y-144.55
X135.8Y-145.65
X135.8Y-146.75
X135.8Y-147.85
X135.9Y-119.05
X136.1Y-120.35
X136.15Y-115.45
X136.15Y-117.65
X136.3Y-91.15
X136.3Y-92.55
X136.3Y-122.75
X136.3Y-123.85
X136.3Y-125.65
X136.4Y-130.65
X136.9Y-144.55
X136.9Y-145.65
X136.9Y-146.75
X136.9Y-147.85
X137.4Y-122.75
X137.4Y-123.85
X137.4Y-125.65
X137.65Y-137.9
X137.65Y-139.9
X137.65Y-142.15
X137.9Y-130.65
X138.0Y-144.55
X138.0Y-145.65
X138.0Y-146.75
X138.0Y-147.85
X138.5Y-122.75
X138.5Y-123.85
X138.5Y-125.65
X139.4Y-150.15
X140.65Y-137.9
X140.65Y-139.9
X140.65Y-142.15
X141.9Y-131.15
X141.9Y-133.65
X142.4Y-118.65
X142.4Y-120.15
X142.4Y-121.65
X142.4Y-123.2
X143.9Y-118.65
X143.9Y-120.15
X143.9Y-121.65
X143.9Y-123.2
X144.4Y-150.15
X144.45Y-131.15
X144.45Y-133.65
X145.3Y-92.1
X145.4Y-118.65
X145.4Y-120.15
X145.4Y-121.65
X145.4Y-123.2
X145.45Y-104.05
X145.5Y-98.35
X146.7Y-139.95
X147.15Y-131.15
X147.15Y-133.65
X147.85Y-115.15
X147.85Y-116.35
X147.85Y-117.55
T5
X86.6Y-83.0
X86.6Y-146.0
X87.303Y-81.303
X87.303Y-84.697
X87.303Y-144.303
X87.303Y-147.697
X89.0Y-80.6
X89.0Y-85.4
X89.0Y-143.6
X89.0Y-148.4
X90.697Y-81.303
X90.697Y-84.697
X90.697Y-144.303
X90.697Y-147.697
X91.4Y-83.0
X91.4Y-146.0
X140.6Y-83.0
X140.6Y-146.0
X141.303Y-81.303
X141.303Y-84.697
X141.303Y-144.303
X141.303Y-147.697
X143.0Y-80.6
X143.0Y-85.4
X143.0Y-143.6
X143.0Y-148.4
X144.697Y-81.303
X144.697Y-84.697
X144.697Y-144.303
X144.697Y-147.697
X145.4Y-83.0
X145.4Y-146.0
T7
X95.37Y-81.9
X97.91Y-81.9
X100.45Y-81.9
T8
X144.0Y-112.05
X144.0Y-115.55
T9
X111.0Y-147.15
X116.0Y-147.15
X121.0Y-147.15
T10
X89.0Y-83.0
X89.0Y-146.0
X143.0Y-83.0
X143.0Y-146.0
T5
X130.4Y-78.575G85X130.4Y-77.925
G05
X137.4Y-78.575G85X137.4Y-77.925
G05
T6
X131.55Y-80.95G85X131.25Y-80.95
G05
X136.55Y-80.95G85X136.25Y-80.95
G05
T0
M30
